<?xml version="1.0" encoding="UTF-8"?>
<svg width="256px" height="73px" viewBox="0 0 256 73" version="1.1" xmlns="http://www.w3.org/2000/svg" xmlns:xlink="http://www.w3.org/1999/xlink">
    <title>Untitled</title>
    <g id="Page-1" stroke="none" stroke-width="1" fill="none" fill-rule="evenodd">
        <g id="Group-2" fill="#FFFFFF">
            <path d="M178.401938,72.852433 L255.817277,72.852433 L255.817277,1.0658141e-13 L178.401938,1.0658141e-13 L178.401938,72.852433 Z M227.172991,10.1366606 C226.831971,10.0784147 226.483905,10.0211083 226.128323,9.96755963 L225.709328,9.90696514 C225.118415,9.8247633 224.516228,9.75618349 223.909813,9.69887706 C223.498334,9.66035963 223.085446,9.63358532 222.674906,9.60775046 C221.943545,9.56218716 221.220169,9.54339817 220.522158,9.54339817 C220.203684,9.54339817 220.021901,9.54809541 219.710004,9.55373211 C219.125666,9.56406606 218.55589,9.59177982 217.99269,9.62606972 C217.674217,9.64579817 217.358561,9.67351193 217.047134,9.70075596 C216.584455,9.74115229 216.131171,9.79282202 215.683053,9.84965872 L215.307743,9.89991927 L214.892506,9.96098349 L214.379097,10.0422459 C214.155039,10.0788844 213.934268,10.1183413 213.714906,10.1582679 C213.409116,10.2141651 213.109431,10.2747596 212.810686,10.3377028 C210.973593,10.724756 209.274598,11.2414532 207.706187,11.854444 C206.89873,12.1696294 206.118987,12.5101798 205.38058,12.8718679 C204.76618,13.1729615 204.173387,13.4848587 203.60596,13.8131963 C203.053563,14.1321394 202.522774,14.4534312 202.013593,14.7939817 C201.721894,14.9893872 201.432073,15.1866716 201.153996,15.3881835 C200.912558,15.5629211 200.672528,15.7362495 200.441424,15.9152147 C199.951971,16.2938128 199.477549,16.6799266 199.035068,17.0721468 C198.619831,17.4394716 198.215868,17.8110239 197.841497,18.1858642 C197.517857,18.5095046 197.194217,18.836433 196.886547,19.1807413 C196.577468,19.5269284 196.26698,19.8778128 195.971993,20.2432587 C195.650231,20.6411156 195.333637,21.0474275 195.031134,21.4687706 C194.808015,21.7797284 194.589123,22.0963229 194.377277,22.4194936 C194.234481,22.6379156 194.094503,22.859156 193.957343,23.082745 C193.148947,24.4017321 192.441541,25.8170128 191.861431,27.3229505 C191.137585,29.2032587 190.611024,31.2244844 190.325431,33.3753541 C190.235244,34.0522275 190.164316,34.740844 190.124389,35.4435523 C190.093387,35.9823266 190.07178,36.529556 190.07178,37.0833615 C190.07178,37.4990679 190.076007,37.9081982 190.101842,38.3140404 C190.130026,38.7377321 190.161497,39.1562569 190.210349,39.5705541 L190.24229,39.8613138 C190.304763,40.354055 190.381328,40.8378716 190.473864,41.3165211 C190.510033,41.5025321 190.547611,41.6890128 190.587068,41.8740844 C190.672558,42.272411 190.765563,42.6651009 190.870312,43.0512147 C191.005593,43.5533505 191.147919,44.0437431 191.310914,44.5266202 C191.511017,45.1189431 191.722393,45.6967046 191.958194,46.257556 C192.331156,47.1481541 192.738877,48.0035229 193.180888,48.8091009 C193.440176,49.2821138 193.70604,49.7433835 193.982239,50.1849248 C194.203009,50.5386275 194.430826,50.8782385 194.659582,51.2103339 C194.961615,51.6490569 195.275861,52.0694606 195.584939,52.4691963 C195.912807,52.8933578 196.252418,53.290745 196.580756,53.6688734 C196.993174,54.1437651 197.408881,54.5763817 197.809086,54.9761174 L198.026569,55.1893725 C198.361013,55.5097248 198.721761,55.8559119 199.135589,56.2072661 C199.418363,56.4477651 199.711002,56.7014165 200.030884,56.9513101 C200.326811,57.1828844 200.633072,57.4233835 200.961879,57.6591853 C201.35269,57.9391413 201.76135,58.2247339 202.199604,58.5051596 C202.661813,58.8010862 203.147039,59.0988917 203.663736,59.3873028 C204.686327,59.9589578 205.814606,60.5108844 207.056088,61.0083229 C207.520646,61.1943339 208.001174,61.3718899 208.497673,61.5424 C208.989475,61.7110312 209.49349,61.8674495 210.016294,62.0177615 C210.907831,62.2742312 211.844462,62.4996991 212.828536,62.6904073 C213.619083,62.8435376 214.443919,62.9717725 215.29553,63.0751119 C216.142444,63.1770422 217.01895,63.2550165 217.928338,63.3001101 C218.368939,63.3217174 218.817057,63.3409761 219.27222,63.3475523 C219.478899,63.3508404 219.691684,63.3564771 219.902121,63.3564771 C221.530187,63.3564771 223.036125,63.2940037 224.430738,63.1784514 L224.704587,63.153556 C225.261681,63.1037651 225.796228,63.0464587 226.319031,62.981167 C227.114745,62.8825248 227.877108,62.7646239 228.598136,62.6359193 C229.056587,62.5537174 229.498128,62.4649394 229.927927,62.3728734 C230.596345,62.2300771 231.228594,62.0750679 231.83407,61.914422 C232.278899,61.7960514 232.712455,61.6711046 233.125813,61.5466275 C233.621372,61.3967853 234.104719,61.2361394 234.558004,61.0820697 L234.998606,60.9270606 C235.218906,60.8481468 235.517182,60.7410495 235.869475,60.6038899 C236.334972,60.4230459 236.898172,60.1999266 237.537468,59.9256073 C237.919354,59.7621431 238.333651,59.5770716 238.757343,59.3830752 C239.134532,59.2106862 239.532859,59.0185688 239.931655,58.8241028 C240.099817,58.7414312 240.269857,58.6625174 240.440837,58.5765578 L240.440837,48.6423486 C240.326694,48.715156 240.203156,48.7870239 240.087134,48.8579523 L239.406033,49.2675523 C238.726811,49.6795009 238.072954,50.0674936 237.413461,50.4263633 C236.691494,50.8162349 235.988785,51.1788624 235.290774,51.5076697 C234.059626,52.0863706 232.884844,52.5748844 231.742943,52.9840147 C229.578921,53.7604697 227.588228,54.2564991 225.836154,54.5632294 C225.628536,54.5993982 225.421387,54.6322789 225.220815,54.6637505 C224.73418,54.7393761 224.27244,54.7966826 223.828081,54.8455339 C223.134297,54.9220991 222.494062,54.961556 221.912543,54.9883303 C221.535824,55.0052404 221.183061,55.0132257 220.858481,55.0132257 C220.153894,55.0132257 219.427699,54.9953761 218.690231,54.9422972 C217.825468,54.8793541 216.943794,54.7830606 216.056015,54.6341578 C214.618657,54.3936587 213.177541,54.0291523 211.766018,53.5171523 C211.556991,53.4415266 211.347963,53.358855 211.140815,53.2766532 C211.007883,53.224044 210.867435,53.1657982 210.736851,53.1103706 C210.504338,53.0112587 210.27793,52.9121468 210.046826,52.8036404 C209.563009,52.5758239 209.079193,52.3273394 208.608059,52.0614752 C208.377424,51.9285431 208.149607,51.7913835 207.907699,51.6406018 C207.672367,51.4916991 207.436095,51.3371596 207.20593,51.1774532 C206.91658,50.9773505 206.628639,50.7687927 206.346804,50.5499009 C206.08,50.3371156 205.800514,50.1092991 205.569409,49.9077872 L205.240602,49.6113908 L205.077138,49.4620183 L204.980844,49.3694826 L204.859185,49.2534606 C204.415295,48.8100404 204.004286,48.3619229 203.632734,47.9152147 C203.423237,47.6634422 203.227361,47.4097908 203.039472,47.1556697 C202.859567,46.9118826 202.690936,46.6638679 202.52982,46.4191413 C202.37669,46.1870972 202.232484,45.9498862 202.095794,45.7183119 C201.890055,45.3693064 201.704514,45.0156037 201.532594,44.6694165 C201.384631,44.3730202 201.25029,44.0738055 201.125343,43.7816367 C200.913028,43.282789 200.729365,42.7768954 200.576235,42.2991853 C200.455516,41.9262239 200.354994,41.5523229 200.265747,41.197211 C200.00458,40.159589 199.86789,39.2102752 199.794143,38.4046972 C199.76549,38.0932697 199.744822,37.8062679 199.732609,37.5408734 C199.71429,37.143956 199.707714,36.7987083 199.707714,36.5225101 C199.707714,36.3402569 199.711472,36.1321688 199.720396,35.8930789 C199.740594,35.3242422 199.786628,34.6041541 199.906407,33.7844844 C199.978745,33.2875156 200.080675,32.754378 200.212668,32.1958752 C200.300506,31.8243229 200.404316,31.4494826 200.524095,31.0577321 C200.632602,30.7044991 200.761306,30.3489174 200.898936,29.9834716 C200.991472,29.7392147 201.09669,29.4935486 201.203787,29.2455339 C201.349402,28.9073321 201.511927,28.5738275 201.686194,28.2313982 C201.817248,27.9744587 201.962393,27.7212771 202.111295,27.4638679 C202.438694,26.8978495 202.808367,26.3365284 203.228771,25.7789651 C203.379552,25.5783927 203.534092,25.3782899 203.698495,25.1800661 C203.908932,24.9273541 204.130172,24.6643083 204.362686,24.4167633 C204.480117,24.2918165 204.596609,24.1607633 204.719677,24.0376954 C206.54033,22.2165725 208.58833,20.8548404 210.708668,19.8890862 C211.037945,19.739244 211.373798,19.6039633 211.705424,19.4719706 C212.046914,19.3371596 212.376191,19.2192587 212.71956,19.102767 C213.085475,18.9792294 213.459846,18.8669651 213.827171,18.763156 C214.174767,18.6649835 214.528,18.5794936 214.874187,18.4991706 C215.224602,18.4174385 215.576426,18.3493284 215.924492,18.2849761 C216.308257,18.213578 216.693431,18.1562716 217.072499,18.1046018 C217.456264,18.0524624 217.836741,18.0144147 218.213461,17.9815339 C218.939185,17.9185908 219.650349,17.8866495 220.341783,17.8866495 C220.575706,17.8866495 220.803993,17.8847706 221.032749,17.8908771 C221.547097,17.9040294 222.050642,17.9195303 222.540095,17.952411 C222.881585,17.9749578 223.21462,17.9970349 223.542488,18.027567 C224.169101,18.0858128 224.773637,18.1628477 225.346701,18.2502165 C225.857761,18.3277211 226.351442,18.4160294 226.813651,18.5076257 C227.528103,18.6485431 228.179141,18.8073101 228.7616,18.9590312 C229.143956,19.0586128 229.494371,19.1638312 229.813314,19.2582459 C230.294312,19.4010422 230.704851,19.5292771 231.025673,19.6401321 C231.575251,19.8303706 231.880103,19.9435743 231.880103,19.9435743 C232.369556,20.1169028 232.845857,20.3085505 233.316051,20.4973798 C233.946422,20.7500917 234.548609,21.0234716 235.12825,21.2841688 C235.609717,21.5011817 236.064881,21.7271193 236.494679,21.9361468 C236.850261,22.1094752 237.180007,22.2846826 237.491435,22.4439193 C238.033967,22.7248147 238.493828,22.980345 238.871956,23.1846752 L239.885152,23.7361321 L239.885152,13.9785394 C239.885152,13.9785394 239.27498,13.7277064 238.224206,13.3317284 C237.759178,13.1560514 237.210539,12.9474936 236.587215,12.7281321 C236.240088,12.6064734 235.876991,12.4721321 235.48665,12.3415486 C235.17851,12.2386789 234.861916,12.125945 234.52935,12.0197872 C234.157798,11.9014165 233.772624,11.7727119 233.374767,11.6529321 C233.088705,11.5674422 232.793248,11.4763156 232.494503,11.3912954 L232.229578,11.3161394 C231.940228,11.2339376 231.64524,11.1512661 231.346026,11.0704734 C230.993262,10.975589 230.633923,10.8835229 230.268947,10.7933358 C230.036433,10.7360294 229.80298,10.6810716 229.564829,10.6261138 C229.180125,10.5373358 228.789314,10.4513761 228.393806,10.369644 C227.99313,10.286033 227.582591,10.2113468 227.172991,10.1366606 L227.172991,10.1366606 Z" id="Fill-1"></path>
            <path d="M118.905283,40.1737747 L118.905283,54.4914554 L128.200666,54.4914554 C128.200666,54.4914554 128.386208,54.4858187 128.690589,54.475015 C129.004835,54.4642114 129.447316,54.447771 129.982802,54.4012683 C130.996938,54.3087325 132.321562,54.1227215 133.610956,53.6868169 C134.778692,53.2927178 135.914017,52.7032132 136.782068,51.8351618 C137.116512,51.5011875 137.392241,51.1526517 137.61489,50.8017673 C138.344843,49.6532903 138.528035,48.4850848 138.568432,47.8232426 C138.590509,47.5371802 138.58816,47.3690187 138.58816,47.3690187 C138.58816,47.3690187 138.593327,47.2407839 138.587221,47.018604 C138.577826,46.7419361 138.544476,46.2059802 138.396982,45.6315068 C138.223184,44.951815 137.895786,44.1650261 137.311918,43.4444683 C137.201063,43.3073086 137.082692,43.1706187 136.951639,43.0395655 C136.695639,42.7835655 136.42085,42.5388389 136.117877,42.3161894 C135.608226,41.9418187 135.028116,41.6214664 134.395397,41.3471472 C133.561166,40.9854591 132.625474,40.7158371 131.598186,40.5232499 C131.073033,40.4250774 130.515,40.3433453 129.945224,40.2897967 C129.59387,40.2564462 129.242046,40.2320206 128.874252,40.2099435 C128.557188,40.1911545 128.221804,40.1780022 127.893936,40.1780022 C124.59318,40.1780022 118.905283,40.1737747 118.905283,40.1737747" id="Fill-3"></path>
            <path d="M118.905283,18.4079501 L118.905283,31.9806496 L123.406655,31.9806496 C123.406655,31.9806496 123.70681,31.9811171 124.103727,31.9684345 C124.414685,31.9585703 124.784828,31.9374327 125.115984,31.9209923 C126.041342,31.8510033 127.322751,31.721829 128.60463,31.3638987 C128.854054,31.2943794 129.106296,31.2168749 129.352432,31.1290363 C130.357173,30.7715758 131.319639,30.2483024 132.06838,29.5127134 C132.6654,28.9264969 133.057621,28.2745189 133.317378,27.6413299 C133.636321,26.8653446 133.747646,26.1208308 133.794149,25.5947391 C133.835905,25.1245446 133.833136,24.8262694 133.833136,24.8262694 C133.833136,24.8262694 133.84347,24.6022106 133.824211,24.2499171 C133.79227,23.6585336 133.669672,22.6960675 133.204175,21.7711794 C132.977767,21.3277593 132.670567,20.9012492 132.252043,20.4874217 C131.746619,19.9881042 131.132219,19.6043391 130.471786,19.3131097 C129.204468,18.7550767 127.753958,18.5319574 126.533143,18.4497556 C126.001885,18.4140565 125.517599,18.4079501 125.10565,18.4079501 L118.905283,18.4079501 Z" id="Fill-4"></path>
            <path d="M89.2007339,72.852433 L166.613725,72.852433 L166.613725,1.0658141e-13 L89.2007339,1.0658141e-13 L89.2007339,72.852433 Z M109.507875,10.2146349 L109.507875,62.6833615 L129.258862,62.6833615 C129.258862,62.6833615 138.890569,62.9492257 144.208793,57.6310018 C148.537306,53.3024881 148.226349,48.2942826 148.226349,48.2942826 C148.226349,48.2942826 148.539185,43.0648367 144.530554,39.0566752 C141.115655,35.6417761 136.75567,34.7314495 136.75567,34.7314495 C136.75567,34.7314495 138.724756,33.8075009 140.238209,32.2940477 C140.946084,31.5857028 143.466628,29.3070679 143.466628,23.7816954 C143.466628,18.2121688 139.760969,15.0109945 139.760969,15.0109945 C139.760969,15.0109945 135.702547,10.2146349 126.536807,10.2146349 L109.507875,10.2146349 Z" id="Fill-5"></path>
            <path d="M29.7043611,40.1737747 L29.7043611,54.4914554 L38.9997446,54.4914554 C38.9997446,54.4914554 39.1852859,54.4858187 39.4896675,54.475015 C39.8039134,54.4642114 40.2459244,54.447771 40.7818804,54.4012683 C41.7955464,54.3087325 43.12064,54.1227215 44.4095648,53.6868169 C45.5777703,53.2927178 46.713095,52.7032132 47.5811464,51.8351618 C47.9155905,51.5011875 48.1913189,51.1526517 48.4139684,50.8017673 C49.1439207,49.6532903 49.3271134,48.4850848 49.3675097,47.8232426 C49.3891401,47.5371802 49.3867684,47.3690187 49.3867684,47.3690187 C49.3867684,47.3690187 49.3924051,47.2407839 49.3862987,47.018604 C49.3764345,46.7419361 49.343084,46.2059802 49.1960602,45.6315068 C49.022262,44.951815 48.6948639,44.1650261 48.110996,43.4444683 C48.0001409,43.3073086 47.8817703,43.1706187 47.7507171,43.0395655 C47.4947171,42.7835655 47.2199281,42.5388389 46.9169556,42.3161894 C46.4068345,41.9418187 45.8271941,41.6214664 45.1940051,41.3471472 C44.3602437,40.9854591 43.4245519,40.7158371 42.3972639,40.5232499 C41.8721116,40.4250774 41.3140785,40.3433453 40.7443024,40.2897967 C40.3929483,40.2564462 40.0411244,40.2320206 39.6733299,40.2099435 C39.3562657,40.1911545 39.0208822,40.1780022 38.6930143,40.1780022 C35.3922583,40.1780022 29.7043611,40.1737747 29.7043611,40.1737747" id="Fill-6"></path>
            <path d="M29.7043611,18.4079501 L29.7043611,31.9806496 L34.2057336,31.9806496 C34.2057336,31.9806496 34.5058877,31.9811171 34.9028051,31.9684345 C35.2137629,31.9585703 35.5839061,31.9374327 35.915062,31.9209923 C36.8404198,31.8510033 38.121829,31.721829 39.4037079,31.3638987 C39.6531317,31.2943794 39.9049042,31.2168749 40.1515097,31.1290363 C41.156251,30.7715758 42.1187171,30.2483024 42.8674583,29.5127134 C43.4644785,28.9264969 43.8566987,28.2745189 44.1164565,27.6413299 C44.4349299,26.8653446 44.5467244,26.1208308 44.5932272,25.5947391 C44.6350327,25.1245446 44.6322143,24.8262694 44.6322143,24.8262694 C44.6322143,24.8262694 44.6420785,24.6022106 44.6232895,24.2499171 C44.5913483,23.6585336 44.4687501,22.6960675 44.0032528,21.7711794 C43.7768455,21.3277593 43.4696455,20.9012492 43.0511207,20.4874217 C42.5456969,19.9881042 41.9312969,19.6043391 41.2708639,19.3131097 C40.0035464,18.7550767 38.5530363,18.5319574 37.3322217,18.4497556 C36.8009629,18.4140565 36.3166767,18.4079501 35.9042583,18.4079501 L29.7043611,18.4079501 Z" id="Fill-7"></path>
            <path d="M3.55271368e-14,72.852433 L77.4125211,72.852433 L77.4125211,1.0658141e-13 L3.55271368e-14,1.0658141e-13 L3.55271368e-14,72.852433 Z M20.3071413,10.2146349 L20.3071413,62.6833615 L40.0576587,62.6833615 C40.0576587,62.6833615 49.6898349,62.9492257 55.007589,57.6310018 C59.3361028,53.3024881 59.0256147,48.2942826 59.0256147,48.2942826 C59.0256147,48.2942826 59.3384514,43.0648367 55.3298202,39.0566752 C51.9149211,35.6417761 47.5549358,34.7314495 47.5549358,34.7314495 C47.5549358,34.7314495 49.524022,33.8075009 51.0370055,32.2940477 C51.7453505,31.5857028 54.2658936,29.3070679 54.2658936,23.7816954 C54.2658936,18.2121688 50.5597651,15.0109945 50.5597651,15.0109945 C50.5597651,15.0109945 46.5013431,10.2146349 37.3360734,10.2146349 L20.3071413,10.2146349 Z" id="Fill-8"></path>
        </g>
    </g>
</svg>