<?xml version="1.0" encoding="UTF-8"?>
<svg width="256px" height="73px" viewBox="0 0 256 73" version="1.1" xmlns="http://www.w3.org/2000/svg" xmlns:xlink="http://www.w3.org/1999/xlink">
    <title>Untitled</title>
    <g id="Page-1" stroke="none" stroke-width="1" fill="none" fill-rule="evenodd">
        <g id="Group" fill="#000000" transform="translate(0.000000, 0.000000)">
            <path d="M178.401938,71.8679407 L255.817277,71.8679407 L255.817277,0 L178.401938,0 L178.401938,71.8679407 Z M227.172991,9.99967865 C226.831971,9.94221989 226.483905,9.88568788 226.128323,9.83286288 L225.709328,9.77308723 C225.118415,9.69199623 224.516228,9.62434317 223.909813,9.56781116 C223.498334,9.52981423 223.085446,9.50340174 222.674906,9.47791599 C221.943545,9.43296841 221.220169,9.41443333 220.522158,9.41443333 C220.203684,9.41443333 220.021901,9.4190671 219.710004,9.42462762 C219.125666,9.43482192 218.55589,9.46216117 217.99269,9.4959877 C217.674217,9.51544954 217.358561,9.54278879 217.047134,9.56966467 C216.584455,9.6095151 216.131171,9.66048659 215.683053,9.71655522 L215.307743,9.76613657 L214.892506,9.8263756 L214.379097,9.90653985 C214.155039,9.94268326 213.934268,9.98160694 213.714906,10.020994 C213.409116,10.0761359 213.109431,10.1359115 212.810686,10.1980041 C210.973593,10.5798268 209.274598,11.0895417 207.706187,11.6942488 C206.89873,12.0051749 206.118987,12.3411233 205.38058,12.6979237 C204.76618,12.9949485 204.173387,13.3026309 203.60596,13.6265315 C203.053563,13.9411646 202.522774,14.2581146 202.013593,14.594063 C201.721894,14.7868279 201.432073,14.9814463 201.153996,15.1802351 C200.912558,15.3526114 200.672528,15.5235975 200.441424,15.7001442 C199.951971,16.0736262 199.477549,16.4545222 199.035068,16.8414421 C198.619831,17.203803 198.215868,17.5703343 197.841497,17.9401093 C197.517857,18.2593761 197.194217,18.5818866 196.886547,18.9215421 C196.577468,19.263051 196.26698,19.6091938 195.971993,19.9697012 C195.650231,20.3621816 195.333637,20.7630028 195.031134,21.1786521 C194.808015,21.4854078 194.589123,21.797724 194.377277,22.1165274 C194.234481,22.3319978 194.094503,22.5502485 193.957343,22.770816 C193.148947,24.071979 192.441541,25.4681343 191.861431,26.9537214 C191.137585,28.8086201 190.611024,30.8025319 190.325431,32.9243358 C190.235244,33.5920623 190.164316,34.2713732 190.124389,34.9645854 C190.093387,35.4960789 190.07178,36.0359133 190.07178,36.582235 C190.07178,36.9923237 190.076007,37.3959252 190.101842,37.7962831 C190.130026,38.2142492 190.161497,38.6271183 190.210349,39.0358169 L190.24229,39.3226474 C190.304763,39.80873 190.381328,40.2860084 190.473864,40.7581897 C190.510033,40.9416871 190.547611,41.1256478 190.587068,41.3082184 C190.672558,41.7011622 190.765563,42.0885455 190.870312,42.4694415 C191.005593,42.9647917 191.147919,43.4485574 191.310914,43.9249091 C191.511017,44.5092277 191.722393,45.0791816 191.958194,45.6324539 C192.331156,46.5110169 192.738877,47.3548267 193.180888,48.1495185 C193.440176,48.6161393 193.70604,49.0711756 193.982239,49.5067501 C194.203009,49.8556731 194.430826,50.1906948 194.659582,50.5183024 C194.961615,50.9510967 195.275861,51.3658192 195.584939,51.7601531 C195.912807,52.1785827 196.252418,52.5705998 196.580756,52.9436183 C196.993174,53.4120926 197.408881,53.838863 197.809086,54.2331969 L198.026569,54.4435701 C198.361013,54.7595934 198.721761,55.1011023 199.135589,55.4477084 C199.418363,55.6849575 199.711002,55.9351812 200.030884,56.1816978 C200.326811,56.4101427 200.633072,56.6473918 200.961879,56.8800071 C201.35269,57.1561799 201.76135,57.4379132 202.199604,57.7145494 C202.661813,58.006477 203.147039,58.3002581 203.663736,58.5847716 C204.686327,59.1487016 205.814606,59.6931697 207.056088,60.1838861 C207.520646,60.3673835 208.001174,60.54254 208.497673,60.7107459 C208.989475,60.8770983 209.49349,61.0314029 210.016294,61.1796836 C210.907831,61.4326875 211.844462,61.6551086 212.828536,61.8432397 C213.619083,61.9943006 214.443919,62.1208026 215.29553,62.2227455 C216.142444,62.3232984 217.01895,62.400219 217.928338,62.4447032 C218.368939,62.4660185 218.817057,62.485017 219.27222,62.4915043 C219.478899,62.4947479 219.691684,62.5003085 219.902121,62.5003085 C221.530187,62.5003085 223.036125,62.4386793 224.430738,62.3246885 L224.704587,62.3001295 C225.261681,62.2510116 225.796228,62.1944795 226.319031,62.1300701 C227.114745,62.0327609 227.877108,61.9164533 228.598136,61.7894879 C229.056587,61.7083969 229.498128,61.6208186 229.927927,61.5299967 C230.596345,61.3891301 231.228594,61.2362156 231.83407,61.0777406 C232.278899,60.9609696 232.712455,60.8377113 233.125813,60.7149163 C233.621372,60.567099 234.104719,60.4086241 234.558004,60.2566364 L234.998606,60.1037219 C235.218906,60.0258745 235.517182,59.9202245 235.869475,59.7849184 C236.334972,59.6065182 236.898172,59.3864141 237.537468,59.1158018 C237.919354,58.9545466 238.333651,58.771976 238.757343,58.5806012 C239.134532,58.4105418 239.532859,58.2210206 239.931655,58.0291824 C240.099817,57.9476281 240.269857,57.8697807 240.440837,57.7849827 L240.440837,47.9850196 C240.326694,48.056843 240.203156,48.1277397 240.087134,48.1977097 L239.406033,48.6017746 C238.726811,49.0081563 238.072954,49.3909058 237.413461,49.744926 C236.691494,50.129529 235.988785,50.4872561 235.290774,50.8116201 C234.059626,51.3825008 232.884844,51.864413 231.742943,52.2680145 C229.578921,53.0339769 227.588228,53.5233031 225.836154,53.8258884 C225.628536,53.8615685 225.421387,53.8940049 225.220815,53.9250511 C224.73418,53.9996548 224.27244,54.0561869 223.828081,54.1043781 C223.134297,54.1799086 222.494062,54.2188322 221.912543,54.2452447 C221.535824,54.2619263 221.183061,54.2698037 220.858481,54.2698037 C220.153894,54.2698037 219.427699,54.2521954 218.690231,54.1998338 C217.825468,54.1377412 216.943794,54.0427489 216.056015,53.8958584 C214.618657,53.6586093 213.177541,53.2990286 211.766018,52.7939475 C211.556991,52.7193438 211.347963,52.6377894 211.140815,52.5566984 C211.007883,52.5048002 210.867435,52.4473414 210.736851,52.3926629 C210.504338,52.2948904 210.27793,52.1971178 210.046826,52.0900777 C209.563009,51.8653397 209.079193,51.6202132 208.608059,51.3579418 C208.377424,51.2268061 208.149607,51.0914999 207.907699,50.9427559 C207.672367,50.7958653 207.436095,50.6434142 207.20593,50.485866 C206.91658,50.2884673 206.628639,50.0827279 206.346804,49.8667941 C206.08,49.6568843 205.800514,49.4321464 205.569409,49.2333576 L205.240602,48.9409666 L205.077138,48.7936127 L204.980844,48.7023274 L204.859185,48.5878732 C204.415295,48.1504452 204.004286,47.7083834 203.632734,47.2677118 C203.423237,47.0193416 203.227361,46.769118 203.039472,46.5184309 C202.859567,46.2779382 202.690936,46.0332751 202.52982,45.7918556 C202.37669,45.5629473 202.232484,45.3289418 202.095794,45.1004969 C201.890055,44.7562077 201.704514,44.4072847 201.532594,44.0657758 C201.384631,43.7733848 201.25029,43.4782135 201.125343,43.189993 C200.913028,42.6978864 200.729365,42.1988293 200.576235,41.7275747 C200.455516,41.3596533 200.354994,40.9908051 200.265747,40.6404919 C200.00458,39.6168918 199.86789,38.6804066 199.794143,37.8857149 C199.76549,37.5784958 199.744822,37.2953724 199.732609,37.0335643 C199.71429,36.6420106 199.707714,36.3014284 199.707714,36.0289627 C199.707714,35.8491723 199.711472,35.6438963 199.720396,35.4080373 C199.740594,34.8468876 199.786628,34.1365304 199.906407,33.3279373 C199.978745,32.8376843 200.080675,32.3117513 200.212668,31.7607958 C200.300506,31.3942645 200.404316,31.0244896 200.524095,30.638033 C200.632602,30.2895734 200.761306,29.9387969 200.898936,29.5782895 C200.991472,29.3373334 201.09669,29.0949872 201.203787,28.850324 C201.349402,28.5166925 201.511927,28.1876947 201.686194,27.8498928 C201.817248,27.5964255 201.962393,27.3466652 202.111295,27.0927345 C202.438694,26.5343651 202.808367,25.9806294 203.228771,25.4306007 C203.379552,25.2327387 203.534092,25.03534 203.698495,24.8397949 C203.908932,24.590498 204.130172,24.3310068 204.362686,24.086807 C204.480117,23.9635487 204.596609,23.8342665 204.719677,23.7128617 C206.54033,21.9163485 208.58833,20.5730182 210.708668,19.6203148 C211.037945,19.4724975 211.373798,19.3390449 211.705424,19.2088359 C212.046914,19.0758467 212.376191,18.959539 212.71956,18.8446215 C213.085475,18.7227533 213.459846,18.6120061 213.827171,18.5095998 C214.174767,18.412754 214.528,18.3284193 214.874187,18.2491818 C215.224602,18.1685542 215.576426,18.1013645 215.924492,18.0378819 C216.308257,17.9674485 216.693431,17.9109165 217.072499,17.8599451 C217.456264,17.8085102 217.836741,17.7709766 218.213461,17.7385402 C218.939185,17.6764477 219.650349,17.6449381 220.341783,17.6449381 C220.575706,17.6449381 220.803993,17.6430846 221.032749,17.6491085 C221.547097,17.662083 222.050642,17.6773745 222.540095,17.7098109 C222.881585,17.732053 223.21462,17.7538317 223.542488,17.7839512 C224.169101,17.84141 224.773637,17.9174038 225.346701,18.003592 C225.857761,18.0800492 226.351442,18.1671641 226.813651,18.2575226 C227.528103,18.3965358 228.179141,18.5531573 228.7616,18.7028281 C229.143956,18.801064 229.494371,18.9048605 229.813314,18.9979993 C230.294312,19.138866 230.704851,19.2653679 231.025673,19.3747249 C231.575251,19.5623927 231.880103,19.6740666 231.880103,19.6740666 C232.369556,19.8450527 232.845857,20.0341106 233.316051,20.2203882 C233.946422,20.4696851 234.548609,20.7393706 235.12825,20.9965449 C235.609717,21.2106251 236.064881,21.4335095 236.494679,21.6397124 C236.850261,21.8106985 237.180007,21.9835382 237.491435,22.1406231 C238.033967,22.4177226 238.493828,22.6697998 238.871956,22.8713688 L239.885152,23.4153736 L239.885152,13.7896403 C239.885152,13.7896403 239.27498,13.5421969 238.224206,13.1515699 C237.759178,12.9782669 237.210539,12.7725274 236.587215,12.5561303 C236.240088,12.4361156 235.876991,12.3035898 235.48665,12.1747709 C235.17851,12.0732913 234.861916,11.9620808 234.52935,11.8573576 C234.157798,11.7405866 233.772624,11.6136212 233.374767,11.4954601 C233.088705,11.4111254 232.793248,11.3212303 232.494503,11.237359 L232.229578,11.1632186 C231.940228,11.0821276 231.64524,11.0005733 231.346026,10.9208724 C230.993262,10.8272702 230.633923,10.7364483 230.268947,10.6474799 C230.036433,10.5909479 229.80298,10.5367328 229.564829,10.4825176 C229.180125,10.3949394 228.789314,10.3101413 228.393806,10.2295137 C227.99313,10.1470326 227.582591,10.0733556 227.172991,9.99967865 L227.172991,9.99967865 Z" id="Fill-1"></path>
            <path d="M118.905283,39.6308858 L118.905283,53.7550844 L128.200666,53.7550844 C128.200666,53.7550844 128.386208,53.7495239 128.690589,53.7388662 C129.004835,53.7282085 129.447316,53.7119903 129.982802,53.666116 C130.996938,53.5748307 132.321562,53.3913333 133.610956,52.9613194 C134.778692,52.5725459 135.914017,51.9910076 136.782068,51.1346867 C137.116512,50.8052255 137.392241,50.4613997 137.61489,50.115257 C138.344843,48.9822999 138.528035,47.8298809 138.568432,47.1769825 C138.590509,46.8947859 138.58816,46.7288968 138.58816,46.7288968 C138.58816,46.7288968 138.593327,46.6023949 138.587221,46.3832175 C138.577826,46.1102884 138.544476,45.581575 138.396982,45.0148648 C138.223184,44.3443581 137.895786,43.5682014 137.311918,42.8573808 C137.201063,42.7220747 137.082692,42.587232 136.951639,42.4579498 C136.695639,42.2054092 136.42085,41.9639897 136.117877,41.744349 C135.608226,41.3750374 135.028116,41.0590142 134.395397,40.7884019 C133.561166,40.4316015 132.625474,40.165623 131.598186,39.9756384 C131.073033,39.8787926 130.515,39.798165 129.945224,39.74534 C129.59387,39.7124402 129.242046,39.6883446 128.874252,39.6665659 C128.557188,39.6480308 128.221804,39.6350562 127.893936,39.6350562 C124.59318,39.6350562 118.905283,39.6308858 118.905283,39.6308858" id="Fill-3"></path>
            <path d="M118.905283,18.159194 L118.905283,31.5484786 L123.406655,31.5484786 C123.406655,31.5484786 123.70681,31.5489398 124.103727,31.5364286 C124.414685,31.5266977 124.784828,31.5058457 125.115984,31.4896275 C126.041342,31.4205843 127.322751,31.2931556 128.60463,30.9400622 C128.854054,30.8714824 129.106296,30.7950252 129.352432,30.7083737 C130.357173,30.3557437 131.319639,29.8395415 132.06838,29.1138929 C132.6654,28.5355983 133.057621,27.8924308 133.317378,27.2677984 C133.636321,26.5022994 133.747646,25.7678466 133.794149,25.2488642 C133.835905,24.7850237 133.833136,24.4907792 133.833136,24.4907792 C133.833136,24.4907792 133.84347,24.2697483 133.824211,23.9222155 C133.79227,23.3388237 133.669672,22.3893639 133.204175,21.4769743 C132.977767,21.0395463 132.670567,20.6187999 132.252043,20.2105646 C131.746619,19.7179947 131.132219,19.3394156 130.471786,19.0521218 C129.204468,18.5016297 127.753958,18.2815256 126.533143,18.2004346 C126.001885,18.1652179 125.517599,18.159194 125.10565,18.159194 L118.905283,18.159194 Z" id="Fill-4"></path>
            <path d="M89.2007339,71.8679407 L166.613725,71.8679407 L166.613725,0 L89.2007339,0 L89.2007339,71.8679407 Z M109.507875,10.0765993 L109.507875,61.836289 L129.258862,61.836289 C129.258862,61.836289 138.890569,62.0985605 144.208793,56.8522045 C148.537306,52.5821842 148.226349,47.6416571 148.226349,47.6416571 C148.226349,47.6416571 148.539185,42.4828794 144.530554,38.5288823 C141.115655,35.1601305 136.75567,34.2621056 136.75567,34.2621056 C136.75567,34.2621056 138.724756,33.3506428 140.238209,31.8576417 C140.946084,31.1588689 143.466628,28.9110264 143.466628,23.4603212 C143.466628,17.9660584 139.760969,14.8081432 139.760969,14.8081432 C139.760969,14.8081432 135.702547,10.0765993 126.536807,10.0765993 L109.507875,10.0765993 Z" id="Fill-5"></path>
            <path d="M29.7043611,39.6308858 L29.7043611,53.7550844 L38.9997446,53.7550844 C38.9997446,53.7550844 39.1852859,53.7495239 39.4896675,53.7388662 C39.8039134,53.7282085 40.2459244,53.7119903 40.7818804,53.666116 C41.7955464,53.5748307 43.12064,53.3913333 44.4095648,52.9613194 C45.5777703,52.5725459 46.713095,51.9910076 47.5811464,51.1346867 C47.9155905,50.8052255 48.1913189,50.4613997 48.4139684,50.115257 C49.1439207,48.9822999 49.3271134,47.8298809 49.3675097,47.1769825 C49.3891401,46.8947859 49.3867684,46.7288968 49.3867684,46.7288968 C49.3867684,46.7288968 49.3924051,46.6023949 49.3862987,46.3832175 C49.3764345,46.1102884 49.343084,45.581575 49.1960602,45.0148648 C49.022262,44.3443581 48.6948639,43.5682014 48.110996,42.8573808 C48.0001409,42.7220747 47.8817703,42.587232 47.7507171,42.4579498 C47.4947171,42.2054092 47.2199281,41.9639897 46.9169556,41.744349 C46.4068345,41.3750374 45.8271941,41.0590142 45.1940051,40.7884019 C44.3602437,40.4316015 43.4245519,40.165623 42.3972639,39.9756384 C41.8721116,39.8787926 41.3140785,39.798165 40.7443024,39.74534 C40.3929483,39.7124402 40.0411244,39.6883446 39.6733299,39.6665659 C39.3562657,39.6480308 39.0208822,39.6350562 38.6930143,39.6350562 C35.3922583,39.6350562 29.7043611,39.6308858 29.7043611,39.6308858" id="Fill-6"></path>
            <path d="M29.7043611,18.159194 L29.7043611,31.5484786 L34.2057336,31.5484786 C34.2057336,31.5484786 34.5058877,31.5489398 34.9028051,31.5364286 C35.2137629,31.5266977 35.5839061,31.5058457 35.915062,31.4896275 C36.8404198,31.4205843 38.121829,31.2931556 39.4037079,30.9400622 C39.6531317,30.8714824 39.9049042,30.7950252 40.1515097,30.7083737 C41.156251,30.3557437 42.1187171,29.8395415 42.8674583,29.1138929 C43.4644785,28.5355983 43.8566987,27.8924308 44.1164565,27.2677984 C44.4349299,26.5022994 44.5467244,25.7678466 44.5932272,25.2488642 C44.6350327,24.7850237 44.6322143,24.4907792 44.6322143,24.4907792 C44.6322143,24.4907792 44.6420785,24.2697483 44.6232895,23.9222155 C44.5913483,23.3388237 44.4687501,22.3893639 44.0032528,21.4769743 C43.7768455,21.0395463 43.4696455,20.6187999 43.0511207,20.2105646 C42.5456969,19.7179947 41.9312969,19.3394156 41.2708639,19.0521218 C40.0035464,18.5016297 38.5530363,18.2815256 37.3322217,18.2004346 C36.8009629,18.1652179 36.3166767,18.159194 35.9042583,18.159194 L29.7043611,18.159194 Z" id="Fill-7"></path>
            <path d="M2.00255714e-14,71.8679407 L77.4125211,71.8679407 L77.4125211,0 L2.00255714e-14,0 L2.00255714e-14,71.8679407 Z M20.3071413,10.0765993 L20.3071413,61.836289 L40.0576587,61.836289 C40.0576587,61.836289 49.6898349,62.0985605 55.007589,56.8522045 C59.3361028,52.5821842 59.0256147,47.6416571 59.0256147,47.6416571 C59.0256147,47.6416571 59.3384514,42.4828794 55.3298202,38.5288823 C51.9149211,35.1601305 47.5549358,34.2621056 47.5549358,34.2621056 C47.5549358,34.2621056 49.524022,33.3506428 51.0370055,31.8576417 C51.7453505,31.1588689 54.2658936,28.9110264 54.2658936,23.4603212 C54.2658936,17.9660584 50.5597651,14.8081432 50.5597651,14.8081432 C50.5597651,14.8081432 46.5013431,10.0765993 37.3360734,10.0765993 L20.3071413,10.0765993 Z" id="Fill-8"></path>
        </g>
    </g>
</svg>