<?xml version="1.0" encoding="UTF-8"?>
<svg xmlns="http://www.w3.org/2000/svg" xmlns:xlink="http://www.w3.org/1999/xlink" width="16pt" height="16pt" viewBox="0 0 16 16" version="1.1">
<g id="surface1">
<path style=" stroke:none;fill-rule:evenodd;fill:rgb(66.666667%,79.607843%,50.980392%);fill-opacity:1;" d="M 7.3125 1.566406 C 7.3125 1.574219 7.300781 1.585938 7.289062 1.585938 C 7.277344 1.585938 7.261719 1.601562 7.25 1.625 C 7.230469 1.664062 7.214844 1.6875 7.167969 1.742188 C 7.152344 1.757812 7.128906 1.792969 7.109375 1.820312 C 7.09375 1.847656 7.074219 1.871094 7.070312 1.871094 C 7.0625 1.871094 7.054688 1.878906 7.054688 1.890625 C 7.054688 1.898438 7.046875 1.914062 7.035156 1.925781 C 6.996094 1.96875 6.960938 2.015625 6.960938 2.027344 C 6.960938 2.03125 6.941406 2.054688 6.914062 2.078125 C 6.890625 2.101562 6.871094 2.128906 6.867188 2.144531 C 6.863281 2.15625 6.847656 2.179688 6.832031 2.191406 C 6.8125 2.207031 6.800781 2.226562 6.800781 2.238281 C 6.800781 2.25 6.792969 2.253906 6.785156 2.246094 C 6.773438 2.242188 6.769531 2.25 6.769531 2.261719 C 6.769531 2.277344 6.746094 2.3125 6.71875 2.339844 C 6.695312 2.367188 6.671875 2.394531 6.671875 2.40625 C 6.671875 2.414062 6.652344 2.441406 6.625 2.464844 C 6.597656 2.492188 6.574219 2.519531 6.574219 2.527344 C 6.574219 2.535156 6.570312 2.542969 6.558594 2.542969 C 6.550781 2.542969 6.542969 2.554688 6.542969 2.566406 C 6.542969 2.582031 6.535156 2.59375 6.527344 2.59375 C 6.519531 2.59375 6.503906 2.609375 6.496094 2.632812 C 6.488281 2.652344 6.472656 2.671875 6.460938 2.671875 C 6.453125 2.671875 6.449219 2.675781 6.453125 2.683594 C 6.457031 2.6875 6.449219 2.703125 6.4375 2.71875 C 6.421875 2.734375 6.40625 2.753906 6.402344 2.765625 C 6.398438 2.78125 6.382812 2.800781 6.367188 2.816406 C 6.351562 2.832031 6.335938 2.851562 6.335938 2.863281 C 6.335938 2.871094 6.328125 2.878906 6.320312 2.878906 C 6.3125 2.878906 6.304688 2.886719 6.304688 2.894531 C 6.304688 2.90625 6.28125 2.933594 6.257812 2.960938 C 6.230469 2.988281 6.207031 3.023438 6.207031 3.03125 C 6.207031 3.042969 6.199219 3.058594 6.1875 3.0625 C 6.171875 3.066406 6.171875 3.074219 6.1875 3.082031 C 6.207031 3.097656 6.238281 3.175781 6.632812 4.230469 C 6.769531 4.601562 6.914062 4.988281 6.953125 5.09375 C 6.992188 5.195312 7.054688 5.363281 7.09375 5.46875 C 7.132812 5.570312 7.277344 5.957031 7.414062 6.328125 C 7.554688 6.699219 7.679688 7.035156 7.695312 7.078125 C 7.710938 7.125 7.753906 7.234375 7.789062 7.328125 C 7.824219 7.421875 7.945312 7.742188 8.054688 8.039062 C 8.167969 8.339844 8.289062 8.667969 8.328125 8.769531 C 8.414062 8.996094 8.40625 9.015625 8.25 8.945312 C 8.214844 8.929688 8.09375 8.882812 7.984375 8.839844 C 7.808594 8.773438 7.105469 8.5 7.011719 8.460938 C 6.9375 8.433594 6.902344 8.417969 6.769531 8.367188 C 6.691406 8.339844 6.601562 8.304688 6.566406 8.289062 C 6.53125 8.273438 6.46875 8.246094 6.425781 8.234375 C 6.378906 8.21875 6.324219 8.195312 6.296875 8.183594 C 6.269531 8.171875 6.1875 8.140625 6.113281 8.113281 C 6.039062 8.082031 5.875 8.019531 5.753906 7.972656 C 5.628906 7.925781 5.417969 7.84375 5.28125 7.789062 C 5.144531 7.734375 5.019531 7.6875 5 7.679688 C 4.980469 7.671875 4.851562 7.621094 4.710938 7.566406 C 4.570312 7.511719 4.441406 7.464844 4.425781 7.457031 C 4.40625 7.449219 4.210938 7.371094 3.992188 7.289062 C 3.773438 7.203125 3.5625 7.121094 3.523438 7.101562 C 3.488281 7.085938 3.449219 7.070312 3.441406 7.070312 C 3.429688 7.070312 3.410156 7.066406 3.394531 7.058594 C 3.300781 7.007812 3.191406 6.972656 3.21875 7 C 3.226562 7.007812 3.207031 7.039062 3.175781 7.070312 C 3.144531 7.101562 3.121094 7.136719 3.121094 7.148438 C 3.121094 7.160156 3.105469 7.175781 3.089844 7.1875 C 3.070312 7.199219 3.054688 7.222656 3.054688 7.238281 C 3.054688 7.253906 3.046875 7.261719 3.039062 7.257812 C 3.03125 7.25 3.023438 7.257812 3.023438 7.269531 C 3.023438 7.28125 3.007812 7.304688 2.992188 7.320312 C 2.972656 7.335938 2.960938 7.359375 2.960938 7.371094 C 2.960938 7.382812 2.953125 7.390625 2.945312 7.382812 C 2.933594 7.378906 2.929688 7.382812 2.929688 7.390625 C 2.929688 7.402344 2.90625 7.433594 2.878906 7.460938 C 2.855469 7.488281 2.832031 7.519531 2.832031 7.53125 C 2.832031 7.542969 2.828125 7.550781 2.820312 7.550781 C 2.8125 7.550781 2.789062 7.578125 2.769531 7.613281 C 2.746094 7.644531 2.71875 7.683594 2.707031 7.695312 C 2.695312 7.707031 2.671875 7.734375 2.660156 7.757812 C 2.628906 7.804688 2.582031 7.859375 2.539062 7.90625 C 2.503906 7.945312 2.503906 7.972656 2.546875 8.035156 C 2.636719 8.167969 2.648438 8.175781 2.738281 8.183594 C 2.785156 8.1875 2.910156 8.203125 3.015625 8.222656 C 3.121094 8.242188 3.25 8.265625 3.304688 8.273438 C 3.355469 8.28125 3.441406 8.296875 3.488281 8.304688 C 3.535156 8.3125 3.621094 8.328125 3.671875 8.335938 C 3.726562 8.34375 3.8125 8.359375 3.863281 8.367188 C 3.917969 8.375 4.003906 8.390625 4.054688 8.398438 C 4.144531 8.414062 4.226562 8.425781 4.449219 8.464844 C 4.496094 8.472656 4.578125 8.488281 4.632812 8.496094 C 4.683594 8.503906 4.769531 8.519531 4.824219 8.527344 C 4.875 8.539062 4.964844 8.550781 5.015625 8.558594 C 5.070312 8.566406 5.175781 8.585938 5.257812 8.601562 C 5.335938 8.613281 5.679688 8.671875 6.023438 8.730469 C 6.367188 8.785156 6.691406 8.839844 6.742188 8.847656 C 6.96875 8.890625 7.007812 8.898438 7.144531 8.917969 C 7.527344 8.980469 7.660156 9.003906 7.777344 9.023438 C 7.882812 9.042969 8.003906 9.0625 8.152344 9.085938 C 8.214844 9.09375 8.285156 9.109375 8.3125 9.121094 L 8.359375 9.136719 L 8.304688 9.1875 C 8.273438 9.214844 8.226562 9.253906 8.199219 9.277344 C 8.171875 9.300781 8.074219 9.386719 7.976562 9.464844 C 7.878906 9.542969 7.796875 9.609375 7.792969 9.617188 C 7.789062 9.621094 7.746094 9.65625 7.695312 9.695312 C 7.648438 9.734375 7.585938 9.785156 7.558594 9.808594 C 7.535156 9.832031 7.375 9.964844 7.207031 10.101562 C 7.039062 10.242188 6.890625 10.367188 6.871094 10.382812 C 6.855469 10.394531 6.710938 10.515625 6.550781 10.648438 C 6.394531 10.777344 6.261719 10.890625 6.257812 10.894531 C 6.25 10.898438 6.207031 10.9375 6.160156 10.976562 C 6.113281 11.015625 6.070312 11.050781 6.0625 11.054688 C 6.058594 11.0625 6 11.113281 5.929688 11.167969 C 5.808594 11.265625 5.519531 11.503906 5.503906 11.519531 C 5.464844 11.558594 5.328125 11.664062 5.3125 11.664062 C 5.285156 11.664062 5.292969 11.703125 5.328125 11.738281 C 5.34375 11.757812 5.359375 11.78125 5.363281 11.792969 C 5.367188 11.804688 5.386719 11.832031 5.410156 11.855469 C 5.4375 11.878906 5.457031 11.90625 5.457031 11.917969 C 5.457031 11.925781 5.480469 11.960938 5.511719 11.992188 C 5.542969 12.023438 5.5625 12.058594 5.558594 12.066406 C 5.550781 12.078125 5.554688 12.082031 5.566406 12.074219 C 5.574219 12.066406 5.585938 12.070312 5.585938 12.082031 C 5.585938 12.089844 5.597656 12.113281 5.613281 12.125 C 5.65625 12.167969 5.769531 12.320312 5.765625 12.335938 C 5.761719 12.34375 5.769531 12.351562 5.78125 12.351562 C 5.792969 12.351562 5.8125 12.375 5.824219 12.402344 C 5.855469 12.476562 5.847656 12.484375 6.445312 11.734375 C 6.753906 11.347656 7.03125 11.003906 7.058594 10.96875 C 7.089844 10.933594 7.167969 10.832031 7.238281 10.742188 C 7.578125 10.3125 8.371094 9.324219 8.421875 9.273438 C 8.46875 9.226562 8.476562 9.253906 8.527344 9.570312 C 8.554688 9.730469 8.589844 9.949219 8.609375 10.054688 C 8.625 10.160156 8.664062 10.40625 8.695312 10.601562 C 8.726562 10.792969 8.765625 11.039062 8.785156 11.148438 C 8.820312 11.378906 8.867188 11.667969 8.914062 11.949219 C 8.929688 12.058594 8.953125 12.191406 8.960938 12.238281 C 8.96875 12.289062 8.988281 12.421875 9.007812 12.535156 C 9.027344 12.652344 9.046875 12.78125 9.054688 12.824219 C 9.0625 12.867188 9.09375 13.050781 9.121094 13.230469 C 9.179688 13.601562 9.195312 13.667969 9.222656 13.625 C 9.234375 13.613281 9.246094 13.605469 9.253906 13.609375 C 9.257812 13.617188 9.265625 13.613281 9.265625 13.601562 C 9.265625 13.582031 9.296875 13.539062 9.355469 13.476562 C 9.375 13.457031 9.386719 13.4375 9.382812 13.4375 C 9.378906 13.433594 9.402344 13.402344 9.429688 13.371094 C 9.460938 13.339844 9.488281 13.300781 9.492188 13.289062 C 9.496094 13.28125 9.539062 13.222656 9.582031 13.164062 C 9.628906 13.105469 9.664062 13.050781 9.664062 13.042969 C 9.664062 13.035156 9.6875 13.007812 9.710938 12.984375 C 9.738281 12.957031 9.761719 12.929688 9.761719 12.921875 C 9.761719 12.914062 9.78125 12.886719 9.804688 12.863281 C 9.828125 12.839844 9.851562 12.8125 9.851562 12.800781 C 9.855469 12.789062 9.871094 12.765625 9.890625 12.75 C 9.914062 12.726562 9.917969 12.714844 9.90625 12.699219 C 9.882812 12.671875 9.808594 12.476562 9.433594 11.464844 C 9.109375 10.597656 9.117188 10.621094 9.105469 10.585938 C 9.097656 10.566406 9.082031 10.527344 9.070312 10.496094 C 9.0625 10.464844 9.046875 10.421875 9.035156 10.398438 C 9.027344 10.378906 9.015625 10.34375 9.007812 10.328125 C 8.945312 10.175781 8.609375 9.257812 8.609375 9.238281 C 8.609375 9.210938 8.671875 9.207031 8.714844 9.230469 C 8.730469 9.238281 8.90625 9.308594 9.105469 9.382812 C 9.300781 9.460938 9.496094 9.535156 9.53125 9.554688 C 9.570312 9.570312 9.605469 9.582031 9.613281 9.582031 C 9.621094 9.582031 9.894531 9.6875 10.074219 9.761719 C 10.097656 9.769531 10.128906 9.78125 10.152344 9.792969 C 10.175781 9.800781 10.207031 9.816406 10.226562 9.824219 C 10.289062 9.847656 10.820312 10.054688 11.121094 10.167969 C 11.273438 10.226562 11.414062 10.28125 11.433594 10.289062 C 11.617188 10.371094 11.652344 10.382812 11.667969 10.363281 C 11.679688 10.351562 11.71875 10.300781 11.761719 10.25 C 11.800781 10.195312 11.84375 10.136719 11.859375 10.121094 C 11.875 10.105469 11.886719 10.082031 11.886719 10.074219 C 11.886719 10.070312 11.894531 10.066406 11.90625 10.074219 C 11.917969 10.082031 11.921875 10.078125 11.914062 10.066406 C 11.910156 10.058594 11.929688 10.023438 11.960938 9.988281 C 11.992188 9.957031 12.015625 9.917969 12.015625 9.90625 C 12.015625 9.898438 12.019531 9.886719 12.027344 9.886719 C 12.035156 9.886719 12.058594 9.859375 12.078125 9.828125 C 12.101562 9.796875 12.125 9.765625 12.128906 9.761719 C 12.132812 9.753906 12.148438 9.734375 12.164062 9.710938 L 12.191406 9.667969 L 12.105469 9.652344 C 12.03125 9.636719 11.945312 9.621094 11.707031 9.582031 C 11.546875 9.558594 11.417969 9.535156 11.335938 9.519531 C 11.238281 9.5 10.988281 9.460938 10.855469 9.441406 C 10.804688 9.433594 10.585938 9.394531 10.375 9.359375 C 9.933594 9.285156 9.292969 9.175781 9.128906 9.152344 C 9.066406 9.140625 8.988281 9.128906 8.953125 9.121094 C 8.917969 9.113281 8.835938 9.097656 8.773438 9.085938 C 8.632812 9.0625 8.628906 9.050781 8.738281 8.957031 C 8.785156 8.917969 8.839844 8.871094 8.863281 8.855469 C 8.886719 8.835938 9.039062 8.707031 9.207031 8.566406 C 9.375 8.429688 9.53125 8.300781 9.550781 8.28125 C 9.597656 8.242188 9.902344 7.992188 10.121094 7.808594 C 10.199219 7.746094 10.28125 7.675781 10.304688 7.65625 C 10.324219 7.640625 10.5 7.496094 10.6875 7.339844 C 10.878906 7.179688 11.046875 7.042969 11.0625 7.027344 C 11.082031 7.011719 11.226562 6.890625 11.382812 6.761719 C 11.542969 6.628906 11.675781 6.515625 11.679688 6.511719 C 11.683594 6.507812 11.726562 6.472656 11.777344 6.433594 C 11.824219 6.394531 11.867188 6.355469 11.871094 6.351562 C 11.875 6.347656 11.917969 6.3125 11.96875 6.273438 C 12.015625 6.230469 12.058594 6.195312 12.0625 6.1875 C 12.0625 6.179688 12.078125 6.175781 12.089844 6.175781 C 12.117188 6.175781 12.117188 6.148438 12.09375 6.121094 C 12.082031 6.109375 12.058594 6.082031 12.039062 6.054688 C 12.023438 6.03125 11.996094 6 11.984375 5.984375 C 11.96875 5.972656 11.941406 5.933594 11.921875 5.902344 C 11.898438 5.875 11.867188 5.835938 11.851562 5.820312 C 11.835938 5.808594 11.824219 5.789062 11.824219 5.78125 C 11.824219 5.773438 11.800781 5.742188 11.777344 5.714844 C 11.75 5.6875 11.726562 5.65625 11.726562 5.648438 C 11.726562 5.636719 11.714844 5.613281 11.695312 5.59375 C 11.644531 5.539062 11.519531 5.371094 11.519531 5.355469 C 11.519531 5.300781 11.464844 5.300781 11.421875 5.359375 C 11.398438 5.390625 11.210938 5.625 11.007812 5.878906 C 10.804688 6.136719 10.589844 6.40625 10.53125 6.476562 C 10.472656 6.550781 10.382812 6.660156 10.335938 6.71875 C 10.289062 6.777344 10.230469 6.851562 10.207031 6.882812 C 10.128906 6.980469 9.230469 8.101562 9.203125 8.136719 C 9.1875 8.152344 9.15625 8.195312 9.132812 8.226562 C 9.109375 8.257812 9.078125 8.292969 9.066406 8.304688 C 9.058594 8.320312 9.023438 8.359375 8.992188 8.398438 C 8.800781 8.648438 8.589844 8.90625 8.566406 8.917969 C 8.527344 8.9375 8.511719 8.910156 8.492188 8.789062 C 8.484375 8.730469 8.472656 8.640625 8.464844 8.59375 C 8.457031 8.542969 8.433594 8.414062 8.417969 8.304688 C 8.398438 8.195312 8.375 8.039062 8.359375 7.960938 C 8.335938 7.808594 8.269531 7.398438 8.199219 6.96875 C 8.175781 6.828125 8.136719 6.582031 8.113281 6.425781 C 8.085938 6.265625 8.050781 6.042969 8.03125 5.929688 C 8.015625 5.8125 7.984375 5.636719 7.96875 5.535156 C 7.953125 5.433594 7.921875 5.261719 7.90625 5.152344 C 7.820312 4.632812 7.804688 4.523438 7.773438 4.34375 C 7.746094 4.167969 7.667969 3.6875 7.585938 3.167969 C 7.402344 2.019531 7.324219 1.5625 7.320312 1.554688 C 7.316406 1.550781 7.3125 1.554688 7.3125 1.566406 "/>
<path style=" stroke:none;fill-rule:evenodd;fill:rgb(32.941176%,58.039216%,1.568627%);fill-opacity:1;" d="M 7.925781 0.714844 C 7.90625 0.742188 7.886719 0.765625 7.886719 0.773438 C 7.886719 0.777344 7.867188 0.808594 7.839844 0.835938 C 7.8125 0.863281 7.792969 0.890625 7.792969 0.898438 C 7.792969 0.914062 7.777344 0.929688 7.730469 0.984375 C 7.722656 0.996094 7.710938 1.015625 7.710938 1.027344 C 7.710938 1.039062 7.691406 1.066406 7.664062 1.085938 C 7.636719 1.105469 7.617188 1.128906 7.617188 1.136719 C 7.617188 1.144531 7.59375 1.175781 7.566406 1.203125 C 7.542969 1.230469 7.519531 1.257812 7.519531 1.269531 C 7.519531 1.277344 7.5 1.304688 7.472656 1.328125 C 7.445312 1.351562 7.425781 1.382812 7.425781 1.390625 C 7.425781 1.402344 7.402344 1.429688 7.375 1.457031 C 7.332031 1.496094 7.308594 1.550781 7.34375 1.527344 C 7.363281 1.515625 7.378906 1.601562 7.519531 2.511719 C 7.53125 2.570312 7.542969 2.65625 7.554688 2.703125 C 7.5625 2.753906 7.578125 2.859375 7.59375 2.945312 C 7.605469 3.027344 7.621094 3.140625 7.632812 3.191406 C 7.640625 3.246094 7.65625 3.335938 7.664062 3.390625 C 7.671875 3.449219 7.6875 3.542969 7.695312 3.601562 C 7.707031 3.65625 7.71875 3.746094 7.726562 3.800781 C 7.734375 3.851562 7.757812 3.984375 7.777344 4.097656 C 7.792969 4.207031 7.824219 4.382812 7.839844 4.488281 C 7.871094 4.675781 7.894531 4.835938 8.03125 5.671875 C 8.066406 5.890625 8.105469 6.117188 8.113281 6.175781 C 8.121094 6.234375 8.136719 6.320312 8.144531 6.367188 C 8.164062 6.472656 8.277344 7.1875 8.351562 7.660156 C 8.371094 7.773438 8.390625 7.902344 8.398438 7.953125 C 8.40625 8 8.421875 8.089844 8.433594 8.152344 C 8.441406 8.214844 8.457031 8.304688 8.464844 8.351562 C 8.472656 8.402344 8.496094 8.535156 8.511719 8.648438 C 8.554688 8.921875 8.527344 8.925781 8.773438 8.617188 C 8.875 8.492188 8.96875 8.375 8.980469 8.359375 C 8.996094 8.339844 9.101562 8.210938 9.214844 8.0625 C 9.332031 7.917969 9.4375 7.785156 9.453125 7.769531 C 9.46875 7.75 9.503906 7.703125 9.535156 7.664062 C 9.566406 7.625 9.59375 7.589844 9.601562 7.585938 C 9.605469 7.578125 9.632812 7.542969 9.664062 7.503906 C 9.695312 7.464844 9.726562 7.421875 9.738281 7.40625 C 9.75 7.394531 9.824219 7.300781 9.90625 7.199219 C 9.988281 7.097656 10.253906 6.769531 10.496094 6.464844 C 10.738281 6.160156 10.9375 5.910156 10.945312 5.902344 C 10.949219 5.898438 10.976562 5.863281 11.007812 5.824219 C 11.039062 5.785156 11.074219 5.742188 11.082031 5.726562 C 11.09375 5.714844 11.175781 5.613281 11.265625 5.5 C 11.355469 5.386719 11.433594 5.296875 11.441406 5.296875 C 11.472656 5.296875 11.453125 5.25 11.40625 5.203125 C 11.382812 5.175781 11.359375 5.144531 11.359375 5.136719 C 11.359375 5.125 11.351562 5.121094 11.34375 5.128906 C 11.335938 5.132812 11.328125 5.128906 11.328125 5.117188 C 11.328125 5.105469 11.3125 5.085938 11.296875 5.070312 C 11.277344 5.058594 11.265625 5.039062 11.265625 5.027344 C 11.265625 5.015625 11.242188 4.984375 11.214844 4.960938 C 11.191406 4.933594 11.167969 4.90625 11.167969 4.894531 C 11.167969 4.886719 11.144531 4.855469 11.121094 4.832031 C 11.09375 4.808594 11.070312 4.777344 11.070312 4.765625 C 11.070312 4.757812 11.058594 4.734375 11.042969 4.722656 C 11.027344 4.707031 11 4.675781 10.988281 4.648438 C 10.972656 4.621094 10.949219 4.585938 10.929688 4.570312 C 10.910156 4.550781 10.894531 4.53125 10.894531 4.527344 C 10.894531 4.511719 10.863281 4.46875 10.820312 4.421875 C 10.808594 4.410156 10.800781 4.398438 10.800781 4.390625 C 10.800781 4.386719 10.777344 4.359375 10.753906 4.335938 C 10.726562 4.3125 10.703125 4.28125 10.703125 4.273438 C 10.703125 4.261719 10.683594 4.234375 10.65625 4.207031 C 10.628906 4.183594 10.609375 4.15625 10.609375 4.144531 C 10.609375 4.132812 10.585938 4.105469 10.558594 4.078125 C 10.535156 4.054688 10.511719 4.027344 10.511719 4.015625 C 10.511719 4.003906 10.492188 3.976562 10.464844 3.953125 C 10.4375 3.925781 10.414062 3.898438 10.414062 3.890625 C 10.414062 3.878906 10.398438 3.851562 10.375 3.832031 C 10.355469 3.808594 10.335938 3.785156 10.335938 3.777344 C 10.335938 3.769531 10.3125 3.742188 10.289062 3.714844 C 10.261719 3.6875 10.238281 3.65625 10.238281 3.648438 C 10.238281 3.636719 10.21875 3.609375 10.191406 3.585938 C 10.164062 3.558594 10.144531 3.53125 10.144531 3.519531 C 10.144531 3.507812 10.121094 3.480469 10.097656 3.457031 C 10.070312 3.429688 10.046875 3.402344 10.046875 3.390625 C 10.046875 3.382812 10.027344 3.351562 10 3.328125 C 9.972656 3.304688 9.953125 3.277344 9.953125 3.269531 C 9.953125 3.257812 9.929688 3.230469 9.902344 3.203125 C 9.878906 3.175781 9.855469 3.144531 9.855469 3.136719 C 9.855469 3.128906 9.835938 3.105469 9.808594 3.085938 C 9.78125 3.066406 9.761719 3.039062 9.761719 3.027344 C 9.761719 3.015625 9.738281 2.984375 9.710938 2.960938 C 9.6875 2.933594 9.664062 2.902344 9.664062 2.890625 C 9.664062 2.875 9.644531 2.847656 9.625 2.824219 C 9.601562 2.804688 9.585938 2.777344 9.585938 2.769531 C 9.585938 2.761719 9.5625 2.734375 9.535156 2.707031 C 9.507812 2.679688 9.488281 2.648438 9.488281 2.640625 C 9.488281 2.636719 9.464844 2.605469 9.441406 2.578125 C 9.414062 2.550781 9.390625 2.523438 9.390625 2.515625 C 9.390625 2.507812 9.371094 2.476562 9.34375 2.449219 C 9.316406 2.421875 9.296875 2.394531 9.296875 2.390625 C 9.296875 2.386719 9.273438 2.359375 9.246094 2.335938 C 9.222656 2.3125 9.199219 2.28125 9.199219 2.273438 C 9.199219 2.261719 9.179688 2.234375 9.152344 2.207031 C 9.125 2.183594 9.105469 2.15625 9.105469 2.144531 C 9.105469 2.132812 9.082031 2.105469 9.054688 2.078125 C 9.03125 2.054688 9.007812 2.027344 9.007812 2.015625 C 9.007812 1.996094 8.847656 1.777344 8.78125 1.707031 C 8.753906 1.679688 8.734375 1.652344 8.734375 1.644531 C 8.734375 1.636719 8.714844 1.609375 8.6875 1.582031 C 8.660156 1.554688 8.640625 1.523438 8.640625 1.515625 C 8.640625 1.511719 8.617188 1.480469 8.59375 1.453125 C 8.566406 1.425781 8.542969 1.398438 8.542969 1.390625 C 8.542969 1.382812 8.523438 1.351562 8.496094 1.324219 C 8.46875 1.296875 8.449219 1.265625 8.449219 1.257812 C 8.449219 1.246094 8.433594 1.230469 8.414062 1.214844 C 8.398438 1.203125 8.382812 1.1875 8.382812 1.179688 C 8.382812 1.171875 8.375 1.15625 8.367188 1.148438 C 8.308594 1.078125 8.289062 1.050781 8.289062 1.042969 C 8.289062 1.035156 8.261719 1.003906 8.230469 0.96875 C 8.199219 0.933594 8.175781 0.898438 8.175781 0.890625 C 8.175781 0.886719 8.15625 0.855469 8.128906 0.828125 C 8.101562 0.800781 8.078125 0.773438 8.078125 0.765625 C 8.078125 0.691406 7.972656 0.660156 7.925781 0.714844 M 6.132812 3.113281 C 6.121094 3.125 6.113281 3.136719 6.113281 3.144531 C 6.113281 3.148438 6.089844 3.175781 6.0625 3.203125 C 6.039062 3.230469 6.015625 3.257812 6.015625 3.265625 C 6.015625 3.273438 5.996094 3.304688 5.96875 3.332031 C 5.941406 3.359375 5.921875 3.386719 5.921875 3.394531 C 5.921875 3.402344 5.902344 3.425781 5.878906 3.449219 C 5.859375 3.472656 5.839844 3.496094 5.839844 3.503906 C 5.839844 3.511719 5.820312 3.539062 5.792969 3.566406 C 5.765625 3.597656 5.742188 3.628906 5.742188 3.644531 C 5.742188 3.65625 5.722656 3.6875 5.695312 3.710938 C 5.667969 3.738281 5.648438 3.761719 5.648438 3.765625 C 5.648438 3.773438 5.625 3.800781 5.601562 3.828125 C 5.574219 3.855469 5.550781 3.882812 5.550781 3.890625 C 5.550781 3.898438 5.53125 3.925781 5.503906 3.953125 C 5.476562 3.980469 5.457031 4.011719 5.457031 4.019531 C 5.457031 4.027344 5.433594 4.054688 5.40625 4.082031 C 5.382812 4.109375 5.359375 4.140625 5.359375 4.148438 C 5.359375 4.152344 5.339844 4.183594 5.3125 4.210938 C 5.285156 4.238281 5.265625 4.265625 5.265625 4.273438 C 5.265625 4.28125 5.246094 4.308594 5.222656 4.328125 C 5.203125 4.351562 5.1875 4.378906 5.195312 4.390625 C 5.199219 4.398438 5.199219 4.402344 5.191406 4.398438 C 5.179688 4.386719 5.089844 4.488281 5.089844 4.515625 C 5.089844 4.523438 5.066406 4.550781 5.039062 4.578125 C 5.011719 4.605469 4.992188 4.636719 4.992188 4.640625 C 4.992188 4.648438 4.96875 4.679688 4.945312 4.707031 C 4.917969 4.734375 4.894531 4.761719 4.894531 4.773438 C 4.894531 4.78125 4.875 4.808594 4.847656 4.832031 C 4.820312 4.855469 4.800781 4.886719 4.800781 4.894531 C 4.800781 4.90625 4.777344 4.933594 4.753906 4.960938 C 4.726562 4.984375 4.703125 5.011719 4.703125 5.023438 C 4.703125 5.03125 4.6875 5.058594 4.667969 5.078125 C 4.621094 5.125 4.59375 5.160156 4.542969 5.230469 C 4.523438 5.261719 4.492188 5.300781 4.476562 5.320312 C 4.457031 5.335938 4.433594 5.375 4.421875 5.398438 C 4.40625 5.425781 4.382812 5.460938 4.367188 5.472656 C 4.347656 5.488281 4.335938 5.507812 4.335938 5.519531 C 4.335938 5.53125 4.3125 5.558594 4.289062 5.585938 C 4.261719 5.609375 4.238281 5.636719 4.238281 5.648438 C 4.238281 5.660156 4.21875 5.6875 4.191406 5.710938 C 4.164062 5.738281 4.144531 5.761719 4.144531 5.765625 C 4.144531 5.777344 4.105469 5.824219 4.066406 5.863281 C 4.058594 5.875 4.046875 5.890625 4.046875 5.898438 C 4.046875 5.90625 4.035156 5.921875 4.015625 5.9375 C 4 5.949219 3.984375 5.96875 3.984375 5.976562 C 3.984375 5.984375 3.957031 6.019531 3.929688 6.054688 C 3.898438 6.089844 3.871094 6.121094 3.871094 6.128906 C 3.871094 6.132812 3.855469 6.160156 3.832031 6.183594 C 3.808594 6.210938 3.777344 6.253906 3.765625 6.28125 C 3.75 6.304688 3.726562 6.339844 3.710938 6.355469 C 3.691406 6.367188 3.679688 6.386719 3.679688 6.390625 C 3.679688 6.398438 3.671875 6.410156 3.660156 6.421875 C 3.617188 6.46875 3.585938 6.511719 3.585938 6.523438 C 3.585938 6.53125 3.570312 6.546875 3.550781 6.558594 C 3.535156 6.574219 3.519531 6.59375 3.519531 6.605469 C 3.519531 6.613281 3.511719 6.625 3.503906 6.625 C 3.496094 6.625 3.488281 6.632812 3.488281 6.640625 C 3.488281 6.648438 3.464844 6.679688 3.441406 6.707031 C 3.414062 6.734375 3.390625 6.761719 3.390625 6.769531 C 3.390625 6.777344 3.375 6.804688 3.351562 6.824219 C 3.332031 6.84375 3.308594 6.878906 3.304688 6.894531 C 3.296875 6.914062 3.289062 6.929688 3.277344 6.929688 C 3.253906 6.929688 3.261719 6.976562 3.292969 6.984375 C 3.339844 7 3.652344 7.121094 3.707031 7.144531 C 3.734375 7.15625 3.761719 7.167969 3.769531 7.167969 C 3.773438 7.167969 3.800781 7.179688 3.828125 7.191406 C 3.855469 7.203125 3.957031 7.242188 4.046875 7.277344 C 4.140625 7.3125 4.300781 7.375 4.40625 7.414062 C 4.511719 7.457031 4.710938 7.535156 4.847656 7.585938 C 4.984375 7.640625 5.113281 7.6875 5.132812 7.695312 C 5.152344 7.707031 5.183594 7.71875 5.203125 7.726562 C 5.222656 7.734375 5.371094 7.792969 5.527344 7.851562 C 6.230469 8.125 6.617188 8.277344 6.652344 8.289062 C 6.726562 8.320312 6.765625 8.335938 6.96875 8.414062 C 7.082031 8.457031 7.375 8.570312 7.617188 8.664062 C 7.859375 8.757812 8.085938 8.84375 8.121094 8.859375 C 8.15625 8.871094 8.21875 8.898438 8.261719 8.914062 L 8.339844 8.945312 L 8.332031 8.902344 C 8.324219 8.863281 8.203125 8.535156 7.90625 7.753906 C 7.890625 7.707031 7.859375 7.632812 7.84375 7.585938 C 7.824219 7.535156 7.789062 7.4375 7.761719 7.363281 C 7.734375 7.292969 7.691406 7.175781 7.664062 7.105469 C 7.636719 7.035156 7.59375 6.921875 7.570312 6.851562 C 7.542969 6.785156 7.472656 6.597656 7.414062 6.441406 C 7.359375 6.28125 7.28125 6.078125 7.246094 5.984375 C 7.210938 5.890625 7.167969 5.777344 7.152344 5.730469 C 7.082031 5.546875 7.050781 5.460938 7.039062 5.433594 C 7.019531 5.378906 6.949219 5.199219 6.886719 5.03125 C 6.777344 4.738281 6.335938 3.546875 6.253906 3.335938 C 6.210938 3.21875 6.175781 3.117188 6.175781 3.105469 C 6.175781 3.082031 6.15625 3.085938 6.132812 3.113281 M 12.09375 6.207031 C 12.066406 6.234375 12.03125 6.265625 11.671875 6.5625 C 11.539062 6.671875 11.429688 6.761719 11.425781 6.769531 C 11.417969 6.773438 11.375 6.808594 11.328125 6.847656 C 11.28125 6.886719 11.238281 6.921875 11.230469 6.929688 C 11.226562 6.933594 11.183594 6.96875 11.136719 7.007812 C 11.085938 7.046875 11.03125 7.09375 11.007812 7.113281 C 10.984375 7.132812 10.832031 7.261719 10.664062 7.398438 C 10.496094 7.539062 10.34375 7.667969 10.320312 7.6875 C 10.28125 7.71875 9.820312 8.101562 9.75 8.15625 C 9.695312 8.203125 9.433594 8.421875 9.414062 8.441406 C 9.40625 8.449219 9.242188 8.585938 9.050781 8.742188 C 8.667969 9.0625 8.675781 9.046875 8.773438 9.0625 C 8.878906 9.078125 9.023438 9.101562 9.121094 9.117188 C 9.167969 9.125 9.257812 9.140625 9.320312 9.152344 C 9.382812 9.160156 9.46875 9.175781 9.511719 9.183594 C 9.640625 9.207031 9.808594 9.234375 9.902344 9.25 C 9.953125 9.253906 10.054688 9.273438 10.128906 9.285156 C 10.203125 9.300781 10.417969 9.335938 10.609375 9.367188 C 10.796875 9.398438 11.082031 9.445312 11.238281 9.472656 C 11.398438 9.5 11.570312 9.527344 11.625 9.539062 C 11.785156 9.566406 11.875 9.582031 12 9.601562 C 12.066406 9.609375 12.144531 9.625 12.171875 9.632812 C 12.226562 9.644531 12.246094 9.632812 12.320312 9.515625 C 12.34375 9.484375 12.367188 9.457031 12.371094 9.457031 C 12.378906 9.457031 12.382812 9.445312 12.382812 9.429688 C 12.382812 9.417969 12.40625 9.382812 12.433594 9.359375 C 12.457031 9.335938 12.480469 9.304688 12.480469 9.296875 C 12.480469 9.285156 12.5 9.257812 12.527344 9.230469 C 12.554688 9.207031 12.574219 9.179688 12.574219 9.167969 C 12.574219 9.15625 12.597656 9.128906 12.625 9.105469 C 12.652344 9.078125 12.671875 9.050781 12.671875 9.042969 C 12.671875 9.03125 12.695312 9.003906 12.71875 8.976562 C 12.746094 8.953125 12.769531 8.929688 12.769531 8.921875 C 12.769531 8.917969 12.789062 8.890625 12.816406 8.863281 C 12.84375 8.832031 12.863281 8.804688 12.863281 8.796875 C 12.863281 8.789062 12.878906 8.765625 12.898438 8.746094 C 12.917969 8.722656 12.929688 8.703125 12.929688 8.695312 C 12.929688 8.691406 12.945312 8.667969 12.964844 8.648438 C 13.027344 8.582031 13.039062 8.5625 13.039062 8.539062 C 13.039062 8.527344 13.054688 8.507812 13.070312 8.496094 C 13.089844 8.484375 13.105469 8.464844 13.105469 8.453125 C 13.105469 8.4375 13.113281 8.433594 13.121094 8.441406 C 13.132812 8.449219 13.136719 8.445312 13.128906 8.433594 C 13.125 8.425781 13.144531 8.390625 13.175781 8.363281 C 13.207031 8.332031 13.230469 8.300781 13.230469 8.296875 C 13.230469 8.292969 13.253906 8.265625 13.28125 8.238281 C 13.304688 8.210938 13.328125 8.179688 13.328125 8.171875 C 13.328125 8.164062 13.347656 8.136719 13.375 8.109375 C 13.402344 8.082031 13.425781 8.050781 13.425781 8.039062 C 13.425781 8.027344 13.429688 8.015625 13.441406 8.015625 C 13.449219 8.015625 13.457031 7.996094 13.457031 7.96875 C 13.457031 7.941406 13.449219 7.921875 13.441406 7.921875 C 13.429688 7.921875 13.425781 7.914062 13.425781 7.902344 C 13.425781 7.890625 13.394531 7.847656 13.347656 7.800781 C 13.335938 7.789062 13.328125 7.773438 13.328125 7.765625 C 13.328125 7.761719 13.304688 7.738281 13.28125 7.710938 C 13.253906 7.6875 13.230469 7.660156 13.230469 7.648438 C 13.230469 7.636719 13.210938 7.609375 13.183594 7.585938 C 13.15625 7.558594 13.136719 7.53125 13.136719 7.519531 C 13.136719 7.507812 13.113281 7.480469 13.089844 7.457031 C 13.0625 7.429688 13.039062 7.402344 13.039062 7.394531 C 13.039062 7.382812 13.03125 7.363281 13.019531 7.351562 C 13.007812 7.335938 12.992188 7.316406 12.984375 7.308594 C 12.972656 7.296875 12.949219 7.261719 12.925781 7.230469 C 12.878906 7.160156 12.847656 7.125 12.804688 7.078125 C 12.785156 7.058594 12.769531 7.035156 12.769531 7.027344 C 12.769531 7.019531 12.746094 6.988281 12.71875 6.960938 C 12.695312 6.933594 12.671875 6.90625 12.671875 6.894531 C 12.671875 6.886719 12.652344 6.855469 12.625 6.832031 C 12.597656 6.808594 12.574219 6.78125 12.574219 6.773438 C 12.574219 6.761719 12.554688 6.734375 12.527344 6.707031 C 12.5 6.679688 12.480469 6.648438 12.480469 6.640625 C 12.480469 6.636719 12.457031 6.605469 12.433594 6.578125 C 12.40625 6.550781 12.382812 6.519531 12.382812 6.511719 C 12.382812 6.5 12.375 6.5 12.367188 6.503906 C 12.359375 6.507812 12.351562 6.5 12.351562 6.488281 C 12.351562 6.460938 12.3125 6.402344 12.238281 6.324219 C 12.222656 6.304688 12.207031 6.285156 12.207031 6.277344 C 12.207031 6.261719 12.136719 6.175781 12.125 6.175781 C 12.121094 6.179688 12.109375 6.191406 12.09375 6.207031 M 2.671875 8.21875 C 2.671875 8.226562 2.6875 8.242188 2.703125 8.257812 C 2.722656 8.269531 2.734375 8.285156 2.734375 8.292969 C 2.734375 8.300781 2.757812 8.328125 2.785156 8.351562 C 2.808594 8.375 2.832031 8.40625 2.832031 8.414062 C 2.832031 8.425781 2.855469 8.457031 2.878906 8.480469 C 2.90625 8.503906 2.929688 8.535156 2.929688 8.542969 C 2.929688 8.554688 2.949219 8.582031 2.976562 8.609375 C 3.003906 8.632812 3.023438 8.660156 3.023438 8.671875 C 3.023438 8.683594 3.039062 8.703125 3.054688 8.71875 C 3.070312 8.730469 3.09375 8.761719 3.105469 8.785156 C 3.132812 8.832031 3.207031 8.933594 3.261719 8.988281 C 3.28125 9.007812 3.296875 9.03125 3.296875 9.039062 C 3.296875 9.046875 3.316406 9.074219 3.34375 9.101562 C 3.371094 9.128906 3.390625 9.15625 3.390625 9.164062 C 3.390625 9.171875 3.414062 9.203125 3.441406 9.230469 C 3.464844 9.257812 3.488281 9.289062 3.488281 9.296875 C 3.488281 9.308594 3.507812 9.335938 3.535156 9.359375 C 3.5625 9.382812 3.585938 9.410156 3.585938 9.421875 C 3.585938 9.429688 3.605469 9.457031 3.632812 9.484375 C 3.660156 9.511719 3.679688 9.542969 3.679688 9.546875 C 3.679688 9.554688 3.703125 9.585938 3.726562 9.617188 C 3.753906 9.648438 3.777344 9.675781 3.777344 9.683594 C 3.777344 9.691406 3.792969 9.710938 3.816406 9.734375 C 3.839844 9.757812 3.855469 9.78125 3.855469 9.789062 C 3.855469 9.796875 3.878906 9.824219 3.902344 9.851562 C 3.929688 9.882812 3.953125 9.910156 3.953125 9.917969 C 3.953125 9.925781 3.972656 9.953125 4 9.980469 C 4.027344 10.007812 4.046875 10.039062 4.046875 10.046875 C 4.046875 10.054688 4.070312 10.082031 4.097656 10.109375 C 4.121094 10.136719 4.144531 10.164062 4.144531 10.171875 C 4.144531 10.179688 4.164062 10.210938 4.191406 10.238281 C 4.21875 10.265625 4.238281 10.292969 4.238281 10.296875 C 4.238281 10.304688 4.261719 10.328125 4.289062 10.351562 C 4.3125 10.375 4.335938 10.40625 4.335938 10.417969 C 4.335938 10.425781 4.347656 10.449219 4.363281 10.460938 C 4.378906 10.476562 4.414062 10.523438 4.441406 10.5625 C 4.464844 10.605469 4.492188 10.640625 4.5 10.640625 C 4.507812 10.640625 4.511719 10.648438 4.511719 10.660156 C 4.511719 10.671875 4.535156 10.707031 4.558594 10.734375 C 4.585938 10.761719 4.609375 10.789062 4.609375 10.796875 C 4.609375 10.804688 4.628906 10.832031 4.65625 10.863281 C 4.683594 10.890625 4.703125 10.917969 4.703125 10.921875 C 4.703125 10.929688 4.726562 10.953125 4.753906 10.976562 C 4.777344 11.003906 4.800781 11.03125 4.800781 11.042969 C 4.800781 11.050781 4.820312 11.078125 4.847656 11.105469 C 4.875 11.128906 4.894531 11.15625 4.894531 11.167969 C 4.894531 11.179688 4.917969 11.207031 4.945312 11.230469 C 4.96875 11.257812 4.992188 11.285156 4.992188 11.296875 C 4.992188 11.304688 5.011719 11.335938 5.039062 11.359375 C 5.066406 11.382812 5.089844 11.414062 5.089844 11.425781 C 5.089844 11.441406 5.105469 11.46875 5.128906 11.488281 C 5.148438 11.507812 5.167969 11.535156 5.167969 11.542969 C 5.167969 11.554688 5.191406 11.582031 5.214844 11.609375 C 5.242188 11.632812 5.265625 11.664062 5.265625 11.679688 C 5.265625 11.699219 5.269531 11.699219 5.273438 11.683594 C 5.28125 11.671875 5.4375 11.535156 5.621094 11.378906 C 5.808594 11.226562 5.976562 11.085938 6 11.066406 C 6.023438 11.046875 6.171875 10.921875 6.335938 10.785156 C 6.5 10.652344 6.648438 10.523438 6.671875 10.507812 C 6.695312 10.488281 6.75 10.441406 6.800781 10.398438 C 6.847656 10.359375 6.902344 10.316406 6.917969 10.300781 C 6.9375 10.285156 7.09375 10.15625 7.265625 10.015625 C 7.4375 9.871094 7.617188 9.722656 7.664062 9.679688 C 7.710938 9.636719 7.878906 9.5 8.03125 9.375 L 8.308594 9.144531 L 8.238281 9.132812 C 8.199219 9.125 8.125 9.113281 8.070312 9.105469 C 8.019531 9.097656 7.929688 9.082031 7.871094 9.070312 C 7.742188 9.046875 7.636719 9.03125 7.503906 9.011719 C 7.445312 9 7.359375 8.984375 7.308594 8.976562 C 7.257812 8.96875 7.175781 8.953125 7.125 8.941406 C 7.074219 8.933594 6.988281 8.917969 6.9375 8.910156 C 6.792969 8.890625 6.722656 8.878906 5.742188 8.714844 C 5.246094 8.628906 4.730469 8.542969 4.601562 8.523438 C 4.175781 8.453125 4.152344 8.449219 4.070312 8.433594 C 4.027344 8.425781 3.9375 8.410156 3.871094 8.398438 C 3.804688 8.390625 3.722656 8.375 3.6875 8.367188 C 3.652344 8.359375 3.566406 8.347656 3.496094 8.335938 C 3.425781 8.324219 3.339844 8.3125 3.304688 8.304688 C 3.269531 8.296875 3.1875 8.28125 3.121094 8.273438 C 3.054688 8.261719 2.96875 8.246094 2.929688 8.238281 C 2.800781 8.214844 2.671875 8.203125 2.671875 8.21875 M 8.65625 9.261719 C 8.65625 9.269531 8.695312 9.386719 8.746094 9.515625 C 8.878906 9.867188 8.929688 10.003906 8.945312 10.046875 C 8.953125 10.082031 9.019531 10.257812 9.054688 10.34375 C 9.082031 10.410156 9.171875 10.644531 9.320312 11.046875 C 9.40625 11.277344 9.492188 11.511719 9.515625 11.566406 C 9.535156 11.625 9.566406 11.703125 9.578125 11.742188 C 9.589844 11.785156 9.609375 11.832031 9.617188 11.851562 C 9.644531 11.914062 9.660156 11.957031 9.691406 12.046875 C 9.753906 12.207031 9.855469 12.488281 9.890625 12.566406 C 9.90625 12.609375 9.921875 12.65625 9.921875 12.675781 C 9.921875 12.71875 9.941406 12.710938 9.96875 12.660156 C 9.980469 12.636719 10.007812 12.597656 10.027344 12.578125 C 10.046875 12.558594 10.0625 12.535156 10.0625 12.527344 C 10.0625 12.519531 10.082031 12.496094 10.101562 12.476562 C 10.121094 12.453125 10.148438 12.421875 10.160156 12.402344 C 10.167969 12.382812 10.191406 12.351562 10.210938 12.332031 C 10.28125 12.253906 10.351562 12.15625 10.351562 12.136719 C 10.351562 12.128906 10.367188 12.109375 10.382812 12.097656 C 10.402344 12.082031 10.414062 12.066406 10.414062 12.054688 C 10.414062 12.042969 10.4375 12.015625 10.464844 11.988281 C 10.492188 11.957031 10.511719 11.929688 10.511719 11.921875 C 10.511719 11.914062 10.535156 11.886719 10.558594 11.859375 C 10.585938 11.832031 10.609375 11.800781 10.609375 11.789062 C 10.609375 11.78125 10.628906 11.753906 10.65625 11.726562 C 10.683594 11.703125 10.703125 11.679688 10.703125 11.671875 C 10.703125 11.667969 10.726562 11.640625 10.75 11.609375 C 10.777344 11.582031 10.800781 11.554688 10.800781 11.546875 C 10.800781 11.542969 10.820312 11.511719 10.847656 11.484375 C 10.875 11.457031 10.894531 11.429688 10.894531 11.421875 C 10.894531 11.414062 10.917969 11.386719 10.945312 11.359375 C 10.96875 11.328125 10.992188 11.296875 10.992188 11.285156 C 10.992188 11.273438 11.011719 11.246094 11.03125 11.226562 C 11.054688 11.203125 11.070312 11.175781 11.070312 11.167969 C 11.070312 11.15625 11.09375 11.128906 11.121094 11.105469 C 11.144531 11.078125 11.167969 11.046875 11.167969 11.035156 C 11.167969 11.019531 11.179688 11.007812 11.199219 11 C 11.214844 10.996094 11.238281 10.972656 11.25 10.949219 C 11.261719 10.925781 11.292969 10.882812 11.316406 10.859375 C 11.339844 10.832031 11.359375 10.804688 11.359375 10.796875 C 11.359375 10.789062 11.382812 10.761719 11.40625 10.734375 C 11.433594 10.707031 11.457031 10.675781 11.457031 10.667969 C 11.457031 10.660156 11.476562 10.632812 11.503906 10.605469 C 11.53125 10.578125 11.550781 10.550781 11.550781 10.542969 C 11.550781 10.535156 11.574219 10.503906 11.601562 10.476562 C 11.65625 10.417969 11.660156 10.382812 11.609375 10.382812 C 11.589844 10.382812 11.542969 10.371094 11.507812 10.351562 C 11.472656 10.335938 11.433594 10.320312 11.425781 10.320312 C 11.414062 10.320312 11.394531 10.3125 11.378906 10.304688 C 11.339844 10.285156 11.292969 10.265625 11.0625 10.179688 C 10.496094 9.960938 10.128906 9.816406 10.066406 9.789062 C 10.03125 9.773438 9.992188 9.761719 9.984375 9.761719 C 9.976562 9.761719 9.957031 9.753906 9.941406 9.746094 C 9.902344 9.726562 9.863281 9.710938 9.617188 9.617188 C 9.496094 9.570312 9.386719 9.527344 9.367188 9.519531 C 9.015625 9.375 8.65625 9.242188 8.65625 9.261719 M 8.113281 9.707031 C 7.941406 9.925781 7.792969 10.109375 7.785156 10.117188 C 7.773438 10.128906 7.742188 10.167969 7.710938 10.207031 C 7.683594 10.246094 7.652344 10.285156 7.648438 10.289062 C 7.644531 10.292969 7.613281 10.328125 7.582031 10.367188 C 7.554688 10.40625 7.515625 10.453125 7.5 10.472656 C 7.488281 10.488281 7.378906 10.621094 7.265625 10.769531 C 7.148438 10.914062 7.046875 11.042969 7.035156 11.054688 C 7.023438 11.070312 6.769531 11.386719 6.472656 11.761719 C 6.175781 12.132812 5.921875 12.449219 5.910156 12.460938 C 5.882812 12.484375 5.882812 12.511719 5.902344 12.511719 C 5.914062 12.511719 5.921875 12.523438 5.921875 12.539062 C 5.921875 12.550781 5.941406 12.582031 5.96875 12.609375 C 5.996094 12.632812 6.015625 12.660156 6.015625 12.671875 C 6.015625 12.683594 6.039062 12.710938 6.0625 12.734375 C 6.089844 12.761719 6.113281 12.789062 6.113281 12.800781 C 6.113281 12.808594 6.132812 12.839844 6.15625 12.863281 C 6.179688 12.886719 6.210938 12.921875 6.222656 12.949219 C 6.234375 12.972656 6.257812 12.996094 6.273438 13 C 6.289062 13.007812 6.304688 13.019531 6.304688 13.035156 C 6.304688 13.046875 6.324219 13.078125 6.351562 13.105469 C 6.378906 13.128906 6.398438 13.160156 6.398438 13.171875 C 6.398438 13.1875 6.417969 13.214844 6.441406 13.238281 C 6.460938 13.261719 6.480469 13.285156 6.480469 13.292969 C 6.480469 13.300781 6.5 13.328125 6.527344 13.359375 C 6.554688 13.386719 6.574219 13.414062 6.574219 13.421875 C 6.574219 13.429688 6.597656 13.457031 6.625 13.484375 C 6.652344 13.511719 6.671875 13.542969 6.671875 13.546875 C 6.671875 13.570312 6.746094 13.648438 6.757812 13.636719 C 6.761719 13.632812 6.769531 13.640625 6.769531 13.65625 C 6.769531 13.675781 6.78125 13.699219 6.800781 13.710938 C 6.816406 13.726562 6.832031 13.742188 6.832031 13.753906 C 6.832031 13.761719 6.855469 13.792969 6.878906 13.820312 C 6.90625 13.847656 6.929688 13.878906 6.929688 13.886719 C 6.929688 13.894531 6.949219 13.921875 6.976562 13.949219 C 7.003906 13.976562 7.023438 14.007812 7.023438 14.015625 C 7.023438 14.023438 7.03125 14.03125 7.039062 14.03125 C 7.046875 14.03125 7.054688 14.042969 7.054688 14.054688 C 7.054688 14.066406 7.0625 14.078125 7.066406 14.082031 C 7.074219 14.085938 7.101562 14.117188 7.125 14.15625 C 7.175781 14.234375 7.203125 14.273438 7.269531 14.339844 C 7.292969 14.367188 7.3125 14.394531 7.3125 14.402344 C 7.3125 14.40625 7.332031 14.4375 7.359375 14.464844 C 7.386719 14.492188 7.40625 14.519531 7.40625 14.527344 C 7.40625 14.535156 7.425781 14.5625 7.449219 14.582031 C 7.46875 14.605469 7.488281 14.628906 7.488281 14.636719 C 7.488281 14.644531 7.507812 14.675781 7.535156 14.703125 C 7.5625 14.730469 7.585938 14.757812 7.585938 14.769531 C 7.585938 14.777344 7.589844 14.785156 7.601562 14.785156 C 7.609375 14.785156 7.617188 14.792969 7.617188 14.804688 C 7.617188 14.816406 7.628906 14.835938 7.648438 14.847656 C 7.664062 14.859375 7.679688 14.878906 7.679688 14.890625 C 7.679688 14.902344 7.6875 14.910156 7.691406 14.914062 C 7.699219 14.917969 7.726562 14.953125 7.753906 14.992188 C 7.78125 15.03125 7.820312 15.082031 7.839844 15.101562 C 7.855469 15.125 7.871094 15.144531 7.871094 15.152344 C 7.871094 15.171875 7.964844 15.265625 7.984375 15.265625 C 8.007812 15.265625 8.113281 15.152344 8.113281 15.128906 C 8.113281 15.121094 8.125 15.105469 8.140625 15.089844 C 8.171875 15.058594 8.335938 14.84375 8.371094 14.785156 C 8.382812 14.765625 8.410156 14.726562 8.4375 14.699219 C 8.460938 14.671875 8.480469 14.644531 8.480469 14.636719 C 8.480469 14.628906 8.5 14.601562 8.527344 14.574219 C 8.554688 14.546875 8.574219 14.515625 8.574219 14.503906 C 8.574219 14.496094 8.589844 14.476562 8.609375 14.464844 C 8.625 14.453125 8.640625 14.425781 8.640625 14.410156 C 8.640625 14.382812 8.644531 14.378906 8.65625 14.398438 C 8.667969 14.417969 8.671875 14.417969 8.671875 14.390625 C 8.671875 14.375 8.6875 14.351562 8.703125 14.339844 C 8.722656 14.328125 8.734375 14.3125 8.734375 14.300781 C 8.734375 14.292969 8.75 14.273438 8.765625 14.257812 C 8.78125 14.242188 8.8125 14.207031 8.832031 14.175781 C 8.851562 14.144531 8.875 14.117188 8.878906 14.113281 C 8.886719 14.109375 8.90625 14.078125 8.929688 14.046875 C 8.949219 14.015625 8.972656 13.984375 8.984375 13.972656 C 8.992188 13.960938 9.007812 13.941406 9.019531 13.929688 C 9.03125 13.917969 9.039062 13.898438 9.039062 13.886719 C 9.039062 13.878906 9.0625 13.847656 9.089844 13.824219 C 9.113281 13.800781 9.136719 13.769531 9.136719 13.753906 C 9.136719 13.742188 9.144531 13.726562 9.15625 13.722656 C 9.171875 13.71875 9.171875 13.703125 9.15625 13.65625 C 9.144531 13.621094 9.128906 13.542969 9.121094 13.488281 C 9.105469 13.382812 9.082031 13.238281 9.054688 13.070312 C 9.046875 13.023438 9.035156 12.941406 9.023438 12.886719 C 9.015625 12.835938 9 12.746094 8.992188 12.6875 C 8.984375 12.628906 8.96875 12.523438 8.953125 12.449219 C 8.941406 12.375 8.882812 12.015625 8.824219 11.65625 C 8.71875 10.984375 8.691406 10.824219 8.605469 10.304688 C 8.582031 10.140625 8.542969 9.917969 8.527344 9.808594 C 8.507812 9.699219 8.488281 9.570312 8.480469 9.519531 C 8.472656 9.472656 8.464844 9.414062 8.464844 9.390625 C 8.464844 9.277344 8.429688 9.308594 8.113281 9.707031 "/>
<path style=" stroke:none;fill-rule:evenodd;fill:rgb(45.882353%,65.490196%,20.392157%);fill-opacity:1;" d="M 7.339844 1.527344 C 7.335938 1.53125 7.339844 1.570312 7.351562 1.613281 C 7.363281 1.652344 7.433594 2.085938 7.511719 2.574219 C 7.59375 3.0625 7.660156 3.449219 7.660156 3.425781 C 7.664062 3.40625 7.65625 3.324219 7.640625 3.242188 C 7.625 3.164062 7.605469 3.027344 7.589844 2.945312 C 7.578125 2.859375 7.5625 2.753906 7.554688 2.703125 C 7.542969 2.65625 7.53125 2.570312 7.519531 2.511719 C 7.367188 1.527344 7.363281 1.507812 7.339844 1.527344 M 6.183594 3.144531 C 6.191406 3.160156 6.226562 3.257812 6.265625 3.359375 C 6.34375 3.574219 6.800781 4.796875 6.886719 5.03125 C 6.949219 5.199219 7.019531 5.378906 7.039062 5.433594 C 7.050781 5.460938 7.082031 5.546875 7.152344 5.730469 C 7.167969 5.777344 7.210938 5.890625 7.246094 5.984375 C 7.28125 6.078125 7.359375 6.28125 7.414062 6.441406 C 7.472656 6.597656 7.542969 6.785156 7.570312 6.851562 C 7.59375 6.921875 7.636719 7.035156 7.664062 7.105469 C 7.691406 7.175781 7.734375 7.292969 7.761719 7.363281 C 7.789062 7.4375 7.824219 7.535156 7.84375 7.585938 C 7.859375 7.632812 7.886719 7.695312 7.898438 7.726562 C 7.910156 7.757812 8.007812 8.019531 8.113281 8.304688 C 8.292969 8.789062 8.335938 8.886719 8.335938 8.859375 C 8.335938 8.855469 8.207031 8.503906 8.046875 8.078125 C 7.886719 7.652344 7.679688 7.089844 7.582031 6.832031 C 7.484375 6.574219 7.175781 5.746094 6.894531 5 C 6.617188 4.253906 6.347656 3.527344 6.296875 3.390625 C 6.246094 3.253906 6.195312 3.136719 6.1875 3.128906 C 6.175781 3.117188 6.175781 3.121094 6.183594 3.144531 M 7.667969 3.503906 C 7.664062 3.5625 7.722656 3.871094 7.726562 3.816406 C 7.726562 3.773438 7.707031 3.644531 7.679688 3.519531 C 7.671875 3.476562 7.667969 3.472656 7.667969 3.503906 M 7.734375 3.945312 C 7.742188 3.988281 7.765625 4.152344 7.792969 4.3125 C 7.820312 4.46875 7.867188 4.78125 7.902344 5 C 7.941406 5.21875 7.996094 5.578125 8.03125 5.792969 C 8.332031 7.648438 8.527344 8.859375 8.527344 8.878906 C 8.527344 8.941406 8.714844 8.714844 9.960938 7.15625 C 10.726562 6.199219 11.375 5.390625 11.40625 5.355469 C 11.433594 5.324219 11.453125 5.296875 11.445312 5.296875 C 11.433594 5.296875 11.355469 5.386719 11.265625 5.5 C 11.175781 5.613281 11.09375 5.714844 11.082031 5.726562 C 11.074219 5.742188 11.039062 5.785156 11.007812 5.824219 C 10.976562 5.863281 10.949219 5.898438 10.945312 5.902344 C 10.9375 5.910156 10.738281 6.160156 10.496094 6.464844 C 10.253906 6.769531 9.988281 7.097656 9.90625 7.199219 C 9.824219 7.300781 9.75 7.394531 9.738281 7.40625 C 9.726562 7.421875 9.695312 7.464844 9.664062 7.503906 C 9.632812 7.542969 9.605469 7.578125 9.601562 7.585938 C 9.59375 7.589844 9.566406 7.625 9.535156 7.664062 C 9.503906 7.703125 9.46875 7.75 9.453125 7.769531 C 9.4375 7.785156 9.332031 7.917969 9.214844 8.0625 C 9.101562 8.210938 8.996094 8.339844 8.980469 8.359375 C 8.96875 8.375 8.875 8.492188 8.773438 8.617188 C 8.527344 8.925781 8.554688 8.921875 8.511719 8.648438 C 8.496094 8.535156 8.472656 8.402344 8.464844 8.351562 C 8.457031 8.304688 8.441406 8.214844 8.433594 8.152344 C 8.421875 8.089844 8.40625 8 8.398438 7.953125 C 8.390625 7.902344 8.371094 7.773438 8.351562 7.660156 C 8.277344 7.1875 8.164062 6.472656 8.144531 6.367188 C 8.136719 6.320312 8.121094 6.234375 8.113281 6.175781 C 8.105469 6.117188 8.066406 5.890625 8.03125 5.671875 C 7.894531 4.835938 7.871094 4.675781 7.839844 4.488281 C 7.761719 4 7.742188 3.878906 7.734375 3.871094 C 7.726562 3.867188 7.730469 3.898438 7.734375 3.945312 M 11.675781 6.535156 C 11.441406 6.730469 11.25 6.894531 11.25 6.902344 C 11.25 6.914062 11.394531 6.800781 11.425781 6.769531 C 11.429688 6.761719 11.539062 6.671875 11.671875 6.5625 C 11.804688 6.453125 11.945312 6.335938 11.992188 6.296875 C 12.035156 6.261719 12.082031 6.222656 12.09375 6.214844 C 12.109375 6.203125 12.117188 6.191406 12.113281 6.1875 C 12.109375 6.183594 11.910156 6.339844 11.675781 6.535156 M 10.890625 7.191406 C 10.707031 7.34375 10.542969 7.480469 10.523438 7.496094 C 10.503906 7.515625 10.320312 7.667969 10.117188 7.835938 C 9.910156 8.007812 9.742188 8.152344 9.742188 8.15625 C 9.742188 8.160156 9.757812 8.15625 9.773438 8.140625 C 9.789062 8.128906 9.90625 8.027344 10.039062 7.917969 C 10.171875 7.808594 10.296875 7.703125 10.320312 7.6875 C 10.34375 7.667969 10.496094 7.539062 10.664062 7.398438 C 10.832031 7.261719 10.984375 7.132812 11.007812 7.113281 C 11.046875 7.082031 11.214844 6.941406 11.230469 6.933594 C 11.234375 6.929688 11.234375 6.925781 11.230469 6.921875 C 11.226562 6.917969 11.074219 7.039062 10.890625 7.191406 M 3.3125 6.996094 C 3.3125 7.007812 3.523438 7.089844 3.53125 7.082031 C 3.535156 7.078125 3.5 7.0625 3.453125 7.042969 C 3.40625 7.027344 3.355469 7.007812 3.339844 7 C 3.324219 6.992188 3.3125 6.992188 3.3125 6.996094 M 3.773438 7.183594 C 3.8125 7.203125 3.847656 7.214844 3.851562 7.207031 C 3.859375 7.199219 3.8125 7.179688 3.742188 7.164062 C 3.722656 7.15625 3.734375 7.167969 3.773438 7.183594 M 3.886719 7.230469 C 3.902344 7.242188 3.921875 7.246094 3.9375 7.246094 C 3.957031 7.246094 3.957031 7.246094 3.9375 7.230469 C 3.921875 7.222656 3.902344 7.214844 3.886719 7.214844 C 3.867188 7.214844 3.867188 7.21875 3.886719 7.230469 M 4.128906 7.316406 C 4.140625 7.332031 4.515625 7.476562 4.519531 7.46875 C 4.523438 7.464844 4.449219 7.433594 4.355469 7.394531 C 4.144531 7.3125 4.117188 7.304688 4.128906 7.316406 M 4.625 7.507812 C 4.636719 7.523438 5.042969 7.683594 5.050781 7.675781 C 5.054688 7.671875 4.972656 7.636719 4.867188 7.59375 C 4.640625 7.503906 4.613281 7.496094 4.625 7.507812 M 5.3125 7.78125 C 5.40625 7.824219 5.484375 7.847656 5.472656 7.835938 C 5.460938 7.824219 5.261719 7.742188 5.242188 7.746094 C 5.230469 7.746094 5.261719 7.761719 5.3125 7.78125 M 5.710938 7.9375 C 5.75 7.953125 5.785156 7.964844 5.785156 7.960938 C 5.792969 7.957031 5.671875 7.902344 5.652344 7.90625 C 5.644531 7.90625 5.671875 7.921875 5.710938 7.9375 M 5.863281 8 C 5.898438 8.015625 5.9375 8.03125 5.953125 8.03125 C 5.964844 8.03125 5.945312 8.015625 5.910156 8 C 5.875 7.984375 5.835938 7.96875 5.824219 7.96875 C 5.8125 7.96875 5.828125 7.984375 5.863281 8 M 6.0625 8.066406 C 6.078125 8.082031 6.5625 8.273438 6.570312 8.265625 C 6.574219 8.265625 6.472656 8.222656 6.347656 8.171875 C 6.085938 8.066406 6.054688 8.054688 6.0625 8.066406 M 9.382812 8.445312 C 9.195312 8.601562 8.96875 8.789062 8.878906 8.863281 C 8.6875 9.023438 8.667969 9.039062 8.679688 9.050781 C 8.683594 9.058594 8.699219 9.046875 8.714844 9.027344 C 8.730469 9.007812 8.878906 8.882812 9.046875 8.742188 C 9.214844 8.605469 9.371094 8.476562 9.390625 8.457031 C 9.449219 8.410156 9.71875 8.1875 9.726562 8.179688 C 9.730469 8.179688 9.730469 8.171875 9.726562 8.167969 C 9.722656 8.167969 9.566406 8.289062 9.382812 8.445312 M 2.734375 8.207031 C 2.757812 8.214844 2.792969 8.222656 2.816406 8.222656 L 2.855469 8.222656 L 2.816406 8.207031 C 2.792969 8.199219 2.757812 8.195312 2.734375 8.195312 L 2.695312 8.195312 L 2.734375 8.207031 M 2.929688 8.238281 C 2.949219 8.246094 2.988281 8.253906 3.015625 8.253906 L 3.0625 8.253906 L 3.015625 8.238281 C 2.988281 8.234375 2.949219 8.226562 2.929688 8.226562 L 2.886719 8.226562 L 2.929688 8.238281 M 3.121094 8.273438 C 3.140625 8.277344 3.179688 8.285156 3.207031 8.285156 L 3.257812 8.285156 L 3.207031 8.273438 C 3.179688 8.265625 3.140625 8.257812 3.121094 8.257812 L 3.078125 8.257812 L 3.121094 8.273438 M 3.304688 8.304688 C 3.320312 8.3125 3.359375 8.316406 3.382812 8.316406 L 3.433594 8.316406 L 3.382812 8.304688 C 3.359375 8.296875 3.320312 8.292969 3.304688 8.289062 L 3.273438 8.289062 L 3.304688 8.304688 M 3.496094 8.335938 C 3.523438 8.34375 3.566406 8.347656 3.59375 8.347656 C 3.632812 8.347656 3.628906 8.347656 3.574219 8.335938 C 3.496094 8.316406 3.429688 8.320312 3.496094 8.335938 M 6.863281 8.386719 C 6.925781 8.410156 6.984375 8.429688 6.984375 8.425781 C 6.992188 8.421875 6.78125 8.335938 6.757812 8.335938 C 6.75 8.335938 6.796875 8.359375 6.863281 8.386719 M 3.6875 8.367188 C 3.71875 8.382812 3.820312 8.390625 3.808594 8.378906 C 3.804688 8.375 3.769531 8.367188 3.726562 8.363281 C 3.679688 8.355469 3.667969 8.359375 3.6875 8.367188 M 3.871094 8.398438 C 3.894531 8.40625 3.933594 8.414062 3.960938 8.414062 L 4.007812 8.414062 L 3.960938 8.398438 C 3.933594 8.394531 3.894531 8.386719 3.871094 8.386719 L 3.832031 8.386719 L 3.871094 8.398438 M 4.070312 8.433594 C 4.101562 8.445312 4.21875 8.453125 4.207031 8.441406 C 4.203125 8.4375 4.164062 8.433594 4.121094 8.425781 C 4.070312 8.421875 4.050781 8.421875 4.070312 8.433594 M 4.257812 8.464844 C 4.277344 8.472656 4.316406 8.476562 4.34375 8.476562 L 4.390625 8.476562 L 4.34375 8.464844 C 4.316406 8.457031 4.277344 8.453125 4.257812 8.453125 L 4.214844 8.453125 L 4.257812 8.464844 M 4.515625 8.507812 C 4.53125 8.511719 4.554688 8.511719 4.570312 8.507812 C 4.585938 8.503906 4.574219 8.5 4.542969 8.5 C 4.511719 8.5 4.5 8.503906 4.515625 8.507812 M 7.171875 8.503906 C 7.183594 8.515625 7.394531 8.59375 7.402344 8.585938 C 7.40625 8.582031 7.359375 8.5625 7.300781 8.539062 C 7.199219 8.5 7.152344 8.488281 7.171875 8.503906 M 4.648438 8.527344 C 4.675781 8.535156 4.71875 8.539062 4.742188 8.539062 C 4.785156 8.539062 4.78125 8.539062 4.726562 8.527344 C 4.648438 8.511719 4.582031 8.511719 4.648438 8.527344 M 4.882812 8.570312 C 4.898438 8.574219 4.925781 8.574219 4.941406 8.570312 C 4.957031 8.566406 4.941406 8.5625 4.910156 8.5625 C 4.882812 8.5625 4.867188 8.566406 4.882812 8.570312 M 5.089844 8.601562 C 5.152344 8.613281 5.214844 8.621094 5.222656 8.617188 C 5.242188 8.613281 5.042969 8.574219 5 8.578125 C 4.980469 8.578125 5.023438 8.589844 5.089844 8.601562 M 5.304688 8.640625 C 5.386719 8.65625 5.449219 8.65625 5.382812 8.640625 C 5.359375 8.632812 5.3125 8.628906 5.289062 8.628906 C 5.246094 8.628906 5.25 8.628906 5.304688 8.640625 M 5.460938 8.667969 C 5.476562 8.671875 5.5 8.671875 5.515625 8.667969 C 5.53125 8.664062 5.519531 8.660156 5.488281 8.660156 C 5.457031 8.660156 5.445312 8.664062 5.460938 8.667969 M 7.585938 8.660156 C 7.597656 8.675781 8.003906 8.835938 8.011719 8.828125 C 8.011719 8.824219 7.929688 8.789062 7.828125 8.746094 C 7.605469 8.660156 7.574219 8.648438 7.585938 8.660156 M 5.6875 8.703125 C 5.714844 8.710938 5.753906 8.714844 5.777344 8.714844 C 5.8125 8.714844 5.8125 8.714844 5.769531 8.703125 C 5.742188 8.699219 5.703125 8.691406 5.679688 8.691406 C 5.644531 8.691406 5.644531 8.691406 5.6875 8.703125 M 5.878906 8.738281 C 5.960938 8.753906 6.027344 8.753906 5.960938 8.734375 C 5.933594 8.730469 5.890625 8.722656 5.863281 8.722656 C 5.824219 8.722656 5.828125 8.726562 5.878906 8.738281 M 6.070312 8.769531 C 6.097656 8.773438 6.136719 8.78125 6.160156 8.78125 C 6.195312 8.78125 6.195312 8.777344 6.152344 8.769531 C 6.125 8.761719 6.085938 8.753906 6.0625 8.753906 C 6.027344 8.753906 6.027344 8.757812 6.070312 8.769531 M 6.265625 8.800781 C 6.289062 8.808594 6.328125 8.8125 6.351562 8.8125 C 6.386719 8.8125 6.386719 8.8125 6.34375 8.800781 C 6.316406 8.792969 6.277344 8.789062 6.257812 8.789062 C 6.21875 8.789062 6.222656 8.789062 6.265625 8.800781 M 6.457031 8.832031 C 6.535156 8.851562 6.601562 8.847656 6.535156 8.832031 C 6.507812 8.824219 6.464844 8.820312 6.441406 8.820312 C 6.398438 8.820312 6.402344 8.820312 6.457031 8.832031 M 8.1875 8.898438 C 8.359375 8.96875 8.378906 8.96875 8.359375 8.910156 C 8.347656 8.871094 8.347656 8.871094 8.335938 8.90625 C 8.328125 8.941406 8.328125 8.941406 8.191406 8.886719 C 8.117188 8.855469 8.050781 8.832031 8.039062 8.832031 C 8.03125 8.832031 8.097656 8.863281 8.1875 8.898438 M 6.640625 8.863281 C 6.660156 8.871094 6.703125 8.875 6.726562 8.875 L 6.777344 8.875 L 6.726562 8.863281 C 6.703125 8.855469 6.660156 8.851562 6.640625 8.851562 L 6.601562 8.851562 L 6.640625 8.863281 M 6.832031 8.894531 C 6.855469 8.902344 6.890625 8.910156 6.910156 8.910156 L 6.953125 8.910156 L 6.910156 8.894531 C 6.890625 8.890625 6.855469 8.882812 6.832031 8.882812 L 6.792969 8.882812 L 6.832031 8.894531 M 7.039062 8.929688 C 7.0625 8.933594 7.097656 8.941406 7.121094 8.941406 C 7.15625 8.941406 7.15625 8.9375 7.113281 8.929688 C 7.042969 8.910156 6.984375 8.910156 7.039062 8.929688 M 7.214844 8.960938 C 7.238281 8.96875 7.273438 8.972656 7.296875 8.972656 C 7.332031 8.972656 7.332031 8.972656 7.289062 8.960938 C 7.21875 8.941406 7.164062 8.941406 7.214844 8.960938 M 7.390625 8.992188 C 7.429688 9.003906 7.546875 9.011719 7.535156 9.003906 C 7.53125 9 7.488281 8.992188 7.441406 8.988281 C 7.382812 8.980469 7.367188 8.984375 7.390625 8.992188 M 7.59375 9.023438 C 7.609375 9.03125 7.644531 9.039062 7.671875 9.035156 L 7.71875 9.035156 L 7.671875 9.023438 C 7.644531 9.015625 7.609375 9.011719 7.59375 9.011719 L 7.558594 9.011719 L 7.59375 9.023438 M 7.785156 9.054688 C 7.816406 9.070312 7.917969 9.078125 7.902344 9.066406 C 7.898438 9.0625 7.863281 9.054688 7.824219 9.050781 C 7.777344 9.042969 7.761719 9.046875 7.785156 9.054688 M 8.722656 9.0625 C 8.726562 9.066406 8.761719 9.070312 8.800781 9.078125 C 8.847656 9.082031 8.863281 9.082031 8.839844 9.074219 C 8.808594 9.058594 8.707031 9.050781 8.722656 9.0625 M 7.96875 9.089844 C 7.988281 9.09375 8.03125 9.101562 8.0625 9.101562 L 8.121094 9.101562 L 8.054688 9.085938 C 7.96875 9.070312 7.910156 9.070312 7.96875 9.089844 M 8.953125 9.105469 C 8.976562 9.109375 9.019531 9.117188 9.039062 9.117188 L 9.078125 9.117188 L 9.039062 9.105469 C 9.019531 9.097656 8.976562 9.089844 8.953125 9.089844 L 8.902344 9.09375 L 8.953125 9.105469 M 8.167969 9.121094 C 8.199219 9.132812 8.300781 9.140625 8.285156 9.128906 C 8.28125 9.128906 8.246094 9.121094 8.207031 9.113281 C 8.160156 9.109375 8.148438 9.109375 8.167969 9.121094 M 9.105469 9.125 C 9.109375 9.128906 9.144531 9.136719 9.183594 9.140625 C 9.230469 9.148438 9.246094 9.144531 9.222656 9.136719 C 9.195312 9.121094 9.089844 9.113281 9.105469 9.125 M 8.03125 9.375 C 7.875 9.503906 7.710938 9.640625 7.664062 9.683594 C 7.589844 9.742188 7.398438 9.902344 6.886719 10.328125 C 6.84375 10.363281 6.785156 10.410156 6.757812 10.433594 C 6.730469 10.453125 6.703125 10.480469 6.703125 10.488281 C 6.703125 10.496094 6.71875 10.488281 6.738281 10.46875 C 6.761719 10.453125 7.117188 10.152344 7.539062 9.804688 C 8.195312 9.257812 8.34375 9.132812 8.316406 9.136719 C 8.3125 9.136719 8.183594 9.242188 8.03125 9.375 M 9.335938 9.167969 C 9.363281 9.175781 9.402344 9.179688 9.425781 9.179688 C 9.460938 9.179688 9.457031 9.179688 9.414062 9.167969 C 9.390625 9.160156 9.351562 9.15625 9.328125 9.15625 C 9.292969 9.15625 9.292969 9.15625 9.335938 9.167969 M 9.503906 9.191406 C 9.507812 9.191406 9.539062 9.199219 9.574219 9.207031 C 9.621094 9.210938 9.628906 9.210938 9.609375 9.199219 C 9.578125 9.1875 9.492188 9.179688 9.503906 9.191406 M 9.710938 9.230469 C 9.734375 9.238281 9.773438 9.246094 9.800781 9.246094 L 9.847656 9.246094 L 9.800781 9.230469 C 9.773438 9.226562 9.734375 9.21875 9.710938 9.21875 L 9.671875 9.21875 L 9.710938 9.230469 M 8.664062 9.339844 C 8.699219 9.441406 8.871094 9.902344 9.085938 10.472656 C 9.136719 10.613281 9.261719 10.945312 9.359375 11.207031 C 9.703125 12.125 9.890625 12.632812 9.90625 12.65625 C 9.929688 12.699219 9.921875 12.644531 9.890625 12.566406 C 9.855469 12.488281 9.753906 12.207031 9.691406 12.046875 C 9.660156 11.957031 9.644531 11.914062 9.617188 11.851562 C 9.609375 11.832031 9.589844 11.785156 9.578125 11.742188 C 9.566406 11.703125 9.535156 11.625 9.515625 11.566406 C 9.492188 11.511719 9.40625 11.277344 9.320312 11.046875 C 9.171875 10.648438 9.082031 10.414062 9.054688 10.34375 C 9.039062 10.300781 8.949219 10.0625 8.910156 9.960938 C 8.894531 9.914062 8.855469 9.804688 8.820312 9.710938 C 8.667969 9.316406 8.652344 9.265625 8.660156 9.253906 C 8.664062 9.25 8.742188 9.277344 8.832031 9.3125 C 8.921875 9.347656 9 9.375 9.003906 9.371094 C 9.011719 9.363281 8.675781 9.230469 8.648438 9.230469 C 8.628906 9.230469 8.632812 9.253906 8.664062 9.339844 M 9.929688 9.265625 C 9.996094 9.28125 10.054688 9.28125 10 9.265625 C 9.976562 9.257812 9.941406 9.25 9.921875 9.25 C 9.882812 9.25 9.886719 9.253906 9.929688 9.265625 M 10.097656 9.296875 C 10.117188 9.304688 10.15625 9.308594 10.183594 9.308594 L 10.230469 9.308594 L 10.183594 9.296875 C 10.15625 9.289062 10.117188 9.285156 10.097656 9.285156 L 10.054688 9.28125 L 10.097656 9.296875 M 7.847656 10.011719 C 7.535156 10.40625 7.097656 10.949219 6.882812 11.222656 C 6.035156 12.28125 5.890625 12.457031 5.871094 12.449219 C 5.851562 12.445312 5.851562 12.449219 5.867188 12.464844 C 5.890625 12.492188 5.851562 12.539062 6.472656 11.761719 C 6.769531 11.386719 7.023438 11.070312 7.035156 11.054688 C 7.046875 11.042969 7.148438 10.914062 7.265625 10.769531 C 7.378906 10.621094 7.488281 10.488281 7.5 10.472656 C 7.515625 10.453125 7.554688 10.40625 7.582031 10.367188 C 7.613281 10.328125 7.644531 10.292969 7.648438 10.289062 C 7.652344 10.285156 7.683594 10.246094 7.710938 10.207031 C 7.742188 10.167969 7.78125 10.121094 7.796875 10.105469 C 7.808594 10.085938 7.957031 9.902344 8.125 9.691406 C 8.351562 9.40625 8.433594 9.316406 8.445312 9.332031 C 8.460938 9.347656 8.464844 9.34375 8.464844 9.324219 C 8.464844 9.253906 8.386719 9.34375 7.847656 10.011719 M 10.480469 9.359375 C 10.519531 9.371094 10.621094 9.382812 10.605469 9.371094 C 10.601562 9.367188 10.5625 9.359375 10.519531 9.355469 C 10.464844 9.347656 10.453125 9.351562 10.480469 9.359375 M 8.46875 9.40625 C 8.46875 9.4375 8.472656 9.484375 8.480469 9.511719 L 8.492188 9.558594 L 8.492188 9.503906 C 8.492188 9.472656 8.488281 9.425781 8.480469 9.398438 L 8.46875 9.351562 L 8.46875 9.40625 M 10.664062 9.390625 C 10.691406 9.398438 10.730469 9.402344 10.753906 9.402344 C 10.789062 9.402344 10.785156 9.402344 10.742188 9.390625 C 10.71875 9.386719 10.679688 9.378906 10.65625 9.378906 C 10.621094 9.378906 10.621094 9.382812 10.664062 9.390625 M 9.167969 9.441406 C 9.203125 9.457031 9.238281 9.46875 9.246094 9.464844 C 9.253906 9.457031 9.203125 9.433594 9.136719 9.417969 C 9.113281 9.414062 9.128906 9.421875 9.167969 9.441406 M 10.832031 9.414062 C 10.84375 9.421875 11.125 9.472656 11.164062 9.46875 C 11.179688 9.46875 11.144531 9.460938 11.089844 9.449219 C 10.945312 9.421875 10.824219 9.402344 10.832031 9.414062 M 9.28125 9.488281 C 9.292969 9.496094 9.316406 9.503906 9.328125 9.503906 C 9.347656 9.503906 9.347656 9.5 9.328125 9.488281 C 9.316406 9.480469 9.292969 9.472656 9.28125 9.472656 C 9.257812 9.472656 9.257812 9.472656 9.28125 9.488281 M 11.238281 9.488281 C 11.265625 9.496094 11.308594 9.5 11.335938 9.5 C 11.375 9.5 11.375 9.5 11.320312 9.488281 C 11.238281 9.46875 11.171875 9.472656 11.238281 9.488281 M 11.472656 9.527344 C 11.476562 9.527344 11.519531 9.535156 11.566406 9.539062 C 11.625 9.546875 11.640625 9.546875 11.617188 9.535156 C 11.578125 9.523438 11.460938 9.515625 11.472656 9.527344 M 11.664062 9.558594 C 11.667969 9.5625 11.707031 9.566406 11.753906 9.574219 C 11.804688 9.578125 11.820312 9.578125 11.792969 9.570312 C 11.753906 9.554688 11.652344 9.546875 11.664062 9.558594 M 8.496094 9.597656 C 8.496094 9.617188 8.511719 9.71875 8.527344 9.820312 C 8.554688 9.992188 8.597656 10.246094 8.6875 10.800781 C 8.703125 10.910156 8.765625 11.296875 8.824219 11.65625 C 8.949219 12.433594 8.976562 12.597656 8.984375 12.605469 C 9 12.621094 8.992188 12.546875 8.953125 12.328125 C 8.933594 12.207031 8.894531 11.988281 8.875 11.847656 C 8.851562 11.707031 8.808594 11.457031 8.785156 11.289062 C 8.757812 11.121094 8.71875 10.894531 8.703125 10.785156 C 8.683594 10.675781 8.644531 10.429688 8.613281 10.238281 C 8.585938 10.050781 8.546875 9.824219 8.535156 9.734375 C 8.507812 9.574219 8.496094 9.53125 8.496094 9.597656 M 11.875 9.589844 C 11.878906 9.59375 11.914062 9.601562 11.960938 9.605469 C 12.015625 9.613281 12.027344 9.609375 12 9.601562 C 11.960938 9.585938 11.859375 9.578125 11.875 9.589844 M 12.097656 9.632812 C 12.125 9.636719 12.164062 9.648438 12.179688 9.65625 C 12.195312 9.664062 12.207031 9.660156 12.207031 9.652344 C 12.207031 9.632812 12.128906 9.613281 12.074219 9.617188 C 12.054688 9.617188 12.0625 9.625 12.097656 9.632812 M 10.175781 9.828125 C 10.1875 9.84375 10.433594 9.9375 10.441406 9.929688 C 10.445312 9.929688 10.398438 9.90625 10.339844 9.882812 C 10.195312 9.828125 10.167969 9.816406 10.175781 9.828125 M 10.527344 9.96875 C 10.566406 9.988281 10.597656 9.996094 10.601562 9.996094 C 10.609375 9.988281 10.488281 9.933594 10.46875 9.9375 C 10.460938 9.9375 10.488281 9.953125 10.527344 9.96875 M 10.707031 10.039062 C 10.71875 10.050781 10.933594 10.128906 10.9375 10.121094 C 10.941406 10.121094 10.894531 10.097656 10.835938 10.074219 C 10.734375 10.035156 10.6875 10.023438 10.707031 10.039062 M 11.214844 10.238281 C 11.230469 10.25 11.25 10.253906 11.265625 10.253906 C 11.285156 10.253906 11.285156 10.253906 11.265625 10.238281 C 11.25 10.230469 11.230469 10.222656 11.214844 10.222656 C 11.195312 10.222656 11.195312 10.226562 11.214844 10.238281 M 6.390625 10.738281 C 6.234375 10.871094 6.070312 11.007812 6.03125 11.039062 C 5.992188 11.074219 5.8125 11.222656 5.628906 11.375 C 5.445312 11.527344 5.296875 11.652344 5.296875 11.660156 C 5.296875 11.671875 5.25 11.710938 6.019531 11.066406 C 6.597656 10.585938 6.707031 10.492188 6.683594 10.496094 C 6.683594 10.496094 6.550781 10.605469 6.390625 10.738281 M 8.996094 12.664062 C 8.992188 12.691406 9.003906 12.769531 9.015625 12.839844 C 9.027344 12.910156 9.046875 13.019531 9.058594 13.078125 C 9.066406 13.140625 9.082031 13.234375 9.089844 13.289062 C 9.097656 13.339844 9.113281 13.433594 9.121094 13.492188 C 9.136719 13.597656 9.167969 13.699219 9.164062 13.648438 C 9.164062 13.59375 8.996094 12.621094 8.996094 12.664062 "/>
<path style=" stroke:none;fill-rule:evenodd;fill:rgb(51.764706%,70.588235%,29.803922%);fill-opacity:1;" d="M 7.335938 1.617188 C 7.351562 1.71875 7.421875 2.148438 7.488281 2.558594 C 7.554688 2.964844 7.570312 3.085938 7.65625 3.613281 C 7.683594 3.765625 7.707031 3.882812 7.707031 3.875 C 7.714844 3.859375 7.667969 3.566406 7.496094 2.496094 C 7.367188 1.699219 7.34375 1.578125 7.335938 1.570312 C 7.328125 1.5625 7.328125 1.585938 7.335938 1.617188 M 6.175781 3.101562 C 6.175781 3.109375 6.183594 3.121094 6.1875 3.121094 C 6.195312 3.125 6.242188 3.230469 6.289062 3.355469 C 6.335938 3.480469 6.375 3.582031 6.378906 3.578125 C 6.382812 3.574219 6.347656 3.472656 6.304688 3.347656 C 6.257812 3.226562 6.214844 3.117188 6.210938 3.109375 C 6.203125 3.085938 6.175781 3.082031 6.175781 3.101562 M 6.382812 3.605469 C 6.382812 3.613281 6.53125 4.011719 6.890625 4.972656 C 6.929688 5.082031 6.96875 5.164062 6.972656 5.164062 C 6.976562 5.160156 6.957031 5.097656 6.929688 5.03125 C 6.902344 4.960938 6.773438 4.613281 6.640625 4.257812 C 6.421875 3.671875 6.382812 3.574219 6.382812 3.605469 M 7.714844 3.945312 C 7.714844 3.96875 7.722656 4.011719 7.726562 4.039062 L 7.738281 4.089844 L 7.738281 4.039062 C 7.738281 4.011719 7.734375 3.96875 7.726562 3.945312 L 7.714844 3.894531 L 7.714844 3.945312 M 7.746094 4.132812 C 7.746094 4.160156 7.757812 4.261719 7.773438 4.359375 C 7.832031 4.679688 7.835938 4.699219 7.835938 4.648438 C 7.835938 4.621094 7.816406 4.484375 7.792969 4.34375 C 7.765625 4.203125 7.746094 4.109375 7.746094 4.132812 M 7.839844 4.734375 C 7.839844 4.75 7.847656 4.800781 7.855469 4.84375 C 7.863281 4.886719 7.886719 5.019531 7.90625 5.144531 C 7.945312 5.40625 8 5.699219 7.992188 5.609375 C 7.984375 5.515625 7.855469 4.714844 7.847656 4.707031 C 7.84375 4.703125 7.839844 4.714844 7.839844 4.734375 M 6.980469 5.199219 C 7 5.273438 7.15625 5.679688 7.164062 5.671875 C 7.171875 5.664062 7.015625 5.238281 6.988281 5.199219 C 6.976562 5.179688 6.972656 5.179688 6.980469 5.199219 M 10.878906 6.019531 C 10.566406 6.40625 10.296875 6.746094 10.28125 6.765625 C 10.261719 6.789062 10.257812 6.800781 10.265625 6.796875 C 10.277344 6.789062 10.332031 6.726562 10.382812 6.660156 C 10.4375 6.589844 10.53125 6.476562 10.59375 6.398438 C 10.675781 6.296875 11.335938 5.46875 11.445312 5.332031 C 11.453125 5.320312 11.457031 5.3125 11.453125 5.3125 C 11.445312 5.3125 11.1875 5.628906 10.878906 6.019531 M 8 5.703125 C 8 5.71875 8.015625 5.824219 8.03125 5.933594 C 8.109375 6.394531 8.203125 6.988281 8.296875 7.574219 C 8.3125 7.671875 8.328125 7.742188 8.332031 7.730469 C 8.335938 7.714844 8.046875 5.886719 8.015625 5.734375 C 8.007812 5.699219 8.003906 5.6875 8 5.703125 M 7.171875 5.710938 C 7.191406 5.785156 7.652344 7.007812 7.660156 7 C 7.667969 6.996094 7.207031 5.75 7.179688 5.710938 C 7.167969 5.691406 7.167969 5.691406 7.171875 5.710938 M 12.0625 6.1875 C 12.058594 6.195312 12.015625 6.230469 11.96875 6.273438 C 11.917969 6.3125 11.867188 6.355469 11.847656 6.375 C 11.832031 6.390625 11.785156 6.425781 11.75 6.453125 C 11.710938 6.480469 11.679688 6.507812 11.679688 6.515625 C 11.679688 6.523438 11.765625 6.460938 11.867188 6.375 C 12.097656 6.183594 12.109375 6.175781 12.085938 6.175781 C 12.074219 6.175781 12.0625 6.179688 12.0625 6.1875 M 11.371094 6.769531 C 11.214844 6.898438 11.089844 7.007812 11.09375 7.007812 C 11.105469 7.007812 11.664062 6.546875 11.664062 6.535156 C 11.664062 6.523438 11.660156 6.523438 11.371094 6.769531 M 9.664062 7.539062 C 9.34375 7.9375 9.074219 8.277344 9.058594 8.292969 C 9.046875 8.308594 9.042969 8.320312 9.050781 8.320312 C 9.058594 8.320312 9.089844 8.285156 9.121094 8.242188 C 9.152344 8.203125 9.1875 8.152344 9.203125 8.136719 C 9.21875 8.117188 9.441406 7.839844 9.695312 7.519531 C 9.953125 7.199219 10.175781 6.921875 10.1875 6.902344 C 10.246094 6.832031 10.257812 6.816406 10.25 6.816406 C 10.246094 6.816406 9.980469 7.140625 9.664062 7.539062 M 7.675781 7.054688 C 7.6875 7.117188 7.726562 7.195312 7.726562 7.167969 C 7.726562 7.15625 7.710938 7.113281 7.695312 7.078125 C 7.679688 7.042969 7.667969 7.035156 7.675781 7.054688 M 10.742188 7.292969 C 10.566406 7.441406 10.386719 7.589844 10.34375 7.625 C 10.300781 7.660156 10.199219 7.746094 10.121094 7.808594 C 9.878906 8.007812 9.59375 8.246094 9.550781 8.28125 C 9.53125 8.300781 9.375 8.429688 9.207031 8.566406 C 9.039062 8.707031 8.886719 8.835938 8.863281 8.855469 C 8.839844 8.871094 8.785156 8.917969 8.738281 8.957031 C 8.65625 9.027344 8.632812 9.070312 8.683594 9.070312 C 8.707031 9.070312 8.707031 9.070312 8.6875 9.054688 C 8.65625 9.035156 8.574219 9.113281 9.480469 8.359375 C 11.125 6.996094 11.089844 7.023438 11.070312 7.023438 C 11.066406 7.023438 10.917969 7.144531 10.742188 7.292969 M 7.734375 7.214844 C 7.757812 7.296875 8.246094 8.589844 8.25 8.585938 C 8.257812 8.578125 7.765625 7.253906 7.742188 7.214844 C 7.726562 7.195312 7.726562 7.195312 7.734375 7.214844 M 3.929688 7.261719 C 3.964844 7.277344 4.011719 7.296875 4.03125 7.300781 C 4.054688 7.308594 4.042969 7.296875 4.007812 7.28125 C 3.972656 7.265625 3.925781 7.246094 3.902344 7.242188 C 3.882812 7.238281 3.894531 7.246094 3.929688 7.261719 M 5.230469 7.765625 C 5.246094 7.777344 5.523438 7.886719 5.542969 7.886719 C 5.550781 7.886719 5.5 7.863281 5.425781 7.832031 C 5.28125 7.773438 5.21875 7.75 5.230469 7.765625 M 8.335938 7.789062 C 8.335938 7.828125 8.382812 8.117188 8.394531 8.125 C 8.40625 8.140625 8.398438 8.070312 8.367188 7.910156 C 8.351562 7.824219 8.339844 7.769531 8.335938 7.789062 M 5.808594 7.988281 C 5.820312 8.003906 6.066406 8.097656 6.074219 8.089844 C 6.078125 8.085938 6.03125 8.066406 5.972656 8.042969 C 5.828125 7.988281 5.796875 7.976562 5.808594 7.988281 M 8.402344 8.171875 C 8.398438 8.214844 8.445312 8.515625 8.457031 8.527344 C 8.46875 8.539062 8.460938 8.476562 8.433594 8.304688 C 8.417969 8.210938 8.402344 8.152344 8.402344 8.171875 M 6.273438 8.167969 C 6.273438 8.179688 6.382812 8.222656 6.40625 8.222656 C 6.414062 8.222656 6.394531 8.207031 6.359375 8.191406 C 6.292969 8.160156 6.273438 8.15625 6.273438 8.167969 M 2.707031 8.183594 C 2.710938 8.183594 2.746094 8.191406 2.792969 8.195312 C 2.847656 8.203125 2.859375 8.203125 2.832031 8.191406 C 2.792969 8.179688 2.691406 8.171875 2.707031 8.183594 M 2.898438 8.21875 C 2.914062 8.222656 2.941406 8.222656 2.957031 8.21875 C 2.972656 8.214844 2.957031 8.210938 2.929688 8.210938 C 2.898438 8.210938 2.882812 8.214844 2.898438 8.21875 M 3.039062 8.238281 C 3.078125 8.253906 3.179688 8.261719 3.167969 8.25 C 3.164062 8.246094 3.125 8.238281 3.078125 8.234375 C 3.027344 8.230469 3.011719 8.230469 3.039062 8.238281 M 3.320312 8.289062 C 3.386719 8.304688 3.445312 8.304688 3.390625 8.289062 C 3.371094 8.28125 3.335938 8.273438 3.3125 8.277344 C 3.277344 8.277344 3.277344 8.277344 3.320312 8.289062 M 3.457031 8.308594 C 3.460938 8.3125 3.496094 8.320312 3.535156 8.324219 C 3.585938 8.332031 3.597656 8.328125 3.574219 8.320312 C 3.546875 8.308594 3.445312 8.296875 3.457031 8.308594 M 3.703125 8.351562 C 3.773438 8.371094 3.828125 8.371094 3.777344 8.351562 C 3.753906 8.34375 3.71875 8.339844 3.695312 8.339844 C 3.660156 8.339844 3.660156 8.339844 3.703125 8.351562 M 8.96875 8.40625 C 8.9375 8.449219 8.914062 8.480469 8.921875 8.480469 C 8.9375 8.480469 9.046875 8.335938 9.035156 8.335938 C 9.03125 8.335938 9 8.367188 8.96875 8.40625 M 3.839844 8.375 C 3.84375 8.378906 3.878906 8.382812 3.921875 8.390625 C 3.96875 8.394531 3.980469 8.394531 3.960938 8.382812 C 3.929688 8.371094 3.828125 8.363281 3.839844 8.375 M 4.035156 8.40625 C 4.035156 8.410156 4.074219 8.417969 4.121094 8.421875 C 4.175781 8.425781 4.1875 8.425781 4.160156 8.417969 C 4.121094 8.402344 4.019531 8.394531 4.035156 8.40625 M 4.242188 8.4375 C 4.246094 8.441406 4.277344 8.449219 4.3125 8.453125 C 4.355469 8.460938 4.367188 8.457031 4.34375 8.449219 C 4.3125 8.433594 4.226562 8.425781 4.242188 8.4375 M 4.457031 8.480469 C 4.523438 8.496094 4.582031 8.496094 4.527344 8.480469 C 4.507812 8.472656 4.46875 8.46875 4.449219 8.46875 C 4.410156 8.46875 4.414062 8.46875 4.457031 8.480469 M 4.625 8.5 C 4.628906 8.503906 4.660156 8.511719 4.695312 8.515625 C 4.742188 8.523438 4.75 8.523438 4.726562 8.511719 C 4.699219 8.5 4.613281 8.488281 4.625 8.5 M 8.742188 8.691406 C 8.539062 8.949219 8.539062 8.945312 8.511719 8.816406 L 8.496094 8.742188 L 8.503906 8.820312 C 8.515625 8.976562 8.539062 8.964844 8.742188 8.714844 C 8.90625 8.515625 8.917969 8.496094 8.90625 8.496094 C 8.902344 8.496094 8.828125 8.585938 8.742188 8.691406 M 4.847656 8.542969 C 4.871094 8.550781 4.902344 8.558594 4.921875 8.558594 C 4.945312 8.558594 4.945312 8.554688 4.910156 8.542969 C 4.890625 8.535156 4.859375 8.53125 4.839844 8.53125 C 4.816406 8.53125 4.816406 8.535156 4.847656 8.542969 M 7.246094 8.546875 C 7.261719 8.5625 7.585938 8.691406 7.59375 8.683594 C 7.597656 8.679688 7.535156 8.652344 7.453125 8.621094 C 7.269531 8.546875 7.238281 8.535156 7.246094 8.546875 M 8.46875 8.59375 C 8.46875 8.664062 8.492188 8.765625 8.492188 8.703125 C 8.492188 8.683594 8.488281 8.636719 8.480469 8.601562 L 8.46875 8.535156 L 8.46875 8.59375 M 4.992188 8.566406 C 4.996094 8.570312 5.035156 8.574219 5.078125 8.582031 C 5.132812 8.585938 5.148438 8.585938 5.121094 8.578125 C 5.078125 8.5625 4.980469 8.554688 4.992188 8.566406 M 5.230469 8.609375 C 5.253906 8.613281 5.289062 8.621094 5.3125 8.621094 C 5.347656 8.621094 5.347656 8.617188 5.304688 8.609375 C 5.234375 8.589844 5.179688 8.589844 5.230469 8.609375 M 8.257812 8.613281 C 8.257812 8.632812 8.339844 8.847656 8.347656 8.84375 C 8.351562 8.839844 8.335938 8.785156 8.3125 8.726562 C 8.273438 8.625 8.257812 8.589844 8.257812 8.613281 M 5.40625 8.640625 C 5.429688 8.648438 5.464844 8.652344 5.488281 8.652344 C 5.523438 8.652344 5.523438 8.652344 5.480469 8.640625 C 5.414062 8.621094 5.355469 8.621094 5.40625 8.640625 M 5.792969 8.703125 C 5.8125 8.710938 5.851562 8.714844 5.871094 8.714844 C 5.90625 8.714844 5.90625 8.714844 5.863281 8.703125 C 5.796875 8.6875 5.738281 8.6875 5.792969 8.703125 M 5.984375 8.734375 C 6.007812 8.742188 6.042969 8.75 6.0625 8.75 C 6.101562 8.75 6.097656 8.746094 6.054688 8.734375 C 5.988281 8.71875 5.929688 8.71875 5.984375 8.734375 M 6.367188 8.800781 C 6.40625 8.8125 6.507812 8.820312 6.496094 8.808594 C 6.492188 8.808594 6.453125 8.800781 6.40625 8.792969 C 6.355469 8.789062 6.339844 8.789062 6.367188 8.800781 M 7.898438 8.804688 C 7.976562 8.839844 8.027344 8.851562 7.960938 8.816406 C 7.925781 8.800781 7.886719 8.785156 7.871094 8.785156 C 7.859375 8.785156 7.871094 8.792969 7.898438 8.804688 M 6.628906 8.84375 C 6.644531 8.847656 6.667969 8.847656 6.683594 8.84375 C 6.699219 8.839844 6.6875 8.835938 6.65625 8.835938 C 6.625 8.835938 6.613281 8.839844 6.628906 8.84375 M 6.804688 8.875 C 6.820312 8.878906 6.84375 8.878906 6.859375 8.875 C 6.875 8.871094 6.863281 8.867188 6.832031 8.867188 C 6.800781 8.867188 6.789062 8.871094 6.804688 8.875 M 8.363281 8.90625 C 8.375 8.96875 8.347656 8.976562 8.269531 8.933594 C 8.242188 8.921875 8.21875 8.914062 8.210938 8.917969 C 8.203125 8.929688 8.316406 8.976562 8.351562 8.976562 C 8.394531 8.976562 8.398438 8.957031 8.375 8.902344 L 8.355469 8.855469 L 8.363281 8.90625 M 6.996094 8.90625 C 7.011719 8.910156 7.035156 8.910156 7.050781 8.90625 C 7.066406 8.902344 7.054688 8.898438 7.023438 8.898438 C 6.992188 8.898438 6.980469 8.902344 6.996094 8.90625 M 7.570312 8.996094 C 7.574219 9 7.605469 9.007812 7.640625 9.015625 C 7.6875 9.023438 7.695312 9.019531 7.679688 9.007812 C 7.660156 8.992188 7.554688 8.984375 7.570312 8.996094 M 7.785156 9.039062 C 7.851562 9.058594 7.910156 9.058594 7.855469 9.039062 C 7.835938 9.03125 7.796875 9.027344 7.777344 9.027344 C 7.738281 9.027344 7.742188 9.027344 7.785156 9.039062 M 7.9375 9.0625 C 7.941406 9.066406 7.976562 9.070312 8.015625 9.078125 C 8.0625 9.082031 8.078125 9.082031 8.054688 9.074219 C 8.027344 9.058594 7.921875 9.050781 7.9375 9.0625 M 8.769531 9.085938 C 8.808594 9.101562 8.90625 9.109375 8.894531 9.097656 C 8.890625 9.09375 8.851562 9.089844 8.808594 9.082031 C 8.753906 9.078125 8.742188 9.078125 8.769531 9.085938 M 8.175781 9.105469 C 8.199219 9.109375 8.234375 9.117188 8.257812 9.117188 L 8.296875 9.117188 L 8.257812 9.105469 C 8.234375 9.097656 8.199219 9.089844 8.175781 9.089844 L 8.136719 9.089844 L 8.175781 9.105469 M 8.953125 9.121094 C 8.984375 9.132812 9.085938 9.140625 9.070312 9.128906 C 9.066406 9.128906 9.03125 9.121094 8.992188 9.113281 C 8.945312 9.109375 8.929688 9.109375 8.953125 9.121094 M 8.3125 9.140625 C 8.316406 9.152344 8.21875 9.246094 8.070312 9.367188 C 7.933594 9.480469 7.816406 9.582031 7.8125 9.589844 C 7.804688 9.605469 8.097656 9.371094 8.144531 9.324219 C 8.15625 9.3125 8.210938 9.269531 8.261719 9.226562 C 8.308594 9.183594 8.347656 9.140625 8.34375 9.132812 C 8.328125 9.113281 8.304688 9.117188 8.3125 9.140625 M 9.136719 9.152344 C 9.175781 9.164062 9.273438 9.171875 9.261719 9.160156 C 9.257812 9.160156 9.21875 9.152344 9.175781 9.148438 C 9.121094 9.140625 9.109375 9.140625 9.136719 9.152344 M 8.609375 9.238281 C 8.609375 9.25 8.695312 9.496094 8.800781 9.777344 C 8.90625 10.0625 8.996094 10.304688 9 10.316406 C 9.003906 10.332031 9.011719 10.335938 9.015625 10.332031 C 9.019531 10.328125 8.933594 10.085938 8.824219 9.789062 C 8.714844 9.496094 8.628906 9.246094 8.632812 9.234375 C 8.636719 9.226562 8.632812 9.214844 8.625 9.214844 C 8.613281 9.214844 8.609375 9.226562 8.609375 9.238281 M 8.421875 9.273438 C 8.371094 9.324219 7.578125 10.3125 7.238281 10.742188 C 7.167969 10.832031 7.089844 10.933594 7.058594 10.96875 C 6.914062 11.144531 5.929688 12.382812 5.902344 12.425781 L 5.871094 12.472656 L 5.902344 12.433594 C 5.972656 12.351562 6.589844 11.582031 7.945312 9.882812 C 8.207031 9.550781 8.433594 9.28125 8.445312 9.28125 C 8.46875 9.28125 8.46875 9.265625 8.671875 10.558594 C 8.71875 10.847656 8.75 11.003906 8.75 10.964844 C 8.75 10.941406 8.738281 10.847656 8.722656 10.746094 C 8.703125 10.648438 8.664062 10.410156 8.632812 10.214844 C 8.464844 9.164062 8.476562 9.21875 8.421875 9.273438 M 9.816406 9.265625 C 9.898438 9.28125 9.960938 9.28125 9.894531 9.265625 C 9.871094 9.257812 9.828125 9.25 9.800781 9.25 C 9.757812 9.25 9.761719 9.253906 9.816406 9.265625 M 8.832031 9.289062 C 8.832031 9.296875 8.882812 9.320312 8.945312 9.332031 C 8.964844 9.339844 8.957031 9.332031 8.921875 9.3125 C 8.851562 9.28125 8.832031 9.273438 8.832031 9.289062 M 9.953125 9.285156 C 9.957031 9.289062 9.996094 9.296875 10.039062 9.300781 C 10.09375 9.308594 10.105469 9.304688 10.078125 9.296875 C 10.039062 9.28125 9.941406 9.273438 9.953125 9.285156 M 10.183594 9.328125 C 10.210938 9.335938 10.25 9.339844 10.273438 9.339844 C 10.308594 9.339844 10.308594 9.339844 10.265625 9.328125 C 10.238281 9.320312 10.199219 9.316406 10.175781 9.316406 C 10.140625 9.316406 10.140625 9.316406 10.183594 9.328125 M 10.335938 9.351562 C 10.339844 9.351562 10.378906 9.359375 10.425781 9.363281 C 10.476562 9.371094 10.492188 9.371094 10.464844 9.359375 C 10.425781 9.347656 10.324219 9.339844 10.335938 9.351562 M 10.566406 9.390625 C 10.636719 9.410156 10.695312 9.410156 10.640625 9.390625 C 10.617188 9.386719 10.582031 9.378906 10.558594 9.378906 C 10.523438 9.378906 10.523438 9.382812 10.566406 9.390625 M 9.152344 9.414062 C 9.164062 9.425781 9.363281 9.503906 9.382812 9.503906 C 9.390625 9.503906 9.359375 9.484375 9.308594 9.464844 C 9.203125 9.421875 9.140625 9.398438 9.152344 9.414062 M 10.761719 9.425781 C 10.839844 9.441406 10.90625 9.441406 10.839844 9.425781 C 10.8125 9.417969 10.769531 9.410156 10.742188 9.410156 C 10.703125 9.410156 10.707031 9.414062 10.761719 9.425781 M 10.960938 9.457031 C 10.980469 9.464844 11.015625 9.46875 11.03125 9.46875 C 11.058594 9.46875 11.054688 9.464844 11.023438 9.457031 C 11.003906 9.449219 10.96875 9.441406 10.953125 9.441406 C 10.925781 9.441406 10.929688 9.445312 10.960938 9.457031 M 11.144531 9.488281 C 11.210938 9.503906 11.269531 9.503906 11.214844 9.488281 C 11.195312 9.480469 11.15625 9.476562 11.136719 9.476562 C 11.101562 9.476562 11.101562 9.476562 11.144531 9.488281 M 11.335938 9.519531 C 11.355469 9.527344 11.386719 9.535156 11.40625 9.535156 L 11.449219 9.53125 L 11.40625 9.519531 C 11.386719 9.511719 11.355469 9.507812 11.335938 9.507812 L 11.304688 9.507812 L 11.335938 9.519531 M 11.519531 9.550781 C 11.542969 9.558594 11.578125 9.566406 11.601562 9.566406 L 11.640625 9.566406 L 11.601562 9.550781 C 11.578125 9.546875 11.542969 9.539062 11.519531 9.539062 L 11.480469 9.539062 L 11.519531 9.550781 M 11.710938 9.582031 C 11.753906 9.597656 11.851562 9.605469 11.839844 9.59375 C 11.835938 9.589844 11.796875 9.582031 11.753906 9.578125 C 11.699219 9.574219 11.683594 9.574219 11.710938 9.582031 M 9.710938 9.632812 C 9.773438 9.660156 9.832031 9.679688 9.835938 9.675781 C 9.839844 9.667969 9.628906 9.582031 9.609375 9.585938 C 9.597656 9.585938 9.644531 9.605469 9.710938 9.632812 M 7.390625 9.929688 C 7.023438 10.234375 6.835938 10.398438 6.894531 10.359375 C 6.921875 10.339844 7.585938 9.789062 7.601562 9.777344 C 7.605469 9.769531 7.769531 9.636719 7.789062 9.621094 C 7.792969 9.617188 7.792969 9.613281 7.789062 9.609375 C 7.785156 9.605469 7.609375 9.75 7.390625 9.929688 M 11.921875 9.617188 C 11.941406 9.621094 11.976562 9.628906 12 9.628906 C 12.035156 9.628906 12.035156 9.628906 11.992188 9.617188 C 11.925781 9.597656 11.867188 9.597656 11.921875 9.617188 M 12.066406 9.636719 C 12.070312 9.640625 12.09375 9.648438 12.121094 9.652344 C 12.15625 9.660156 12.160156 9.660156 12.144531 9.648438 C 12.121094 9.632812 12.050781 9.625 12.066406 9.636719 M 10.726562 10.03125 C 10.761719 10.046875 10.808594 10.0625 10.832031 10.070312 C 10.855469 10.074219 10.84375 10.066406 10.808594 10.050781 C 10.773438 10.035156 10.726562 10.015625 10.703125 10.011719 C 10.683594 10.003906 10.691406 10.011719 10.726562 10.03125 M 11.089844 10.164062 C 11.101562 10.179688 11.347656 10.273438 11.355469 10.265625 C 11.359375 10.265625 11.3125 10.242188 11.253906 10.21875 C 11.105469 10.164062 11.078125 10.152344 11.089844 10.164062 M 6.675781 10.527344 C 6.585938 10.605469 6.5 10.679688 6.484375 10.695312 C 6.46875 10.710938 6.542969 10.652344 6.648438 10.566406 C 6.753906 10.480469 6.84375 10.410156 6.847656 10.40625 C 6.851562 10.402344 6.851562 10.398438 6.847656 10.394531 C 6.84375 10.390625 6.765625 10.453125 6.675781 10.527344 M 9.058594 10.441406 C 9.054688 10.464844 9.097656 10.574219 9.109375 10.585938 C 9.117188 10.59375 9.117188 10.582031 9.113281 10.558594 C 9.09375 10.5 9.058594 10.421875 9.058594 10.441406 M 9.121094 10.621094 C 9.121094 10.628906 9.132812 10.671875 9.152344 10.714844 C 9.167969 10.757812 9.296875 11.09375 9.433594 11.464844 C 9.746094 12.304688 9.765625 12.355469 9.769531 12.347656 C 9.777344 12.339844 9.140625 10.621094 9.125 10.609375 C 9.121094 10.605469 9.121094 10.609375 9.121094 10.621094 M 6.007812 11.082031 C 5.769531 11.277344 5.5625 11.457031 5.542969 11.476562 C 5.527344 11.492188 5.539062 11.484375 5.574219 11.457031 C 5.738281 11.324219 5.996094 11.113281 6.03125 11.082031 C 6.054688 11.0625 6.113281 11.015625 6.160156 10.976562 C 6.308594 10.851562 6.460938 10.722656 6.449219 10.722656 C 6.445312 10.722656 6.246094 10.882812 6.007812 11.082031 M 8.753906 11.046875 C 8.753906 11.109375 8.8125 11.414062 8.8125 11.363281 C 8.816406 11.328125 8.773438 11.046875 8.761719 11.015625 C 8.757812 11.007812 8.753906 11.023438 8.753906 11.046875 M 8.816406 11.441406 C 8.816406 11.496094 8.875 11.808594 8.878906 11.765625 C 8.878906 11.730469 8.835938 11.449219 8.824219 11.414062 C 8.820312 11.40625 8.820312 11.417969 8.816406 11.441406 M 5.40625 11.585938 L 5.320312 11.667969 L 5.40625 11.597656 C 5.457031 11.5625 5.5 11.527344 5.503906 11.523438 C 5.507812 11.523438 5.507812 11.515625 5.503906 11.511719 C 5.5 11.507812 5.457031 11.542969 5.40625 11.585938 M 8.882812 11.847656 C 8.882812 11.875 8.890625 11.917969 8.894531 11.945312 L 8.90625 11.992188 L 8.90625 11.945312 C 8.90625 11.917969 8.902344 11.875 8.894531 11.847656 L 8.882812 11.800781 L 8.882812 11.847656 M 8.914062 12.019531 C 8.910156 12.070312 8.964844 12.394531 8.972656 12.371094 C 8.976562 12.355469 8.972656 12.296875 8.960938 12.234375 C 8.929688 12.050781 8.914062 11.988281 8.914062 12.019531 M 9.777344 12.382812 C 9.777344 12.402344 9.890625 12.679688 9.90625 12.695312 C 9.925781 12.714844 9.925781 12.683594 9.90625 12.664062 C 9.898438 12.65625 9.867188 12.585938 9.839844 12.507812 C 9.792969 12.378906 9.777344 12.347656 9.777344 12.382812 M 8.980469 12.441406 C 8.980469 12.464844 8.984375 12.507812 8.992188 12.535156 L 9.003906 12.585938 L 9.003906 12.535156 C 9.003906 12.507812 9 12.464844 8.992188 12.441406 L 8.980469 12.390625 L 8.980469 12.441406 M 9.011719 12.625 C 9.011719 12.644531 9.015625 12.691406 9.023438 12.726562 L 9.035156 12.792969 L 9.035156 12.734375 C 9.035156 12.664062 9.011719 12.558594 9.011719 12.625 M 9.042969 12.808594 C 9.039062 12.839844 9.160156 13.574219 9.164062 13.550781 C 9.167969 13.535156 9.148438 13.382812 9.121094 13.214844 C 9.070312 12.910156 9.046875 12.777344 9.042969 12.808594 M 9.167969 13.621094 C 9.167969 13.644531 9.175781 13.664062 9.183594 13.664062 C 9.203125 13.664062 9.203125 13.632812 9.183594 13.601562 C 9.171875 13.582031 9.167969 13.585938 9.167969 13.621094 "/>
</g>
</svg>
