<svg id="svg" version="1.1" xmlns="http://www.w3.org/2000/svg" xmlns:xlink="http://www.w3.org/1999/xlink" width="400" height="400" viewBox="0, 0, 400,400"><g id="svgg"><path id="path0" d="M182.800 39.133 C 182.800 39.390,182.559 39.600,182.264 39.600 C 181.970 39.600,181.520 40.057,181.266 40.615 C 180.808 41.620,180.404 42.187,179.155 43.573 C 178.801 43.967,178.177 44.854,177.769 45.545 C 177.361 46.235,176.886 46.800,176.714 46.800 C 176.541 46.800,176.400 46.993,176.400 47.229 C 176.400 47.464,176.175 47.894,175.900 48.184 C 174.935 49.200,174.000 50.411,174.000 50.644 C 174.000 50.773,173.505 51.358,172.900 51.943 C 172.295 52.529,171.744 53.265,171.675 53.578 C 171.606 53.892,171.201 54.452,170.775 54.822 C 170.349 55.191,170.000 55.708,170.000 55.971 C 170.000 56.233,169.820 56.336,169.600 56.200 C 169.380 56.064,169.200 56.235,169.200 56.580 C 169.200 56.925,168.660 57.772,168.000 58.463 C 167.340 59.154,166.800 59.897,166.800 60.116 C 166.800 60.335,166.260 61.029,165.600 61.660 C 164.940 62.291,164.400 62.985,164.400 63.203 C 164.400 63.422,164.220 63.600,164.000 63.600 C 163.780 63.600,163.600 63.870,163.600 64.200 C 163.600 64.530,163.416 64.800,163.190 64.800 C 162.965 64.800,162.609 65.250,162.400 65.800 C 162.191 66.350,161.805 66.800,161.543 66.800 C 161.281 66.800,161.183 66.917,161.326 67.059 C 161.469 67.202,161.274 67.607,160.893 67.959 C 160.512 68.312,160.144 68.859,160.075 69.175 C 160.006 69.491,159.601 70.052,159.175 70.422 C 158.749 70.791,158.400 71.298,158.400 71.547 C 158.400 71.796,158.220 72.000,158.000 72.000 C 157.780 72.000,157.600 72.182,157.600 72.404 C 157.600 72.626,157.060 73.372,156.400 74.063 C 155.740 74.754,155.200 75.547,155.200 75.826 C 155.200 76.105,154.975 76.425,154.700 76.536 C 154.307 76.696,154.305 76.813,154.690 77.087 C 155.211 77.457,155.958 79.388,165.802 105.800 C 169.246 115.040,172.859 124.715,173.832 127.300 C 174.804 129.885,176.396 134.115,177.368 136.700 C 178.341 139.285,181.951 148.960,185.392 158.200 C 188.832 167.440,191.982 175.900,192.391 177.000 C 192.801 178.100,193.853 180.890,194.729 183.200 C 195.605 185.510,198.606 193.520,201.398 201.000 C 204.189 208.480,207.246 216.670,208.190 219.200 C 210.315 224.890,210.113 225.361,206.296 223.632 C 205.363 223.210,202.350 222.022,199.600 220.992 C 195.168 219.332,177.657 212.544,175.300 211.571 C 173.470 210.817,172.524 210.448,169.200 209.193 C 167.330 208.487,165.080 207.591,164.200 207.202 C 163.320 206.813,161.700 206.191,160.600 205.819 C 159.500 205.446,158.060 204.901,157.400 204.607 C 156.740 204.312,154.670 203.497,152.800 202.795 C 150.930 202.094,146.880 200.532,143.800 199.326 C 140.720 198.119,135.410 196.051,132.000 194.729 C 128.590 193.407,125.440 192.179,125.000 192.000 C 124.560 191.821,121.320 190.561,117.800 189.200 C 114.280 187.839,111.040 186.574,110.600 186.387 C 110.160 186.201,105.300 184.312,99.800 182.191 C 94.300 180.069,89.037 177.988,88.104 177.566 C 87.172 177.145,86.224 176.800,85.999 176.800 C 85.774 176.800,85.277 176.635,84.895 176.434 C 82.560 175.202,79.793 174.326,80.514 175.047 C 80.650 175.183,80.141 175.948,79.384 176.747 C 78.627 177.546,78.005 178.423,78.003 178.697 C 78.002 178.970,77.640 179.418,77.200 179.693 C 76.760 179.968,76.400 180.520,76.400 180.920 C 76.400 181.320,76.220 181.536,76.000 181.400 C 75.780 181.264,75.600 181.406,75.600 181.714 C 75.600 182.023,75.240 182.602,74.800 183.000 C 74.360 183.398,74.000 183.977,74.000 184.286 C 74.000 184.594,73.820 184.736,73.600 184.600 C 73.380 184.464,73.200 184.553,73.200 184.798 C 73.200 185.043,72.661 185.819,72.002 186.522 C 71.343 187.225,70.803 188.025,70.802 188.300 C 70.801 188.575,70.665 188.801,70.500 188.803 C 70.335 188.804,69.750 189.479,69.201 190.303 C 68.651 191.126,67.963 192.050,67.673 192.356 C 67.383 192.662,66.842 193.382,66.472 193.956 C 65.737 195.097,64.592 196.528,63.500 197.669 C 62.575 198.635,62.617 199.295,63.707 200.900 C 65.960 204.221,66.215 204.418,68.468 204.571 C 69.640 204.651,72.760 205.101,75.400 205.572 C 78.040 206.043,81.280 206.609,82.600 206.830 C 83.920 207.051,85.990 207.404,87.200 207.615 C 88.410 207.826,90.480 208.172,91.800 208.384 C 93.120 208.596,95.280 208.956,96.600 209.184 C 97.920 209.412,100.080 209.771,101.400 209.981 C 103.632 210.338,105.642 210.680,111.200 211.647 C 112.410 211.858,114.480 212.204,115.800 212.416 C 117.120 212.628,119.280 212.988,120.600 213.216 C 121.920 213.444,124.080 213.790,125.400 213.985 C 126.720 214.180,129.420 214.633,131.400 214.991 C 133.380 215.349,142.020 216.802,150.600 218.220 C 159.180 219.638,167.280 220.994,168.600 221.234 C 174.200 222.251,175.173 222.421,178.600 222.979 C 188.144 224.534,191.474 225.093,194.400 225.630 C 197.073 226.122,200.069 226.604,203.818 227.149 C 205.368 227.373,207.168 227.761,207.818 228.009 L 209.000 228.460 207.600 229.685 C 206.830 230.359,205.660 231.389,205.000 231.974 C 204.340 232.558,201.820 234.643,199.400 236.606 C 196.980 238.569,194.910 240.273,194.800 240.393 C 194.690 240.513,193.611 241.419,192.401 242.405 C 191.192 243.392,189.662 244.675,189.001 245.255 C 188.341 245.835,184.380 249.134,180.200 252.586 C 176.020 256.037,172.240 259.167,171.800 259.540 C 171.360 259.912,167.760 262.901,163.800 266.180 C 159.840 269.460,156.510 272.248,156.400 272.377 C 156.290 272.506,155.210 273.416,154.000 274.400 C 152.790 275.384,151.710 276.288,151.600 276.409 C 151.490 276.530,149.960 277.785,148.200 279.197 C 145.184 281.617,138.036 287.558,137.600 288.005 C 136.626 289.006,133.194 291.600,132.844 291.600 C 132.147 291.600,132.323 292.567,133.191 293.499 C 133.627 293.966,134.032 294.567,134.091 294.835 C 134.151 295.103,134.695 295.809,135.300 296.405 C 135.905 297.000,136.400 297.677,136.400 297.909 C 136.400 298.141,137.035 298.985,137.812 299.785 C 138.588 300.584,139.100 301.438,138.950 301.681 C 138.785 301.948,138.859 302.011,139.138 301.838 C 139.392 301.681,139.600 301.767,139.600 302.029 C 139.600 302.292,139.918 302.797,140.307 303.153 C 141.445 304.195,144.209 308.047,144.100 308.440 C 144.045 308.638,144.248 308.800,144.551 308.800 C 144.855 308.800,145.330 309.348,145.608 310.019 C 146.383 311.891,146.195 312.093,161.138 293.400 C 168.876 283.720,175.791 275.098,176.504 274.239 C 177.217 273.380,179.240 270.842,181.000 268.598 C 189.451 257.823,209.319 233.124,210.540 231.876 C 211.698 230.693,211.928 231.328,213.207 239.227 C 213.864 243.282,214.759 248.760,215.196 251.400 C 215.633 254.040,216.625 260.160,217.401 265.000 C 218.177 269.840,219.169 276.005,219.606 278.700 C 220.546 284.500,221.692 291.656,222.809 298.700 C 223.254 301.505,223.790 304.790,224.000 306.000 C 224.210 307.210,224.749 310.540,225.196 313.400 C 225.644 316.260,226.178 319.500,226.382 320.600 C 226.587 321.700,227.325 326.290,228.022 330.800 C 229.451 340.043,229.875 341.659,230.609 340.656 C 230.867 340.302,231.196 340.130,231.340 340.273 C 231.483 340.416,231.600 340.325,231.600 340.071 C 231.600 339.592,232.381 338.514,233.858 336.954 C 234.329 336.456,234.647 335.980,234.563 335.896 C 234.479 335.813,235.020 335.079,235.765 334.266 C 236.510 333.453,237.208 332.557,237.316 332.275 C 237.424 331.992,238.433 330.562,239.556 329.095 C 240.680 327.629,241.600 326.276,241.600 326.089 C 241.600 325.903,242.140 325.232,242.800 324.600 C 243.460 323.968,244.000 323.278,244.000 323.068 C 244.000 322.858,244.495 322.200,245.100 321.605 C 245.705 321.009,246.256 320.281,246.325 319.987 C 246.394 319.692,246.823 319.127,247.279 318.731 C 247.882 318.209,247.994 317.874,247.691 317.506 C 247.075 316.759,245.219 311.934,235.804 286.600 C 227.767 264.975,227.977 265.537,227.601 264.600 C 227.425 264.160,227.064 263.170,226.800 262.400 C 226.536 261.630,226.133 260.550,225.906 260.000 C 225.679 259.450,225.346 258.640,225.166 258.200 C 223.614 254.397,215.200 231.407,215.200 230.967 C 215.200 230.315,216.844 230.200,217.905 230.778 C 218.287 230.986,222.650 232.714,227.600 234.619 C 232.550 236.524,237.363 238.424,238.296 238.841 C 239.228 239.259,240.128 239.599,240.296 239.599 C 240.540 239.597,247.316 242.189,251.900 244.037 C 252.395 244.237,253.250 244.580,253.800 244.800 C 254.350 245.020,255.205 245.367,255.700 245.571 C 257.196 246.187,270.543 251.343,278.000 254.185 C 281.850 255.652,285.360 257.014,285.800 257.213 C 290.443 259.304,291.285 259.571,291.735 259.093 C 291.991 258.822,293.010 257.521,294.000 256.202 C 294.990 254.882,296.115 253.453,296.500 253.026 C 296.885 252.599,297.200 252.092,297.200 251.901 C 297.200 251.709,297.408 251.681,297.662 251.838 C 297.932 252.005,298.016 251.949,297.864 251.704 C 297.721 251.472,298.229 250.590,298.993 249.742 C 299.757 248.894,300.386 247.975,300.391 247.700 C 300.396 247.425,300.535 247.199,300.700 247.197 C 300.865 247.196,301.448 246.521,301.996 245.697 C 302.544 244.874,303.089 244.110,303.206 244.000 C 303.323 243.890,303.717 243.331,304.081 242.757 L 304.743 241.715 302.672 241.286 C 300.753 240.889,298.633 240.524,292.700 239.570 C 288.706 238.928,285.466 238.376,283.400 237.986 C 280.980 237.530,274.692 236.484,271.400 235.991 C 270.080 235.793,264.680 234.896,259.400 233.998 C 248.330 232.116,232.280 229.434,228.200 228.784 C 226.660 228.539,224.680 228.186,223.800 228.000 C 222.920 227.814,220.895 227.439,219.300 227.166 C 215.803 226.570,215.721 226.238,218.496 223.937 C 219.649 222.982,221.044 221.816,221.596 221.346 C 222.148 220.876,226.020 217.664,230.200 214.208 C 234.380 210.752,238.250 207.533,238.800 207.055 C 239.922 206.079,247.530 199.762,253.000 195.263 C 254.980 193.635,257.050 191.917,257.600 191.444 C 258.150 190.972,262.470 187.378,267.200 183.459 C 271.930 179.539,276.160 176.029,276.600 175.658 C 277.040 175.287,280.640 172.289,284.600 168.997 C 288.560 165.704,291.890 162.915,292.000 162.800 C 292.110 162.684,293.190 161.784,294.400 160.800 C 295.610 159.816,296.690 158.916,296.800 158.800 C 296.910 158.684,297.990 157.781,299.200 156.795 C 300.410 155.808,301.460 154.865,301.533 154.700 C 301.607 154.535,301.922 154.400,302.233 154.400 C 302.934 154.400,302.968 153.712,302.300 153.037 C 302.025 152.759,301.440 152.025,301.000 151.405 C 300.560 150.785,299.928 149.988,299.595 149.634 C 299.262 149.279,298.550 148.362,298.014 147.595 C 297.477 146.828,296.714 145.909,296.319 145.553 C 295.924 145.197,295.600 144.729,295.600 144.512 C 295.600 144.296,295.060 143.554,294.400 142.863 C 293.740 142.172,293.200 141.419,293.200 141.189 C 293.200 140.959,292.831 140.373,292.380 139.886 C 291.116 138.521,288.023 134.243,288.011 133.844 C 287.970 132.499,286.598 132.558,285.568 133.948 C 284.976 134.747,280.314 140.620,275.207 147.000 C 270.101 153.380,264.725 160.110,263.261 161.955 C 261.798 163.800,259.610 166.518,258.400 167.995 C 257.190 169.472,255.721 171.292,255.134 172.040 C 253.228 174.473,230.782 202.576,230.081 203.408 C 229.707 203.852,228.908 204.872,228.306 205.673 C 227.704 206.475,226.982 207.371,226.700 207.665 C 226.419 207.959,225.561 209.009,224.794 209.999 C 220.009 216.171,214.699 222.611,214.121 222.941 C 213.191 223.473,212.791 222.755,212.350 219.758 C 212.126 218.241,211.781 216.010,211.583 214.800 C 211.385 213.590,210.867 210.350,210.432 207.600 C 209.997 204.850,209.367 200.980,209.032 199.000 C 208.393 195.214,206.725 184.958,205.001 174.200 C 204.436 170.680,203.449 164.560,202.807 160.600 C 202.165 156.640,201.271 151.060,200.819 148.200 C 200.367 145.340,199.647 140.930,199.219 138.400 C 198.791 135.870,198.079 131.550,197.639 128.800 C 195.553 115.785,195.115 113.073,194.380 108.600 C 193.663 104.235,191.716 92.158,189.640 79.200 C 185.047 50.529,183.143 39.016,182.964 38.833 C 182.874 38.742,182.800 38.877,182.800 39.133 " stroke="none" fill="#aacb82" fill-rule="evenodd"></path><path id="path1" d="M198.105 17.908 C 197.613 18.508,197.208 19.137,197.205 19.304 C 197.202 19.471,196.660 20.172,196.000 20.863 C 195.340 21.554,194.800 22.280,194.800 22.476 C 194.800 22.814,194.461 23.291,193.300 24.585 C 193.025 24.892,192.798 25.381,192.796 25.671 C 192.794 25.962,192.254 26.625,191.596 27.145 C 190.938 27.665,190.400 28.251,190.400 28.449 C 190.400 28.646,189.860 29.372,189.200 30.063 C 188.540 30.754,188.000 31.490,188.000 31.699 C 188.000 31.908,187.460 32.583,186.800 33.200 C 186.140 33.817,185.600 34.537,185.600 34.800 C 185.600 35.063,185.060 35.783,184.400 36.400 C 183.305 37.423,182.693 38.760,183.567 38.220 C 184.065 37.913,184.455 40.064,188.023 62.800 C 188.248 64.230,188.610 66.390,188.829 67.600 C 189.049 68.810,189.485 71.510,189.799 73.600 C 190.113 75.690,190.561 78.480,190.794 79.800 C 191.028 81.120,191.387 83.370,191.593 84.800 C 191.798 86.230,192.162 88.570,192.401 90.000 C 192.640 91.430,192.998 93.680,193.197 95.000 C 193.396 96.320,193.937 99.650,194.398 102.400 C 194.860 105.150,195.579 109.560,195.997 112.200 C 196.734 116.863,197.384 120.882,200.778 141.800 C 201.671 147.300,202.588 152.970,202.816 154.400 C 203.044 155.830,203.401 157.990,203.609 159.200 C 204.053 161.777,206.933 179.672,208.809 191.500 C 209.254 194.305,209.787 197.590,209.993 198.800 C 210.200 200.010,210.563 202.260,210.800 203.800 C 211.037 205.340,211.408 207.590,211.624 208.800 C 211.839 210.010,212.379 213.331,212.822 216.181 C 213.892 223.060,213.211 223.139,219.363 215.420 C 221.880 212.263,224.214 209.347,224.550 208.940 C 224.887 208.533,227.523 205.230,230.409 201.600 C 233.295 197.970,235.958 194.639,236.328 194.199 C 236.698 193.758,237.625 192.588,238.390 191.599 C 239.154 190.609,239.879 189.710,240.000 189.600 C 240.121 189.490,240.846 188.591,241.610 187.601 C 242.375 186.612,243.210 185.532,243.466 185.201 C 243.723 184.871,245.613 182.530,247.666 180.000 C 249.720 177.470,256.344 169.190,262.386 161.600 C 268.429 154.010,273.473 147.710,273.597 147.600 C 273.720 147.490,274.446 146.591,275.210 145.601 C 275.975 144.612,276.817 143.532,277.081 143.201 C 277.346 142.871,279.388 140.305,281.619 137.500 C 283.850 134.695,285.838 132.400,286.037 132.400 C 286.768 132.400,286.369 131.286,285.200 130.063 C 284.540 129.372,284.000 128.615,284.000 128.380 C 284.000 128.145,283.820 128.064,283.600 128.200 C 283.380 128.336,283.200 128.206,283.200 127.912 C 283.200 127.617,282.840 127.117,282.400 126.800 C 281.960 126.483,281.600 125.975,281.600 125.672 C 281.600 125.369,281.060 124.617,280.400 124.000 C 279.740 123.383,279.200 122.663,279.200 122.400 C 279.200 122.137,278.660 121.417,278.000 120.800 C 277.340 120.183,276.800 119.457,276.800 119.186 C 276.800 118.916,276.467 118.403,276.059 118.047 C 275.652 117.691,275.040 116.860,274.700 116.199 C 274.360 115.539,273.703 114.656,273.241 114.237 C 272.778 113.818,272.400 113.326,272.400 113.143 C 272.400 112.825,271.583 111.725,270.500 110.584 C 270.225 110.294,270.000 109.937,270.000 109.789 C 270.000 109.642,269.460 109.017,268.800 108.400 C 268.140 107.783,267.600 107.063,267.600 106.800 C 267.600 106.537,267.060 105.817,266.400 105.200 C 265.740 104.583,265.200 103.863,265.200 103.600 C 265.200 103.337,264.660 102.617,264.000 102.000 C 263.340 101.383,262.800 100.663,262.800 100.400 C 262.800 100.137,262.260 99.417,261.600 98.800 C 260.940 98.183,260.400 97.473,260.400 97.221 C 260.400 96.970,259.950 96.314,259.400 95.764 C 258.850 95.214,258.400 94.619,258.400 94.441 C 258.400 94.264,257.860 93.554,257.200 92.863 C 256.540 92.172,256.000 91.408,256.000 91.164 C 256.000 90.920,255.460 90.217,254.800 89.600 C 254.140 88.983,253.600 88.263,253.600 88.000 C 253.600 87.737,253.060 87.017,252.400 86.400 C 251.740 85.783,251.200 85.063,251.200 84.800 C 251.200 84.537,250.660 83.817,250.000 83.200 C 249.340 82.583,248.800 81.908,248.800 81.699 C 248.800 81.490,248.260 80.754,247.600 80.063 C 246.940 79.372,246.400 78.646,246.400 78.449 C 246.400 78.251,245.862 77.665,245.204 77.145 C 244.546 76.625,244.006 75.957,244.004 75.660 C 244.002 75.364,243.460 74.617,242.800 74.000 C 242.140 73.383,241.600 72.599,241.600 72.258 C 241.600 71.916,241.150 71.186,240.600 70.636 C 240.050 70.086,239.600 69.475,239.600 69.278 C 239.600 69.080,239.060 68.354,238.400 67.663 C 237.740 66.972,237.200 66.252,237.200 66.063 C 237.200 65.874,236.660 65.154,236.000 64.463 C 235.340 63.772,234.800 63.052,234.800 62.863 C 234.800 62.674,234.260 61.954,233.600 61.263 C 232.940 60.572,232.400 59.898,232.400 59.764 C 232.400 59.630,231.860 59.017,231.200 58.400 C 230.540 57.783,230.000 57.063,230.000 56.800 C 230.000 56.537,229.460 55.817,228.800 55.200 C 228.140 54.583,227.600 53.863,227.600 53.600 C 227.600 53.337,227.060 52.617,226.400 52.000 C 225.740 51.383,225.200 50.676,225.200 50.427 C 225.200 49.917,221.184 44.438,219.500 42.650 C 218.895 42.007,218.400 41.326,218.400 41.137 C 218.400 40.948,217.860 40.228,217.200 39.537 C 216.540 38.846,216.000 38.126,216.000 37.937 C 216.000 37.748,215.460 37.028,214.800 36.337 C 214.140 35.646,213.600 34.926,213.600 34.737 C 213.600 34.548,213.060 33.828,212.400 33.137 C 211.740 32.446,211.200 31.678,211.200 31.429 C 211.200 31.180,210.840 30.717,210.400 30.400 C 209.960 30.083,209.600 29.676,209.600 29.495 C 209.600 29.314,209.417 28.949,209.193 28.683 C 207.718 26.935,207.199 26.248,207.192 26.039 C 207.188 25.907,206.558 25.082,205.792 24.204 C 205.027 23.327,204.400 22.470,204.400 22.301 C 204.400 22.131,203.860 21.428,203.200 20.737 C 202.540 20.046,202.000 19.320,202.000 19.122 C 202.000 17.300,199.294 16.456,198.105 17.908 M153.300 77.798 C 153.025 78.111,152.800 78.465,152.800 78.587 C 152.800 78.708,152.260 79.372,151.600 80.063 C 150.940 80.754,150.400 81.474,150.400 81.663 C 150.400 81.852,149.860 82.572,149.200 83.263 C 148.540 83.954,148.000 84.680,148.000 84.878 C 148.000 85.075,147.550 85.686,147.000 86.236 C 146.450 86.786,146.000 87.389,146.000 87.576 C 146.000 87.763,145.460 88.493,144.800 89.200 C 144.140 89.907,143.600 90.753,143.600 91.082 C 143.600 91.410,143.060 92.183,142.400 92.800 C 141.740 93.417,141.200 94.030,141.200 94.164 C 141.200 94.298,140.660 94.972,140.000 95.663 C 139.340 96.354,138.800 97.074,138.800 97.263 C 138.800 97.452,138.260 98.172,137.600 98.863 C 136.940 99.554,136.400 100.274,136.400 100.463 C 136.400 100.652,135.860 101.372,135.200 102.063 C 134.540 102.754,134.000 103.474,134.000 103.663 C 134.000 103.852,133.460 104.572,132.800 105.263 C 132.140 105.954,131.600 106.680,131.600 106.878 C 131.600 107.075,131.147 107.690,130.592 108.244 C 130.038 108.798,129.707 109.465,129.856 109.726 C 130.006 109.987,129.985 110.071,129.810 109.913 C 129.490 109.624,127.200 112.208,127.200 112.859 C 127.200 113.050,126.660 113.772,126.000 114.463 C 125.340 115.154,124.800 115.874,124.800 116.063 C 124.800 116.252,124.260 116.972,123.600 117.663 C 122.940 118.354,122.400 119.090,122.400 119.299 C 122.400 119.508,121.860 120.183,121.200 120.800 C 120.540 121.417,120.000 122.137,120.000 122.400 C 120.000 122.663,119.460 123.383,118.800 124.000 C 118.140 124.617,117.600 125.327,117.600 125.579 C 117.600 125.830,117.195 126.456,116.700 126.968 C 115.567 128.141,114.847 129.032,113.605 130.800 C 113.064 131.570,112.287 132.560,111.877 133.000 C 111.467 133.440,110.851 134.340,110.507 135.000 C 110.163 135.660,109.548 136.491,109.141 136.847 C 108.733 137.203,108.400 137.716,108.400 137.986 C 108.400 138.257,107.860 138.983,107.200 139.600 C 106.540 140.217,106.000 140.937,106.000 141.200 C 106.000 141.463,105.460 142.183,104.800 142.800 C 104.140 143.417,103.600 144.027,103.600 144.156 C 103.600 144.389,102.665 145.600,101.700 146.616 C 101.425 146.906,101.200 147.296,101.200 147.483 C 101.200 147.670,100.840 148.083,100.400 148.400 C 99.960 148.717,99.600 149.172,99.600 149.410 C 99.600 149.649,98.970 150.531,98.200 151.372 C 97.430 152.213,96.800 153.030,96.800 153.188 C 96.800 153.346,96.339 153.999,95.777 154.638 C 95.214 155.277,94.467 156.340,94.117 157.000 C 93.768 157.660,93.148 158.491,92.741 158.847 C 92.333 159.203,92.000 159.621,92.000 159.775 C 92.000 159.930,91.775 160.294,91.500 160.584 C 90.445 161.696,89.600 162.822,89.600 163.116 C 89.600 163.285,89.240 163.683,88.800 164.000 C 88.360 164.317,88.000 164.807,88.000 165.088 C 88.000 165.370,87.820 165.600,87.600 165.600 C 87.380 165.600,87.200 165.782,87.200 166.004 C 87.200 166.226,86.660 166.972,86.000 167.663 C 85.340 168.354,84.800 169.080,84.800 169.278 C 84.800 169.475,84.364 170.072,83.831 170.605 C 83.298 171.138,82.746 171.940,82.604 172.387 C 82.462 172.834,82.178 173.200,81.973 173.200 C 81.306 173.200,81.580 174.419,82.300 174.651 C 83.494 175.038,91.331 178.058,92.660 178.644 C 93.354 178.950,94.046 179.200,94.200 179.200 C 94.354 179.200,95.046 179.453,95.740 179.763 C 96.433 180.073,98.890 181.049,101.200 181.933 C 103.510 182.816,107.560 184.376,110.200 185.400 C 112.840 186.425,117.790 188.342,121.200 189.662 C 124.610 190.982,127.805 192.228,128.300 192.431 C 128.795 192.634,129.605 192.965,130.100 193.166 C 130.595 193.367,134.240 194.786,138.200 196.319 C 155.802 203.133,165.466 206.886,166.300 207.229 C 168.146 207.990,169.123 208.373,174.200 210.329 C 177.060 211.430,184.350 214.252,190.400 216.600 C 196.450 218.947,202.120 221.141,203.000 221.475 C 203.880 221.809,205.476 222.429,206.547 222.854 L 208.495 223.626 208.296 222.513 C 208.133 221.600,205.081 213.367,197.650 193.800 C 197.232 192.700,196.528 190.810,196.085 189.600 C 195.642 188.390,194.722 185.915,194.040 184.100 C 193.358 182.285,192.260 179.360,191.600 177.600 C 190.940 175.840,189.868 173.005,189.218 171.300 C 188.569 169.595,186.846 164.960,185.391 161.000 C 183.936 157.040,182.020 151.910,181.133 149.600 C 180.247 147.290,179.179 144.455,178.761 143.300 C 177.094 138.699,176.307 136.564,175.998 135.800 C 175.441 134.427,173.748 129.968,172.201 125.800 C 169.476 118.460,158.361 88.670,156.367 83.364 C 155.285 80.484,154.400 77.919,154.400 77.664 C 154.400 77.043,153.913 77.102,153.300 77.798 M302.382 155.133 C 301.707 155.861,300.736 156.678,291.800 164.034 C 288.500 166.751,285.710 169.072,285.600 169.192 C 285.490 169.313,284.410 170.216,283.200 171.200 C 281.990 172.184,280.910 173.084,280.800 173.200 C 280.690 173.316,279.612 174.219,278.404 175.205 C 277.196 176.192,275.756 177.386,275.204 177.857 C 274.652 178.329,270.780 181.547,266.600 185.008 C 262.420 188.470,258.550 191.686,258.000 192.156 C 257.046 192.971,245.488 202.556,243.790 203.940 C 242.374 205.094,235.818 210.584,235.359 211.000 C 235.116 211.220,231.021 214.626,226.259 218.569 C 216.658 226.517,216.937 226.197,219.300 226.549 C 221.960 226.944,225.595 227.529,228.000 227.950 C 229.210 228.162,231.460 228.544,233.000 228.798 C 234.540 229.052,236.700 229.412,237.800 229.598 C 241.033 230.143,245.237 230.832,247.600 231.202 C 248.810 231.392,251.330 231.820,253.200 232.153 C 255.070 232.487,260.470 233.403,265.200 234.190 C 269.930 234.977,277.040 236.160,281.000 236.818 C 284.960 237.477,289.280 238.209,290.600 238.443 C 294.675 239.168,296.883 239.539,300.000 240.025 C 301.650 240.283,303.571 240.634,304.269 240.806 C 305.666 241.150,306.141 240.782,308.022 237.903 C 308.560 237.079,309.135 236.404,309.300 236.403 C 309.465 236.401,309.600 236.112,309.600 235.760 C 309.600 235.409,310.140 234.617,310.800 234.000 C 311.460 233.383,312.000 232.663,312.000 232.400 C 312.000 232.137,312.540 231.417,313.200 230.800 C 313.860 230.183,314.400 229.463,314.400 229.200 C 314.400 228.937,314.940 228.217,315.600 227.600 C 316.260 226.983,316.800 226.283,316.800 226.043 C 316.800 225.803,317.340 225.091,318.000 224.460 C 318.660 223.829,319.200 223.196,319.200 223.053 C 319.200 222.910,319.740 222.228,320.400 221.537 C 321.060 220.846,321.600 220.129,321.600 219.944 C 321.600 219.758,321.978 219.171,322.441 218.639 C 322.904 218.107,323.260 217.561,323.232 217.427 C 323.204 217.292,323.591 216.745,324.091 216.210 C 325.656 214.537,326.000 214.050,326.000 213.505 C 326.000 213.214,326.360 212.717,326.800 212.400 C 327.240 212.083,327.600 211.583,327.600 211.288 C 327.600 210.985,327.801 210.877,328.062 211.038 C 328.339 211.210,328.415 211.148,328.252 210.885 C 328.103 210.643,328.615 209.811,329.391 209.036 C 330.166 208.261,330.800 207.529,330.800 207.410 C 330.800 207.290,331.340 206.628,332.000 205.937 C 332.660 205.246,333.200 204.526,333.200 204.337 C 333.200 204.148,333.740 203.428,334.400 202.737 C 335.060 202.046,335.600 201.238,335.600 200.941 C 335.600 200.643,335.780 200.400,336.000 200.400 C 336.220 200.400,336.400 199.860,336.400 199.200 C 336.400 198.540,336.220 198.000,336.000 198.000 C 335.780 198.000,335.600 197.822,335.600 197.605 C 335.600 197.233,334.840 196.185,333.700 194.984 C 333.425 194.694,333.200 194.337,333.200 194.189 C 333.200 194.042,332.660 193.417,332.000 192.800 C 331.340 192.183,330.800 191.463,330.800 191.200 C 330.800 190.937,330.260 190.217,329.600 189.600 C 328.940 188.983,328.400 188.263,328.400 188.000 C 328.400 187.737,327.860 187.017,327.200 186.400 C 326.540 185.783,326.000 185.074,326.000 184.823 C 326.000 184.572,325.775 184.098,325.500 183.769 C 325.225 183.441,324.814 182.953,324.587 182.686 C 324.360 182.419,323.732 181.570,323.193 180.800 C 321.957 179.037,321.237 178.144,320.100 176.968 C 319.605 176.456,319.200 175.875,319.200 175.678 C 319.200 175.480,318.660 174.754,318.000 174.063 C 317.340 173.372,316.800 172.608,316.800 172.364 C 316.800 172.120,316.260 171.417,315.600 170.800 C 314.940 170.183,314.400 169.508,314.400 169.299 C 314.400 169.090,313.860 168.354,313.200 167.663 C 312.540 166.972,312.000 166.252,312.000 166.063 C 312.000 165.874,311.460 165.154,310.800 164.463 C 310.140 163.772,309.600 163.015,309.600 162.780 C 309.600 162.545,309.420 162.464,309.200 162.600 C 308.980 162.736,308.800 162.548,308.800 162.181 C 308.800 161.551,307.796 160.092,306.003 158.114 C 305.561 157.627,305.200 157.087,305.200 156.914 C 305.199 156.566,303.397 154.381,303.153 154.433 C 303.069 154.452,302.722 154.767,302.382 155.133 M66.800 205.466 C 66.800 205.662,67.160 206.083,67.600 206.400 C 68.040 206.717,68.400 207.135,68.400 207.328 C 68.400 207.521,68.940 208.183,69.600 208.800 C 70.260 209.417,70.800 210.137,70.800 210.400 C 70.800 210.663,71.340 211.383,72.000 212.000 C 72.660 212.617,73.200 213.337,73.200 213.600 C 73.200 213.863,73.740 214.583,74.400 215.200 C 75.060 215.817,75.600 216.543,75.600 216.814 C 75.600 217.084,75.932 217.597,76.339 217.953 C 76.745 218.309,77.330 219.071,77.639 219.647 C 78.278 220.841,80.170 223.316,81.500 224.700 C 81.995 225.215,82.400 225.781,82.400 225.959 C 82.400 226.136,82.940 226.846,83.600 227.537 C 84.260 228.228,84.800 228.948,84.800 229.137 C 84.800 229.326,85.340 230.046,86.000 230.737 C 86.660 231.428,87.200 232.192,87.200 232.436 C 87.200 232.680,87.740 233.383,88.400 234.000 C 89.060 234.617,89.600 235.292,89.600 235.501 C 89.600 235.710,90.140 236.446,90.800 237.137 C 91.460 237.828,92.000 238.529,92.001 238.696 C 92.001 238.863,92.541 239.630,93.200 240.400 C 93.859 241.170,94.399 241.927,94.399 242.082 C 94.400 242.237,94.850 242.814,95.400 243.364 C 95.950 243.914,96.400 244.525,96.400 244.722 C 96.400 244.920,96.940 245.646,97.600 246.337 C 98.260 247.028,98.800 247.748,98.800 247.937 C 98.800 248.126,99.340 248.846,100.000 249.537 C 100.660 250.228,101.200 250.948,101.200 251.137 C 101.200 251.326,101.740 252.046,102.400 252.737 C 103.060 253.428,103.600 254.148,103.600 254.337 C 103.600 254.526,104.140 255.246,104.800 255.937 C 105.460 256.628,106.000 257.302,106.000 257.436 C 106.000 257.570,106.540 258.183,107.200 258.800 C 107.860 259.417,108.400 260.143,108.400 260.414 C 108.400 260.684,108.723 261.197,109.117 261.553 C 109.512 261.909,110.367 263.055,111.017 264.099 C 111.668 265.144,112.335 265.999,112.500 265.999 C 112.665 266.000,112.800 266.243,112.800 266.541 C 112.800 266.838,113.340 267.646,114.000 268.337 C 114.660 269.028,115.200 269.748,115.200 269.937 C 115.200 270.126,115.740 270.846,116.400 271.537 C 117.060 272.228,117.600 272.910,117.600 273.053 C 117.600 273.196,118.140 273.829,118.800 274.460 C 119.460 275.091,120.000 275.803,120.000 276.043 C 120.000 276.283,120.540 276.983,121.200 277.600 C 121.860 278.217,122.400 278.937,122.400 279.200 C 122.400 279.463,122.940 280.183,123.600 280.800 C 124.260 281.417,124.800 282.137,124.800 282.400 C 124.800 282.663,125.340 283.383,126.000 284.000 C 126.660 284.617,127.200 285.377,127.200 285.691 C 127.200 286.004,127.650 286.683,128.200 287.200 C 128.750 287.717,129.200 288.344,129.200 288.595 C 129.200 288.845,129.740 289.568,130.400 290.200 C 131.060 290.832,131.614 291.631,131.632 291.975 C 131.655 292.435,131.719 292.459,131.876 292.066 C 131.993 291.773,135.894 288.375,140.545 284.515 C 145.195 280.656,149.450 277.115,150.000 276.648 C 150.550 276.180,154.330 273.032,158.400 269.653 C 162.470 266.274,166.252 263.124,166.804 262.654 C 167.356 262.185,168.793 260.990,169.998 260.000 C 171.202 259.010,172.550 257.898,172.994 257.529 C 173.437 257.160,177.310 253.941,181.600 250.377 C 185.890 246.812,190.390 243.044,191.600 242.004 C 192.810 240.964,196.940 237.522,200.779 234.356 L 207.757 228.600 205.979 228.304 C 205.000 228.142,203.120 227.834,201.800 227.622 C 200.480 227.409,198.230 227.031,196.800 226.780 C 193.576 226.217,190.964 225.784,187.600 225.255 C 186.170 225.031,183.965 224.656,182.700 224.423 C 181.435 224.191,179.365 223.809,178.100 223.577 C 176.835 223.344,174.720 222.992,173.400 222.794 C 169.786 222.253,168.036 221.963,143.600 217.844 C 131.170 215.749,118.300 213.586,115.000 213.038 C 104.417 211.280,103.833 211.182,101.800 210.810 C 100.700 210.609,98.450 210.241,96.800 209.992 C 95.150 209.743,93.080 209.384,92.200 209.195 C 91.320 209.007,89.160 208.649,87.400 208.400 C 85.640 208.151,83.480 207.793,82.600 207.605 C 81.720 207.416,79.650 207.052,78.000 206.797 C 76.350 206.541,74.190 206.173,73.200 205.979 C 70.011 205.354,66.800 205.097,66.800 205.466 M216.400 231.578 C 216.400 231.786,217.408 234.621,218.641 237.878 C 221.957 246.642,223.235 250.084,223.588 251.200 C 223.870 252.092,225.536 256.478,226.399 258.600 C 227.072 260.257,229.275 266.132,232.999 276.200 C 235.115 281.920,237.303 287.770,237.861 289.200 C 238.420 290.630,239.139 292.610,239.459 293.600 C 239.779 294.590,240.211 295.805,240.420 296.300 C 241.086 297.878,241.502 298.945,242.329 301.200 C 243.805 305.224,246.429 312.174,247.220 314.153 C 247.649 315.228,248.000 316.443,248.000 316.853 C 248.000 317.935,248.577 317.769,249.232 316.500 C 249.545 315.895,250.205 314.987,250.700 314.482 C 251.195 313.977,251.600 313.400,251.600 313.200 C 251.600 313.000,252.027 312.409,252.549 311.888 C 253.071 311.366,253.707 310.548,253.963 310.070 C 254.218 309.592,254.795 308.796,255.243 308.300 C 256.987 306.375,258.800 303.902,258.800 303.450 C 258.800 303.190,259.160 302.717,259.600 302.400 C 260.040 302.083,260.400 301.620,260.400 301.371 C 260.400 301.122,260.940 300.354,261.600 299.663 C 262.260 298.972,262.800 298.252,262.800 298.063 C 262.800 297.874,263.340 297.154,264.000 296.463 C 264.660 295.772,265.200 295.008,265.200 294.764 C 265.200 294.520,265.740 293.817,266.400 293.200 C 267.060 292.583,267.600 291.961,267.600 291.818 C 267.600 291.674,268.139 290.981,268.798 290.278 C 269.457 289.575,269.997 288.863,269.998 288.696 C 269.999 288.529,270.540 287.828,271.200 287.137 C 271.860 286.446,272.400 285.726,272.400 285.537 C 272.400 285.348,272.940 284.628,273.600 283.937 C 274.260 283.246,274.800 282.446,274.800 282.159 C 274.800 281.871,275.250 281.186,275.800 280.636 C 276.350 280.086,276.800 279.430,276.800 279.179 C 276.800 278.927,277.340 278.217,278.000 277.600 C 278.660 276.983,279.200 276.203,279.200 275.866 C 279.200 275.530,279.531 275.149,279.936 275.020 C 280.341 274.892,280.926 274.298,281.236 273.700 C 281.546 273.103,282.295 272.089,282.900 271.448 C 283.505 270.806,284.000 270.126,284.000 269.937 C 284.000 269.748,284.540 269.028,285.200 268.337 C 285.860 267.646,286.400 266.926,286.400 266.737 C 286.400 266.548,286.940 265.828,287.600 265.137 C 288.260 264.446,288.800 263.726,288.800 263.537 C 288.800 263.348,289.340 262.628,290.000 261.937 C 291.437 260.433,291.535 259.600,290.275 259.600 C 289.766 259.600,288.605 259.240,287.694 258.800 C 286.784 258.360,285.848 258.000,285.614 258.000 C 285.380 258.000,284.877 257.841,284.495 257.647 C 283.457 257.119,282.304 256.655,276.600 254.468 C 262.443 249.041,253.236 245.452,251.704 244.763 C 250.772 244.343,249.824 244.000,249.599 244.000 C 249.374 244.000,248.877 243.841,248.495 243.647 C 247.526 243.154,246.552 242.763,240.400 240.400 C 237.430 239.259,234.640 238.176,234.200 237.993 C 225.439 234.346,216.400 231.089,216.400 231.578 M202.800 242.707 C 198.510 248.104,194.817 252.717,194.594 252.960 C 194.371 253.202,193.566 254.210,192.805 255.200 C 192.043 256.190,191.321 257.090,191.200 257.200 C 191.079 257.310,190.354 258.209,189.590 259.199 C 188.825 260.188,187.902 261.358,187.537 261.799 C 187.173 262.239,184.508 265.570,181.615 269.200 C 178.723 272.830,176.136 276.070,175.868 276.400 C 175.599 276.730,169.275 284.650,161.813 294.000 C 154.352 303.350,148.012 311.238,147.724 311.529 C 147.102 312.156,147.039 312.800,147.600 312.800 C 147.820 312.800,148.000 313.088,148.000 313.440 C 148.000 313.791,148.540 314.583,149.200 315.200 C 149.860 315.817,150.400 316.537,150.400 316.800 C 150.400 317.063,150.940 317.783,151.600 318.400 C 152.260 319.017,152.800 319.737,152.800 320.000 C 152.800 320.263,153.295 320.956,153.900 321.540 C 154.505 322.123,155.254 323.092,155.564 323.693 C 155.874 324.295,156.459 324.892,156.864 325.020 C 157.269 325.149,157.600 325.530,157.600 325.866 C 157.600 326.203,158.140 326.983,158.800 327.600 C 159.460 328.217,160.000 329.001,160.000 329.342 C 160.000 329.684,160.450 330.414,161.000 330.964 C 161.550 331.514,162.000 332.125,162.000 332.322 C 162.000 332.520,162.540 333.246,163.200 333.937 C 163.860 334.628,164.400 335.348,164.400 335.537 C 164.400 335.726,164.940 336.446,165.600 337.137 C 166.260 337.828,166.800 338.529,166.800 338.696 C 166.801 339.242,168.674 341.193,168.940 340.926 C 169.083 340.783,169.200 341.017,169.200 341.445 C 169.200 341.873,169.560 342.483,170.000 342.800 C 170.440 343.117,170.800 343.580,170.800 343.829 C 170.800 344.078,171.340 344.846,172.000 345.537 C 172.660 346.228,173.200 346.948,173.200 347.137 C 173.200 347.326,173.740 348.046,174.400 348.737 C 175.060 349.428,175.600 350.174,175.600 350.396 C 175.600 350.618,175.780 350.800,176.000 350.800 C 176.220 350.800,176.400 351.055,176.400 351.367 C 176.400 351.678,176.535 351.993,176.700 352.067 C 176.865 352.140,177.500 352.969,178.112 353.909 C 179.365 355.836,180.112 356.797,181.700 358.523 C 182.305 359.181,182.800 359.853,182.800 360.017 C 182.800 360.181,183.340 360.893,184.000 361.600 C 184.660 362.307,185.200 363.037,185.200 363.224 C 185.200 363.411,185.650 364.014,186.200 364.564 C 186.750 365.114,187.200 365.725,187.200 365.922 C 187.200 366.120,187.740 366.846,188.400 367.537 C 189.060 368.228,189.600 368.974,189.600 369.196 C 189.600 369.418,189.780 369.600,190.000 369.600 C 190.220 369.600,190.400 369.830,190.400 370.112 C 190.400 370.393,190.760 370.883,191.200 371.200 C 191.640 371.517,192.000 371.992,192.000 372.255 C 192.000 372.518,192.145 372.793,192.323 372.867 C 192.501 372.940,193.202 373.810,193.881 374.800 C 194.560 375.790,195.494 377.033,195.958 377.561 C 196.421 378.090,196.800 378.656,196.800 378.819 C 196.800 379.326,199.095 381.600,199.607 381.600 C 200.157 381.600,202.800 378.843,202.800 378.269 C 202.800 378.063,203.120 377.603,203.512 377.247 C 204.323 376.511,208.395 371.095,209.240 369.630 C 209.548 369.096,210.295 368.124,210.900 367.470 C 211.505 366.816,212.000 366.126,212.000 365.937 C 212.000 365.748,212.540 365.028,213.200 364.337 C 213.860 363.646,214.400 362.878,214.400 362.629 C 214.400 362.380,214.760 361.917,215.200 361.600 C 215.640 361.283,216.003 360.658,216.006 360.212 C 216.011 359.541,216.080 359.504,216.400 360.000 C 216.721 360.497,216.789 360.462,216.794 359.796 C 216.797 359.354,217.160 358.768,217.600 358.493 C 218.040 358.218,218.400 357.791,218.400 357.544 C 218.400 357.296,218.724 356.803,219.119 356.447 C 219.514 356.091,220.271 355.170,220.800 354.400 C 221.329 353.630,221.869 352.910,222.000 352.800 C 222.131 352.690,222.674 351.970,223.206 351.200 C 223.738 350.430,224.360 349.581,224.587 349.314 C 224.814 349.047,225.225 348.559,225.500 348.231 C 225.775 347.902,226.000 347.428,226.000 347.177 C 226.000 346.926,226.540 346.217,227.200 345.600 C 227.860 344.983,228.400 344.206,228.400 343.873 C 228.400 343.539,228.618 343.194,228.885 343.105 C 229.262 342.979,229.265 342.593,228.896 341.363 C 228.636 340.494,228.244 338.617,228.025 337.191 C 227.627 334.594,227.048 330.912,226.391 326.800 C 226.198 325.590,225.847 323.520,225.611 322.200 C 225.374 320.880,225.018 318.630,224.820 317.200 C 224.621 315.770,224.183 313.070,223.847 311.200 C 223.510 309.330,222.054 300.420,220.612 291.400 C 217.933 274.650,217.277 270.576,215.171 257.600 C 214.511 253.530,213.614 247.950,213.177 245.200 C 212.741 242.450,212.208 239.225,211.992 238.033 C 211.776 236.842,211.600 235.379,211.600 234.782 C 211.600 231.946,210.735 232.725,202.800 242.707 " stroke="none" fill="#549404" fill-rule="evenodd"></path><path id="path2" d="M183.527 38.206 C 183.413 38.320,183.536 39.265,183.799 40.306 C 184.062 41.348,185.880 52.190,187.839 64.400 C 189.798 76.610,191.458 86.191,191.529 85.691 C 191.600 85.191,191.366 83.121,191.009 81.091 C 190.652 79.061,190.105 75.690,189.794 73.600 C 189.483 71.510,189.049 68.810,188.829 67.600 C 188.610 66.390,188.246 64.230,188.020 62.800 C 184.138 38.229,184.040 37.694,183.527 38.206 M154.580 78.600 C 154.743 79.040,155.654 81.470,156.603 84.000 C 158.601 89.325,170.006 119.889,172.201 125.800 C 173.748 129.968,175.441 134.427,175.998 135.800 C 176.307 136.564,177.094 138.699,178.761 143.300 C 179.179 144.455,180.247 147.290,181.133 149.600 C 182.020 151.910,183.936 157.040,185.391 161.000 C 186.846 164.960,188.569 169.595,189.218 171.300 C 189.868 173.005,190.940 175.840,191.600 177.600 C 192.260 179.360,193.358 182.285,194.040 184.100 C 194.722 185.915,195.638 188.390,196.076 189.600 C 196.515 190.810,197.120 192.430,197.423 193.200 C 197.725 193.970,200.159 200.450,202.832 207.600 C 207.372 219.747,208.357 222.216,208.388 221.522 C 208.395 221.370,205.143 212.550,201.162 201.922 C 197.181 191.295,191.945 177.290,189.526 170.800 C 187.107 164.310,179.403 143.700,172.406 125.000 C 165.409 106.300,158.655 88.210,157.399 84.800 C 156.142 81.390,154.927 78.420,154.698 78.200 C 154.413 77.925,154.376 78.051,154.580 78.600 M191.666 87.600 C 191.641 89.100,193.105 96.786,193.156 95.424 C 193.198 94.310,192.695 91.084,191.999 88.000 C 191.759 86.940,191.679 86.843,191.666 87.600 M193.371 98.600 C 193.521 99.700,194.172 103.840,194.817 107.800 C 195.462 111.760,196.716 119.500,197.604 125.000 C 198.491 130.500,199.934 139.410,200.809 144.800 C 208.339 191.194,213.200 221.471,213.200 221.981 C 213.200 223.515,217.895 217.872,249.038 178.911 C 268.157 154.992,284.406 134.742,285.147 133.911 C 285.887 133.080,286.309 132.400,286.084 132.400 C 285.859 132.400,283.850 134.695,281.619 137.500 C 279.388 140.305,277.346 142.871,277.081 143.201 C 276.817 143.532,275.975 144.612,275.210 145.601 C 274.446 146.591,273.720 147.490,273.597 147.600 C 273.473 147.710,268.429 154.010,262.386 161.600 C 256.344 169.190,249.720 177.470,247.666 180.000 C 245.613 182.530,243.723 184.871,243.466 185.201 C 243.210 185.532,242.375 186.612,241.610 187.601 C 240.846 188.591,240.121 189.490,240.000 189.600 C 239.879 189.710,239.154 190.609,238.390 191.599 C 237.625 192.588,236.698 193.758,236.328 194.199 C 235.958 194.639,233.295 197.970,230.409 201.600 C 227.523 205.230,224.887 208.533,224.550 208.940 C 224.214 209.347,221.880 212.263,219.363 215.420 C 213.211 223.139,213.892 223.060,212.822 216.181 C 212.379 213.331,211.839 210.010,211.624 208.800 C 211.408 207.590,211.037 205.340,210.800 203.800 C 210.563 202.260,210.200 200.010,209.993 198.800 C 209.787 197.590,209.254 194.305,208.809 191.500 C 206.933 179.672,204.053 161.777,203.609 159.200 C 203.401 157.990,203.044 155.830,202.816 154.400 C 202.588 152.970,201.671 147.300,200.778 141.800 C 197.387 120.902,196.735 116.863,195.997 112.200 C 194.074 100.046,193.549 97.017,193.331 96.816 C 193.203 96.697,193.220 97.500,193.371 98.600 M291.930 163.360 C 286.061 168.222,281.246 172.352,281.230 172.537 C 281.206 172.808,284.828 170.036,285.600 169.192 C 285.710 169.072,288.500 166.751,291.800 164.034 C 295.100 161.318,298.681 158.354,299.758 157.449 C 300.834 156.544,302.004 155.593,302.357 155.335 C 302.710 155.077,302.909 154.788,302.799 154.693 C 302.690 154.598,297.798 158.498,291.930 163.360 M272.288 179.786 C 267.717 183.576,263.575 187.019,263.085 187.438 C 262.594 187.857,258.009 191.680,252.896 195.933 C 247.783 200.187,243.600 203.769,243.600 203.895 C 243.600 204.021,243.915 203.858,244.300 203.532 C 244.685 203.207,247.700 200.705,251.000 197.972 C 254.300 195.240,257.450 192.621,258.000 192.153 C 258.550 191.685,262.420 188.470,266.600 185.008 C 270.780 181.547,274.652 178.329,275.204 177.857 C 276.150 177.049,280.406 173.577,280.767 173.319 C 280.858 173.254,280.858 173.132,280.767 173.048 C 280.675 172.964,276.860 175.996,272.288 179.786 M82.800 174.915 C 82.800 175.191,88.059 177.274,88.257 177.076 C 88.344 176.989,87.468 176.548,86.308 176.097 C 85.149 175.647,83.885 175.151,83.500 174.996 C 83.115 174.841,82.800 174.805,82.800 174.915 M94.358 179.608 C 95.325 180.053,96.205 180.328,96.314 180.220 C 96.521 180.012,95.286 179.481,93.600 179.053 C 93.050 178.913,93.391 179.163,94.358 179.608 M97.200 180.800 C 97.530 181.013,98.070 181.188,98.400 181.188 C 98.933 181.188,98.933 181.145,98.400 180.800 C 98.070 180.587,97.530 180.412,97.200 180.412 C 96.667 180.412,96.667 180.455,97.200 180.800 M103.200 182.901 C 103.513 183.258,112.845 186.888,113.015 186.719 C 113.098 186.636,111.238 185.816,108.883 184.898 C 103.641 182.855,102.945 182.610,103.200 182.901 M115.633 187.736 C 115.960 188.105,126.079 192.054,126.253 191.880 C 126.331 191.802,124.281 190.904,121.698 189.883 C 116.002 187.635,115.334 187.398,115.633 187.736 M132.800 194.568 C 135.196 195.588,137.117 196.222,136.800 195.890 C 136.484 195.558,131.510 193.598,131.031 193.616 C 130.794 193.625,131.590 194.054,132.800 194.568 M142.758 198.437 C 143.725 198.866,144.588 199.145,144.675 199.058 C 144.848 198.886,141.765 197.582,141.292 197.628 C 141.131 197.644,141.791 198.008,142.758 198.437 M146.600 200.000 C 147.480 200.407,148.470 200.741,148.800 200.741 C 149.130 200.741,148.680 200.407,147.800 200.000 C 146.920 199.593,145.930 199.259,145.600 199.259 C 145.270 199.259,145.720 199.593,146.600 200.000 M151.600 201.700 C 151.911 202.054,164.080 206.854,164.246 206.688 C 164.327 206.607,161.829 205.525,158.696 204.284 C 152.104 201.673,151.328 201.391,151.600 201.700 M234.559 211.142 C 229.916 215.024,224.260 219.730,221.989 221.600 C 217.195 225.547,216.688 226.022,216.971 226.304 C 217.086 226.419,217.499 226.142,217.890 225.689 C 218.280 225.235,222.020 222.040,226.200 218.589 C 230.380 215.138,234.254 211.929,234.808 211.457 C 236.210 210.265,242.963 204.657,243.167 204.516 C 243.258 204.452,243.258 204.329,243.167 204.242 C 243.075 204.155,239.202 207.260,234.559 211.142 M68.400 205.200 C 68.950 205.376,69.850 205.520,70.400 205.520 L 71.400 205.520 70.400 205.200 C 69.850 205.024,68.950 204.880,68.400 204.880 L 67.400 204.880 68.400 205.200 M73.200 206.000 C 73.750 206.176,74.740 206.317,75.400 206.313 L 76.600 206.305 75.400 206.000 C 74.740 205.832,73.750 205.691,73.200 205.687 L 72.200 205.680 73.200 206.000 M78.000 206.800 C 78.550 206.976,79.540 207.117,80.200 207.113 L 81.400 207.105 80.200 206.800 C 79.540 206.632,78.550 206.491,78.000 206.487 L 77.000 206.480 78.000 206.800 M82.600 207.600 C 83.040 207.789,83.940 207.935,84.600 207.925 L 85.800 207.905 84.600 207.600 C 83.940 207.432,83.040 207.286,82.600 207.275 L 81.800 207.256 82.600 207.600 M87.400 208.400 C 88.060 208.568,89.140 208.706,89.800 208.707 C 90.809 208.708,90.745 208.655,89.400 208.377 C 87.374 207.958,85.737 207.977,87.400 208.400 M171.551 209.636 C 173.174 210.294,174.570 210.763,174.653 210.680 C 174.835 210.499,169.551 208.391,168.990 208.421 C 168.776 208.432,169.928 208.979,171.551 209.636 M92.200 209.190 C 92.964 209.528,95.514 209.757,95.167 209.456 C 95.075 209.376,94.190 209.204,93.200 209.073 C 91.998 208.914,91.666 208.953,92.200 209.190 M96.800 210.000 C 97.350 210.176,98.340 210.317,99.000 210.313 L 100.200 210.305 99.000 210.000 C 98.340 209.832,97.350 209.691,96.800 209.687 L 95.800 209.680 96.800 210.000 M101.800 210.797 C 102.564 211.128,105.514 211.355,105.167 211.056 C 105.075 210.977,104.100 210.809,103.000 210.682 C 101.713 210.533,101.285 210.574,101.800 210.797 M106.400 211.600 C 106.950 211.776,107.940 211.917,108.600 211.913 L 109.800 211.905 108.600 211.600 C 107.940 211.432,106.950 211.291,106.400 211.287 L 105.400 211.280 106.400 211.600 M112.900 212.676 C 113.285 212.776,113.915 212.776,114.300 212.676 C 114.685 212.575,114.370 212.493,113.600 212.493 C 112.830 212.493,112.515 212.575,112.900 212.676 M179.255 212.589 C 179.589 212.922,184.897 214.837,185.053 214.680 C 185.137 214.597,183.984 214.049,182.493 213.464 C 179.934 212.460,178.828 212.161,179.255 212.589 M116.200 213.200 C 116.860 213.368,117.940 213.506,118.600 213.507 C 119.609 213.508,119.545 213.455,118.200 213.177 C 116.174 212.758,114.537 212.777,116.200 213.200 M122.100 214.276 C 122.485 214.376,123.115 214.376,123.500 214.276 C 123.885 214.175,123.570 214.093,122.800 214.093 C 122.030 214.093,121.715 214.175,122.100 214.276 M127.200 215.038 C 128.850 215.341,130.380 215.530,130.600 215.457 C 131.092 215.294,126.031 214.383,124.967 214.443 C 124.545 214.467,125.550 214.735,127.200 215.038 M132.600 216.023 C 134.626 216.442,136.263 216.423,134.600 216.000 C 133.940 215.832,132.860 215.694,132.200 215.693 C 131.191 215.692,131.255 215.745,132.600 216.023 M136.500 216.676 C 136.885 216.776,137.515 216.776,137.900 216.676 C 138.285 216.575,137.970 216.493,137.200 216.493 C 136.430 216.493,136.115 216.575,136.500 216.676 M189.600 216.500 C 189.911 216.855,200.080 220.853,200.247 220.686 C 200.329 220.605,198.281 219.704,195.698 218.683 C 190.111 216.477,189.336 216.200,189.600 216.500 M142.200 217.600 C 142.860 217.768,143.850 217.905,144.400 217.905 C 145.292 217.905,145.270 217.872,144.200 217.600 C 143.540 217.432,142.550 217.295,142.000 217.295 C 141.108 217.295,141.130 217.328,142.200 217.600 M147.000 218.423 C 149.026 218.842,150.663 218.823,149.000 218.400 C 148.340 218.232,147.260 218.094,146.600 218.093 C 145.591 218.092,145.655 218.145,147.000 218.423 M151.800 219.200 C 152.460 219.368,153.450 219.505,154.000 219.505 C 154.892 219.505,154.870 219.472,153.800 219.200 C 153.140 219.032,152.150 218.895,151.600 218.895 C 150.708 218.895,150.730 218.928,151.800 219.200 M156.600 220.000 C 157.260 220.168,158.250 220.305,158.800 220.305 C 159.692 220.305,159.670 220.272,158.600 220.000 C 157.940 219.832,156.950 219.695,156.400 219.695 C 155.508 219.695,155.530 219.728,156.600 220.000 M161.400 220.823 C 163.426 221.242,165.063 221.223,163.400 220.800 C 162.740 220.632,161.660 220.494,161.000 220.493 C 159.991 220.492,160.055 220.545,161.400 220.823 M204.701 222.489 C 209.008 224.215,209.465 224.241,208.966 222.730 C 208.659 221.801,208.659 221.801,208.429 222.666 C 208.201 223.528,208.184 223.525,204.823 222.166 C 202.965 221.415,201.255 220.810,201.023 220.822 C 200.790 220.835,202.445 221.585,204.701 222.489 M166.000 221.600 C 166.550 221.776,167.540 221.917,168.200 221.913 L 169.400 221.905 168.200 221.600 C 167.540 221.432,166.550 221.291,166.000 221.287 L 165.000 221.280 166.000 221.600 M170.800 222.400 C 171.350 222.576,172.250 222.720,172.800 222.720 L 173.800 222.720 172.800 222.400 C 172.250 222.224,171.350 222.080,170.800 222.080 L 169.800 222.080 170.800 222.400 M176.000 223.200 C 176.550 223.376,177.450 223.517,178.000 223.513 C 178.898 223.506,178.878 223.474,177.800 223.200 C 176.108 222.769,174.656 222.769,176.000 223.200 M180.400 224.000 C 180.950 224.176,181.850 224.317,182.400 224.313 C 183.298 224.306,183.278 224.274,182.200 224.000 C 180.508 223.569,179.056 223.569,180.400 224.000 M184.800 224.787 C 185.791 225.117,188.687 225.335,188.367 225.054 C 188.275 224.974,187.210 224.806,186.000 224.681 C 184.580 224.534,184.154 224.571,184.800 224.787 M189.800 225.600 C 190.240 225.789,191.140 225.935,191.800 225.925 L 193.000 225.905 191.800 225.600 C 191.140 225.432,190.240 225.286,189.800 225.275 L 189.000 225.256 189.800 225.600 M194.600 226.390 C 195.364 226.728,197.914 226.957,197.567 226.656 C 197.475 226.576,196.590 226.404,195.600 226.273 C 194.398 226.114,194.066 226.153,194.600 226.390 M218.033 226.544 C 218.125 226.624,219.010 226.796,220.000 226.927 C 221.202 227.086,221.534 227.047,221.000 226.810 C 220.236 226.472,217.686 226.243,218.033 226.544 M199.200 227.200 C 199.750 227.376,200.830 227.517,201.600 227.514 L 203.000 227.508 201.400 227.177 C 199.263 226.735,197.796 226.750,199.200 227.200 M223.800 227.600 C 224.460 227.768,225.450 227.909,226.000 227.913 L 227.000 227.920 226.000 227.600 C 225.450 227.424,224.460 227.283,223.800 227.287 L 222.600 227.295 223.800 227.600 M204.200 227.990 C 204.964 228.328,207.514 228.557,207.167 228.256 C 207.075 228.176,206.190 228.004,205.200 227.873 C 203.998 227.714,203.666 227.753,204.200 227.990 M227.633 228.144 C 227.725 228.224,228.610 228.396,229.600 228.527 C 230.802 228.686,231.134 228.647,230.600 228.410 C 229.836 228.072,227.286 227.843,227.633 228.144 M200.761 234.328 C 196.889 237.557,192.749 241.030,191.561 242.044 C 189.743 243.595,184.965 247.580,172.190 258.200 C 171.132 259.080,169.672 260.250,168.947 260.800 C 168.222 261.350,167.623 261.966,167.615 262.170 C 167.607 262.373,168.005 262.174,168.500 261.727 C 168.995 261.281,177.975 253.795,188.455 245.093 C 204.870 231.462,208.588 228.279,207.924 228.428 C 207.856 228.443,204.632 231.098,200.761 234.328 M233.400 229.200 C 234.060 229.368,235.050 229.505,235.600 229.505 C 236.492 229.505,236.470 229.472,235.400 229.200 C 234.740 229.032,233.750 228.895,233.200 228.895 C 232.308 228.895,232.330 228.928,233.400 229.200 M237.633 229.747 C 237.725 229.828,238.520 230.004,239.400 230.138 C 240.515 230.307,240.758 230.271,240.200 230.019 C 239.432 229.671,237.290 229.444,237.633 229.747 M242.800 230.800 C 243.350 230.976,244.340 231.117,245.000 231.113 L 246.200 231.105 245.000 230.800 C 244.340 230.632,243.350 230.491,242.800 230.487 L 241.800 230.480 242.800 230.800 M216.587 233.500 C 217.475 236.053,221.763 247.565,227.129 261.800 C 228.456 265.320,231.549 273.600,234.002 280.200 C 242.539 303.166,247.299 315.804,247.636 316.400 C 248.264 317.509,248.007 316.124,247.220 314.153 C 246.429 312.174,243.805 305.224,242.329 301.200 C 241.502 298.945,241.086 297.878,240.420 296.300 C 240.211 295.805,239.779 294.590,239.459 293.600 C 239.139 292.610,238.420 290.630,237.861 289.200 C 237.303 287.770,235.115 281.920,232.999 276.200 C 229.308 266.220,227.091 260.307,226.400 258.600 C 225.980 257.563,223.728 251.570,222.792 249.000 C 222.392 247.900,221.349 245.110,220.476 242.800 C 216.725 232.878,216.275 231.592,216.482 231.385 C 216.602 231.265,218.545 231.902,220.800 232.800 C 223.055 233.698,224.967 234.366,225.050 234.283 C 225.251 234.083,216.914 230.800,216.204 230.800 C 215.767 230.800,215.849 231.378,216.587 233.500 M248.200 231.600 C 249.892 232.031,251.344 232.031,250.000 231.600 C 249.450 231.424,248.550 231.283,248.000 231.287 C 247.102 231.294,247.122 231.326,248.200 231.600 M252.400 232.400 C 252.950 232.576,253.940 232.717,254.600 232.713 L 255.800 232.705 254.600 232.400 C 253.940 232.232,252.950 232.091,252.400 232.087 L 251.400 232.080 252.400 232.400 M196.235 250.300 C 188.361 260.145,177.483 273.753,172.060 280.540 C 150.859 307.074,147.300 311.397,146.755 311.271 C 146.326 311.172,146.308 311.252,146.674 311.626 C 147.308 312.270,146.267 313.482,161.813 294.000 C 169.275 284.650,175.599 276.730,175.868 276.400 C 176.136 276.070,178.723 272.830,181.615 269.200 C 184.508 265.570,187.173 262.239,187.537 261.799 C 187.902 261.358,188.825 260.188,189.590 259.199 C 190.354 258.209,191.079 257.310,191.200 257.200 C 191.321 257.090,192.046 256.191,192.810 255.201 C 193.575 254.212,194.505 253.042,194.877 252.601 C 195.250 252.161,198.959 247.535,203.119 242.321 C 208.807 235.193,210.796 232.956,211.141 233.301 C 211.486 233.646,211.600 233.591,211.600 233.080 C 211.600 231.344,209.622 233.561,196.235 250.300 M262.000 233.980 C 262.999 234.320,265.482 234.532,265.167 234.251 C 265.075 234.169,264.100 233.999,263.000 233.872 C 261.651 233.716,261.326 233.751,262.000 233.980 M211.695 235.200 C 211.695 235.970,211.832 237.140,212.000 237.800 L 212.305 239.000 212.305 237.600 C 212.305 236.830,212.168 235.660,212.000 235.000 L 211.695 233.800 211.695 235.200 M266.600 234.800 C 267.260 234.968,268.250 235.105,268.800 235.105 C 269.692 235.105,269.670 235.072,268.600 234.800 C 267.940 234.632,266.950 234.495,266.400 234.495 C 265.508 234.495,265.530 234.528,266.600 234.800 M229.158 236.008 C 230.125 236.453,231.005 236.728,231.114 236.620 C 231.321 236.412,230.086 235.881,228.400 235.453 C 227.850 235.313,228.191 235.563,229.158 236.008 M270.800 235.326 C 271.055 235.581,278.168 236.812,279.100 236.762 C 279.485 236.742,278.630 236.495,277.200 236.215 C 273.601 235.508,270.561 235.086,270.800 235.326 M232.000 237.200 C 232.330 237.413,232.870 237.588,233.200 237.588 C 233.733 237.588,233.733 237.545,233.200 237.200 C 232.870 236.987,232.330 236.812,232.000 236.812 C 231.467 236.812,231.467 236.855,232.000 237.200 M281.000 237.200 C 281.660 237.368,282.740 237.506,283.400 237.507 C 284.409 237.508,284.345 237.455,283.000 237.177 C 280.974 236.758,279.337 236.777,281.000 237.200 M286.833 238.146 C 286.925 238.226,287.990 238.394,289.200 238.519 C 290.620 238.666,291.046 238.629,290.400 238.413 C 289.409 238.083,286.513 237.865,286.833 238.146 M291.633 238.949 C 291.725 239.031,292.700 239.201,293.800 239.328 C 295.149 239.484,295.474 239.449,294.800 239.220 C 293.801 238.880,291.318 238.668,291.633 238.949 M212.400 239.950 C 212.400 240.436,212.754 242.941,213.186 245.517 C 213.903 249.782,214.950 256.201,217.180 270.000 C 217.625 272.750,219.169 282.380,220.613 291.400 C 223.717 310.801,224.418 314.943,224.637 315.167 C 224.981 315.518,224.766 313.673,223.831 308.234 C 223.298 305.135,222.401 299.720,221.837 296.200 C 221.273 292.680,220.262 286.380,219.590 282.200 C 218.918 278.020,218.006 272.350,217.565 269.600 C 217.123 266.850,216.136 260.730,215.371 256.000 C 214.606 251.270,213.692 245.600,213.339 243.400 C 212.695 239.387,212.400 238.303,212.400 239.950 M296.833 239.749 C 296.925 239.831,297.900 240.001,299.000 240.128 C 300.349 240.284,300.674 240.249,300.000 240.020 C 299.001 239.680,296.518 239.468,296.833 239.749 M302.400 240.792 C 303.170 240.957,304.115 241.226,304.500 241.389 C 304.893 241.555,305.200 241.513,305.200 241.293 C 305.200 240.869,303.231 240.371,301.850 240.446 C 301.353 240.473,301.581 240.616,302.400 240.792 M254.400 245.702 C 254.712 246.059,260.883 248.451,261.053 248.280 C 261.137 248.197,259.989 247.656,258.502 247.079 C 254.868 245.668,254.164 245.432,254.400 245.702 M263.158 249.237 C 264.125 249.666,264.988 249.945,265.075 249.858 C 265.248 249.686,262.165 248.382,261.692 248.428 C 261.531 248.444,262.191 248.808,263.158 249.237 M267.633 250.966 C 267.940 251.271,273.321 253.212,273.464 253.069 C 273.542 252.992,272.384 252.449,270.893 251.864 C 268.381 250.879,267.227 250.561,267.633 250.966 M280.400 256.000 C 280.730 256.213,281.270 256.388,281.600 256.388 C 282.133 256.388,282.133 256.345,281.600 256.000 C 281.270 255.787,280.730 255.612,280.400 255.612 C 279.867 255.612,279.867 255.655,280.400 256.000 M159.800 268.452 C 155.840 271.765,151.790 275.154,150.800 275.983 C 149.810 276.812,145.265 280.588,140.700 284.374 C 136.135 288.159,132.400 291.356,132.400 291.477 C 132.400 291.763,131.218 292.729,150.488 276.686 C 164.986 264.616,167.637 262.338,167.100 262.414 C 167.045 262.422,163.760 265.139,159.800 268.452 M224.855 316.600 C 224.833 317.260,225.079 319.240,225.402 321.000 C 225.724 322.760,226.183 325.460,226.422 327.000 C 226.662 328.540,227.031 330.880,227.244 332.200 C 227.456 333.520,227.815 335.830,228.041 337.334 C 228.433 339.946,229.152 342.463,229.146 341.200 C 229.140 339.851,224.891 315.493,224.855 316.600 " stroke="none" fill="#75a734" fill-rule="evenodd"></path><path id="path3" d="M183.365 40.400 C 183.803 43.002,185.547 53.743,187.197 64.000 C 188.830 74.151,189.306 77.104,191.444 90.351 C 192.061 94.174,192.630 97.109,192.709 96.872 C 192.843 96.470,191.715 89.185,187.371 62.400 C 184.137 42.460,183.625 39.491,183.375 39.244 C 183.240 39.110,183.235 39.630,183.365 40.400 M154.400 77.567 C 154.400 77.768,154.547 77.993,154.727 78.067 C 154.907 78.140,156.018 80.763,157.197 83.896 C 158.376 87.029,159.416 89.518,159.506 89.427 C 159.597 89.336,158.730 86.773,157.579 83.731 C 156.429 80.689,155.403 77.975,155.301 77.700 C 155.086 77.123,154.400 77.021,154.400 77.567 M159.600 90.106 C 159.600 90.310,163.286 100.254,172.277 124.310 C 173.287 127.011,174.187 129.146,174.278 129.055 C 174.370 128.964,173.906 127.474,173.248 125.745 C 172.590 124.015,169.337 115.322,166.018 106.426 C 160.547 91.758,159.600 89.350,159.600 90.106 M192.895 98.600 C 192.895 99.260,193.032 100.340,193.200 101.000 L 193.505 102.200 193.505 101.000 C 193.505 100.340,193.368 99.260,193.200 98.600 L 192.895 97.400 192.895 98.600 M193.638 103.363 C 193.617 104.002,193.952 106.522,194.383 108.963 C 195.792 116.952,195.904 117.478,195.926 116.200 C 195.938 115.540,195.436 112.120,194.812 108.600 C 194.188 105.080,193.660 102.723,193.638 103.363 M196.000 118.314 C 196.000 118.779,196.167 120.024,196.371 121.080 C 196.574 122.136,197.135 125.520,197.617 128.600 C 198.644 135.165,200.043 142.507,199.827 140.200 C 199.612 137.891,196.353 117.832,196.161 117.633 C 196.072 117.542,196.000 117.848,196.000 118.314 M174.505 130.000 C 175.014 131.848,178.945 141.988,179.094 141.839 C 179.286 141.648,175.349 130.992,174.720 130.000 C 174.382 129.467,174.358 129.467,174.505 130.000 M271.935 150.480 C 264.161 160.204,257.443 168.611,257.007 169.161 C 256.571 169.711,256.424 170.032,256.681 169.874 C 256.937 169.715,258.254 168.194,259.608 166.493 C 260.961 164.792,263.303 161.870,264.812 160.000 C 266.877 157.440,283.431 136.680,286.103 133.300 C 286.320 133.025,286.402 132.800,286.284 132.800 C 286.166 132.800,279.709 140.756,271.935 150.480 M200.043 142.555 C 200.019 142.970,200.369 145.580,200.820 148.355 C 202.691 159.864,205.096 174.744,207.450 189.370 C 207.837 191.773,208.220 193.541,208.301 193.298 C 208.434 192.897,201.210 147.138,200.423 143.400 C 200.237 142.520,200.066 142.140,200.043 142.555 M179.304 142.800 C 179.806 144.639,191.346 175.187,191.486 175.048 C 191.670 174.864,180.129 143.766,179.519 142.800 C 179.182 142.267,179.158 142.267,179.304 142.800 M301.533 154.700 C 301.460 154.865,300.410 155.810,299.200 156.800 C 297.990 157.790,296.640 158.927,296.200 159.327 C 295.760 159.726,294.641 160.626,293.712 161.327 C 292.784 162.027,292.019 162.744,292.012 162.919 C 292.006 163.094,294.115 161.494,296.700 159.362 C 302.461 154.610,302.691 154.400,302.119 154.400 C 301.870 154.400,301.607 154.535,301.533 154.700 M284.263 169.218 C 280.338 172.508,277.235 175.200,277.368 175.200 C 277.667 175.200,291.600 163.627,291.600 163.379 C 291.600 163.070,291.551 163.109,284.263 169.218 M241.563 188.500 C 233.596 198.455,226.807 206.915,226.476 207.300 C 226.146 207.685,226.039 207.994,226.238 207.988 C 226.437 207.981,227.230 207.129,228.000 206.095 C 228.770 205.061,229.707 203.852,230.081 203.408 C 230.456 202.963,236.002 196.030,242.406 188.000 C 248.809 179.970,254.353 173.034,254.724 172.587 C 256.182 170.835,256.489 170.400,256.274 170.400 C 256.150 170.400,249.530 178.545,241.563 188.500 M191.850 176.400 C 192.225 177.905,193.134 179.884,193.138 179.200 C 193.139 178.870,192.794 177.880,192.371 177.000 C 191.948 176.120,191.714 175.850,191.850 176.400 M268.556 182.308 C 264.132 185.989,259.632 189.741,258.556 190.646 C 257.480 191.551,254.980 193.626,253.000 195.258 C 246.990 200.209,239.859 206.134,238.800 207.055 C 238.250 207.533,234.380 210.752,230.200 214.208 C 226.020 217.664,222.148 220.876,221.596 221.346 C 221.044 221.816,219.649 222.982,218.496 223.937 C 216.369 225.700,215.829 226.805,217.100 226.794 C 217.697 226.789,217.711 226.732,217.200 226.408 C 216.436 225.925,214.311 227.797,237.000 208.973 C 278.081 174.889,277.247 175.588,276.789 175.608 C 276.685 175.613,272.980 178.628,268.556 182.308 M193.312 180.400 C 193.900 182.449,206.156 214.778,206.292 214.641 C 206.479 214.454,194.136 181.349,193.526 180.400 C 193.182 179.867,193.159 179.867,193.312 180.400 M98.202 181.541 C 99.083 181.950,100.253 182.400,100.802 182.542 C 101.351 182.685,101.079 182.467,100.198 182.059 C 99.317 181.650,98.147 181.200,97.598 181.058 C 97.049 180.915,97.321 181.133,98.202 181.541 M130.800 194.111 C 131.113 194.441,138.105 197.202,138.578 197.183 C 138.810 197.173,137.493 196.548,135.651 195.794 C 132.051 194.320,130.481 193.775,130.800 194.111 M208.444 194.700 C 208.395 195.701,209.580 202.904,209.837 203.167 C 210.144 203.480,209.950 201.800,209.219 197.800 C 208.817 195.600,208.468 194.205,208.444 194.700 M145.200 199.702 C 145.512 200.059,151.683 202.451,151.853 202.280 C 151.937 202.197,150.789 201.656,149.302 201.079 C 145.668 199.668,144.964 199.432,145.200 199.702 M210.039 204.304 C 209.993 205.373,211.173 212.906,211.426 213.159 C 211.732 213.465,211.559 211.908,210.809 207.600 C 210.407 205.290,210.060 203.807,210.039 204.304 M156.800 204.195 C 156.800 204.461,159.590 205.607,160.149 205.570 C 160.397 205.554,159.880 205.207,159.000 204.800 C 157.309 204.017,156.800 203.877,156.800 204.195 M67.633 204.549 C 67.725 204.631,68.700 204.801,69.800 204.928 C 71.149 205.084,71.474 205.049,70.800 204.820 C 69.801 204.480,67.318 204.268,67.633 204.549 M72.500 205.476 C 72.885 205.576,73.515 205.576,73.900 205.476 C 74.285 205.375,73.970 205.293,73.200 205.293 C 72.430 205.293,72.115 205.375,72.500 205.476 M76.000 205.980 C 76.999 206.320,79.482 206.532,79.167 206.251 C 79.075 206.169,78.100 205.999,77.000 205.872 C 75.651 205.716,75.326 205.751,76.000 205.980 M83.000 207.200 C 84.692 207.631,86.144 207.631,84.800 207.200 C 84.250 207.024,83.350 206.883,82.800 206.887 C 81.902 206.894,81.922 206.926,83.000 207.200 M86.433 207.744 C 86.525 207.824,87.410 207.996,88.400 208.127 C 89.602 208.286,89.934 208.247,89.400 208.010 C 88.636 207.672,86.086 207.443,86.433 207.744 M92.600 208.800 C 94.292 209.231,95.744 209.231,94.400 208.800 C 93.850 208.624,92.950 208.483,92.400 208.487 C 91.502 208.494,91.522 208.526,92.600 208.800 M224.221 210.200 C 223.410 211.190,222.893 211.993,223.073 211.984 C 223.399 211.969,226.174 208.400,225.861 208.400 C 225.770 208.400,225.033 209.210,224.221 210.200 M96.033 209.344 C 96.125 209.424,97.010 209.596,98.000 209.727 C 99.202 209.886,99.534 209.847,99.000 209.610 C 98.236 209.272,95.686 209.043,96.033 209.344 M100.833 210.149 C 100.925 210.231,101.900 210.401,103.000 210.528 C 104.349 210.684,104.674 210.649,104.000 210.420 C 103.001 210.080,100.518 209.868,100.833 210.149 M106.033 210.947 C 106.125 211.028,106.920 211.204,107.800 211.338 C 108.915 211.507,109.158 211.471,108.600 211.219 C 107.832 210.871,105.690 210.644,106.033 210.947 M111.400 212.000 C 113.092 212.431,114.544 212.431,113.200 212.000 C 112.650 211.824,111.750 211.683,111.200 211.687 C 110.302 211.694,110.322 211.726,111.400 212.000 M115.633 212.547 C 115.725 212.628,116.520 212.804,117.400 212.938 C 118.515 213.107,118.758 213.071,118.200 212.819 C 117.432 212.471,115.290 212.244,115.633 212.547 M218.551 217.300 C 213.482 223.686,213.510 223.672,212.804 220.371 L 212.424 218.600 212.567 220.535 C 212.854 224.423,213.457 224.155,218.547 217.881 C 222.614 212.869,222.965 212.400,222.643 212.400 C 222.531 212.400,220.690 214.605,218.551 217.300 M121.200 213.600 C 121.750 213.776,122.560 213.920,123.000 213.920 C 123.633 213.920,123.592 213.854,122.800 213.600 C 122.250 213.424,121.440 213.280,121.000 213.280 C 120.367 213.280,120.408 213.346,121.200 213.600 M181.200 213.701 C 181.512 214.056,189.681 217.252,189.849 217.084 C 189.932 217.002,188.334 216.281,186.299 215.482 C 181.704 213.677,180.948 213.413,181.200 213.701 M211.693 214.800 C 211.695 216.565,212.291 219.188,212.330 217.600 C 212.343 217.050,212.205 215.880,212.023 215.000 L 211.692 213.400 211.693 214.800 M124.833 214.149 C 124.925 214.231,125.900 214.401,127.000 214.528 C 128.349 214.684,128.674 214.649,128.000 214.420 C 127.001 214.080,124.518 213.868,124.833 214.149 M130.800 215.200 C 131.350 215.376,132.250 215.517,132.800 215.513 C 133.698 215.506,133.678 215.474,132.600 215.200 C 130.908 214.769,129.456 214.769,130.800 215.200 M206.400 215.310 C 206.400 215.850,208.515 221.218,208.668 221.066 C 208.758 220.976,208.369 219.674,207.804 218.173 C 206.849 215.636,206.400 214.720,206.400 215.310 M135.200 216.000 C 135.750 216.176,136.650 216.317,137.200 216.313 C 138.098 216.306,138.078 216.274,137.000 216.000 C 135.308 215.569,133.856 215.569,135.200 216.000 M144.800 217.600 C 145.350 217.776,146.250 217.917,146.800 217.913 C 147.698 217.906,147.678 217.874,146.600 217.600 C 144.908 217.169,143.456 217.169,144.800 217.600 M149.600 218.400 C 150.150 218.576,151.050 218.717,151.600 218.713 C 152.498 218.706,152.478 218.674,151.400 218.400 C 149.708 217.969,148.256 217.969,149.600 218.400 M159.200 219.980 C 160.199 220.320,162.682 220.532,162.367 220.251 C 162.275 220.169,161.300 219.999,160.200 219.872 C 158.851 219.716,158.526 219.751,159.200 219.980 M197.426 220.165 C 199.444 221.044,200.726 221.259,199.000 220.429 C 198.120 220.006,197.130 219.653,196.800 219.645 C 196.470 219.638,196.752 219.872,197.426 220.165 M165.700 221.076 C 166.085 221.176,166.715 221.176,167.100 221.076 C 167.485 220.975,167.170 220.893,166.400 220.893 C 165.630 220.893,165.315 220.975,165.700 221.076 M170.100 221.876 C 170.485 221.976,171.115 221.976,171.500 221.876 C 171.885 221.775,171.570 221.693,170.800 221.693 C 170.030 221.693,169.715 221.775,170.100 221.876 M209.078 222.700 C 209.338 224.220,208.725 224.395,206.743 223.371 C 206.073 223.024,205.433 222.834,205.320 222.947 C 205.047 223.220,207.895 224.400,208.825 224.400 C 209.863 224.400,209.998 223.969,209.389 222.600 L 208.856 221.400 209.078 222.700 M174.900 222.676 C 175.285 222.776,175.915 222.776,176.300 222.676 C 176.685 222.575,176.370 222.493,175.600 222.493 C 174.830 222.493,174.515 222.575,174.900 222.676 M189.233 224.947 C 189.325 225.028,190.120 225.214,191.000 225.362 C 192.146 225.554,192.430 225.514,192.000 225.221 C 191.460 224.853,188.832 224.593,189.233 224.947 M194.600 226.000 C 196.292 226.431,197.744 226.431,196.400 226.000 C 195.850 225.824,194.950 225.683,194.400 225.687 C 193.502 225.694,193.522 225.726,194.600 226.000 M198.433 226.544 C 198.525 226.624,199.410 226.796,200.400 226.927 C 201.602 227.086,201.934 227.047,201.400 226.810 C 200.636 226.472,198.086 226.243,198.433 226.544 M219.200 227.180 C 220.199 227.520,222.682 227.732,222.367 227.451 C 222.275 227.369,221.300 227.199,220.200 227.072 C 218.851 226.916,218.526 226.951,219.200 227.180 M204.400 227.600 C 204.950 227.776,205.850 227.920,206.400 227.920 L 207.400 227.920 206.400 227.600 C 205.850 227.424,204.950 227.280,204.400 227.280 L 203.400 227.280 204.400 227.600 M223.800 227.990 C 224.564 228.328,227.114 228.557,226.767 228.256 C 226.675 228.176,225.790 228.004,224.800 227.873 C 223.598 227.714,223.266 227.753,223.800 227.990 M207.820 228.507 C 207.933 228.803,205.422 231.165,201.786 234.179 C 198.361 237.020,195.445 239.527,195.307 239.750 C 195.073 240.129,202.455 234.260,203.653 233.114 C 203.954 232.826,205.233 231.718,206.496 230.651 C 207.758 229.583,208.693 228.550,208.572 228.355 C 208.234 227.807,207.600 227.935,207.820 228.507 M228.400 228.780 C 229.399 229.120,231.882 229.332,231.567 229.051 C 231.475 228.969,230.500 228.799,229.400 228.672 C 228.051 228.516,227.726 228.551,228.400 228.780 M215.200 230.967 C 215.200 231.279,217.370 237.354,220.023 244.467 C 222.675 251.580,224.930 257.651,225.032 257.957 C 225.135 258.264,225.307 258.426,225.415 258.318 C 225.524 258.210,223.358 252.109,220.602 244.761 C 217.847 237.412,215.679 231.175,215.784 230.900 C 215.889 230.625,215.801 230.400,215.587 230.400 C 215.374 230.400,215.200 230.655,215.200 230.967 M210.540 231.876 C 209.319 233.124,189.451 257.823,181.000 268.598 C 179.240 270.842,177.217 273.380,176.505 274.239 C 172.899 278.586,148.208 309.564,147.524 310.600 L 146.731 311.800 147.598 310.800 C 149.343 308.789,164.779 289.508,198.600 247.091 C 205.200 238.813,210.822 232.032,211.092 232.021 C 211.754 231.993,211.689 231.627,216.810 264.000 C 217.955 271.238,218.707 275.135,218.757 274.081 C 218.781 273.576,218.452 271.146,218.027 268.681 C 217.601 266.217,216.615 260.240,215.835 255.400 C 211.602 229.132,211.905 230.481,210.540 231.876 M245.400 231.623 C 247.426 232.042,249.063 232.023,247.400 231.600 C 246.740 231.432,245.660 231.294,245.000 231.293 C 243.991 231.292,244.055 231.345,245.400 231.623 M220.800 232.210 C 220.800 232.444,222.074 232.960,223.600 233.346 C 224.150 233.485,223.880 233.252,223.000 232.829 C 221.301 232.012,220.800 231.871,220.800 232.210 M248.833 232.149 C 248.925 232.231,249.900 232.401,251.000 232.528 C 252.349 232.684,252.674 232.649,252.000 232.420 C 251.001 232.080,248.518 231.868,248.833 232.149 M254.600 233.200 C 255.260 233.368,256.250 233.505,256.800 233.505 C 257.692 233.505,257.670 233.472,256.600 233.200 C 255.940 233.032,254.950 232.895,254.400 232.895 C 253.508 232.895,253.530 232.928,254.600 233.200 M258.433 233.749 C 258.525 233.831,259.500 234.001,260.600 234.128 C 261.949 234.284,262.274 234.249,261.600 234.020 C 260.601 233.680,258.118 233.468,258.433 233.749 M264.200 234.800 C 265.892 235.231,267.344 235.231,266.000 234.800 C 265.450 234.624,264.550 234.483,264.000 234.487 C 263.102 234.494,263.122 234.526,264.200 234.800 M228.800 235.310 C 229.116 235.642,234.091 237.602,234.569 237.583 C 234.806 237.574,233.962 237.135,232.692 236.608 C 230.094 235.528,228.502 234.998,228.800 235.310 M269.000 235.623 C 271.026 236.042,272.663 236.023,271.000 235.600 C 270.340 235.432,269.260 235.294,268.600 235.293 C 267.591 235.292,267.655 235.345,269.000 235.623 M274.000 236.400 C 274.550 236.576,275.360 236.720,275.800 236.720 C 276.433 236.720,276.392 236.654,275.600 236.400 C 275.050 236.224,274.240 236.080,273.800 236.080 C 273.167 236.080,273.208 236.146,274.000 236.400 M278.600 237.200 C 280.292 237.631,281.744 237.631,280.400 237.200 C 279.850 237.024,278.950 236.883,278.400 236.887 C 277.502 236.894,277.522 236.926,278.600 237.200 M283.400 238.000 C 283.840 238.189,284.650 238.338,285.200 238.332 L 286.200 238.320 285.200 238.000 C 284.650 237.824,283.840 237.674,283.400 237.668 L 282.600 237.656 283.400 238.000 M288.000 238.800 C 288.550 238.976,289.450 239.120,290.000 239.120 L 291.000 239.120 290.000 238.800 C 289.450 238.624,288.550 238.480,288.000 238.480 L 287.000 238.480 288.000 238.800 M292.800 239.580 C 293.799 239.920,296.282 240.132,295.967 239.851 C 295.875 239.769,294.900 239.599,293.800 239.472 C 292.451 239.316,292.126 239.351,292.800 239.580 M242.751 240.836 C 244.374 241.494,245.770 241.963,245.853 241.880 C 246.035 241.699,240.751 239.591,240.190 239.621 C 239.976 239.632,241.128 240.179,242.751 240.836 M184.800 248.258 C 175.633 255.904,170.893 259.983,172.366 258.960 C 173.088 258.459,189.694 244.762,190.000 244.415 C 190.168 244.226,194.248 240.891,194.767 240.519 C 194.858 240.454,194.858 240.329,194.767 240.243 C 194.675 240.156,190.190 243.763,184.800 248.258 M298.000 240.400 C 298.550 240.576,299.450 240.717,300.000 240.713 C 300.898 240.706,300.878 240.674,299.800 240.400 C 298.108 239.969,296.656 239.969,298.000 240.400 M301.633 240.944 C 301.725 241.023,302.340 241.208,303.000 241.356 C 303.876 241.552,304.038 241.515,303.600 241.218 C 303.060 240.853,301.232 240.598,301.633 240.944 M268.202 250.741 C 269.083 251.150,270.253 251.600,270.802 251.742 C 271.351 251.885,271.079 251.667,270.198 251.259 C 269.317 250.850,268.147 250.400,267.598 250.258 C 267.049 250.115,267.321 250.333,268.202 250.741 M277.200 254.102 C 277.512 254.459,283.683 256.851,283.853 256.680 C 283.937 256.597,282.789 256.056,281.302 255.479 C 277.668 254.068,276.964 253.832,277.200 254.102 M166.888 263.193 C 164.626 265.096,162.466 266.984,162.088 267.389 C 161.709 267.793,163.560 266.356,166.200 264.196 C 168.840 262.035,171.075 260.208,171.167 260.134 C 171.258 260.060,171.258 259.940,171.167 259.866 C 171.075 259.793,169.149 261.290,166.888 263.193 M226.439 261.000 C 226.400 261.582,227.396 264.332,227.776 264.693 C 227.954 264.862,227.965 264.550,227.800 264.000 C 227.346 262.481,226.469 260.548,226.439 261.000 M228.000 265.480 C 228.000 265.707,228.352 266.772,228.783 267.847 C 229.214 268.921,232.376 277.360,235.811 286.600 C 243.614 307.592,244.094 308.840,244.281 308.652 C 244.429 308.504,228.490 265.568,228.163 265.233 C 228.073 265.142,228.000 265.253,228.000 265.480 M150.200 277.037 C 144.260 281.982,139.040 286.412,138.600 286.880 C 138.160 287.348,138.520 287.145,139.400 286.428 C 143.460 283.122,149.897 277.833,150.804 277.058 C 151.356 276.586,152.796 275.390,154.003 274.400 C 157.746 271.330,161.490 268.019,161.200 268.034 C 161.090 268.040,156.140 272.091,150.200 277.037 M218.861 276.200 C 218.858 277.699,220.307 285.332,220.361 284.100 C 220.399 283.226,219.310 276.204,219.012 275.400 C 218.930 275.180,218.862 275.540,218.861 276.200 M220.456 286.000 C 220.447 287.370,221.901 295.224,221.956 294.100 C 221.998 293.232,220.914 286.216,220.612 285.400 C 220.530 285.180,220.460 285.450,220.456 286.000 M135.200 289.679 L 133.000 291.689 135.200 289.964 C 136.410 289.015,137.475 288.185,137.567 288.119 C 137.658 288.054,137.658 287.925,137.567 287.834 C 137.475 287.743,136.410 288.573,135.200 289.679 M222.095 296.200 C 222.095 296.860,222.232 297.940,222.400 298.600 L 222.705 299.800 222.705 298.600 C 222.705 297.940,222.568 296.860,222.400 296.200 L 222.095 295.000 222.095 296.200 M222.843 300.525 C 222.767 301.805,224.125 309.821,224.319 309.241 C 224.422 308.933,224.284 307.403,224.013 305.841 C 223.214 301.234,222.888 299.754,222.843 300.525 M244.400 309.522 C 244.400 310.064,247.244 316.975,247.634 317.380 C 248.112 317.876,248.128 317.099,247.650 316.580 C 247.458 316.371,246.714 314.625,245.997 312.700 C 244.795 309.473,244.400 308.686,244.400 309.522 M224.495 311.000 C 224.495 311.660,224.632 312.740,224.800 313.400 L 225.105 314.600 225.105 313.400 C 225.105 312.740,224.968 311.660,224.800 311.000 L 224.495 309.800 224.495 311.000 M225.270 315.600 C 225.257 316.150,225.395 317.320,225.577 318.200 L 225.908 319.800 225.907 318.400 C 225.905 316.635,225.309 314.012,225.270 315.600 M226.037 320.200 C 225.944 321.024,228.995 339.369,229.119 338.727 C 229.190 338.359,228.688 334.579,228.003 330.329 C 226.790 322.795,226.129 319.390,226.037 320.200 M229.206 340.500 C 229.203 341.105,229.380 341.600,229.600 341.600 C 230.106 341.600,230.106 340.783,229.600 340.000 C 229.298 339.532,229.211 339.643,229.206 340.500 " stroke="none" fill="#84b44c" fill-rule="evenodd"></path><path id="path4" d="" stroke="none" fill="#84ad44" fill-rule="evenodd"></path></g></svg>